<svg xmlns="http://www.w3.org/2000/svg" width="2280" height="1237" viewBox="0 0 2280 1237" version="1.1">
	<path d="M 1823 100.048 C 1820.525 100.478, 1816.640 101.145, 1814.367 101.531 C 1811.910 101.948, 1808.783 101.753, 1806.656 101.052 C 1803.547 100.025, 1802.454 100.156, 1798.290 102.055 C 1794.708 103.687, 1791.203 104.305, 1784.389 104.504 C 1775.346 104.768, 1768.954 106.223, 1765.921 108.707 C 1765.053 109.418, 1762.042 110, 1759.230 110 C 1756.419 110, 1753.840 110.450, 1753.500 111 C 1753.160 111.550, 1752.069 112, 1751.076 112 C 1750.082 112, 1748.126 112.900, 1746.727 114 C 1745.329 115.100, 1743.213 116, 1742.027 116 C 1739.833 116, 1735.909 117.696, 1735 119.037 C 1734.344 120.006, 1727.126 123, 1725.447 123 C 1723.556 123, 1717.771 126.756, 1710.815 132.500 C 1707.485 135.250, 1704.027 137.950, 1703.130 138.500 C 1702.234 139.050, 1699.382 141.412, 1696.793 143.750 C 1694.204 146.088, 1691.504 148.007, 1690.793 148.017 C 1690.082 148.026, 1687.552 150.051, 1685.170 152.517 C 1682.789 154.982, 1680.487 157, 1680.055 157 C 1679.623 157, 1676.428 160.488, 1672.956 164.750 C 1669.483 169.012, 1664.959 174.170, 1662.901 176.210 C 1660.844 178.251, 1658.869 180.838, 1658.513 181.960 C 1658.157 183.082, 1657.221 184, 1656.433 184 C 1655.645 184, 1655 184.459, 1655 185.021 C 1655 185.583, 1650.589 190.645, 1645.197 196.271 C 1639.806 201.897, 1633.573 208.975, 1631.348 212 C 1629.122 215.025, 1626.091 218.400, 1624.611 219.500 C 1623.131 220.600, 1620.811 223.383, 1619.457 225.684 C 1618.102 227.985, 1616.135 230.140, 1615.086 230.473 C 1614.036 230.806, 1611.990 232.636, 1610.538 234.539 C 1609.086 236.443, 1607.458 238, 1606.920 238 C 1606.382 238, 1603.731 239.687, 1601.029 241.750 C 1591.763 248.823, 1572.685 259.338, 1567 260.504 C 1565.075 260.899, 1562.825 261.756, 1562 262.408 C 1560.117 263.897, 1551 267.393, 1544.769 269.017 C 1542.167 269.695, 1539.524 270.868, 1538.897 271.625 C 1538.269 272.381, 1537.248 273.003, 1536.628 273.006 C 1536.007 273.010, 1534.150 273.746, 1532.500 274.642 C 1530.850 275.538, 1527.375 276.632, 1524.779 277.071 C 1522.182 277.511, 1517.232 279.203, 1513.779 280.831 C 1510.325 282.460, 1505.925 284.115, 1504 284.509 C 1502.075 284.904, 1497.350 286.257, 1493.500 287.515 C 1489.650 288.774, 1484.925 290.123, 1483 290.513 C 1481.075 290.903, 1478.825 291.798, 1478 292.501 C 1477.175 293.204, 1473.488 293.961, 1469.807 294.183 C 1465.497 294.444, 1462.470 295.168, 1461.307 296.219 C 1460.313 297.116, 1457.355 298.389, 1454.733 299.048 C 1452.111 299.707, 1449.722 300.641, 1449.424 301.123 C 1449.126 301.605, 1447.613 302, 1446.062 302 C 1444.511 302, 1440.736 303.147, 1437.674 304.549 C 1434.071 306.199, 1430.589 307.038, 1427.803 306.929 C 1425.239 306.829, 1421.649 307.606, 1418.921 308.852 C 1416.402 310.002, 1411.677 311.242, 1408.421 311.608 C 1405.164 311.974, 1401.600 312.748, 1400.500 313.328 C 1398.091 314.597, 1386.077 317.438, 1372.696 319.902 C 1367.304 320.895, 1362.377 322.223, 1361.746 322.854 C 1361.116 323.484, 1359.104 324, 1357.275 324 C 1355.446 324, 1351.447 324.880, 1348.388 325.955 C 1345.329 327.030, 1339.044 328.217, 1334.422 328.592 C 1329.520 328.989, 1325.568 329.815, 1324.939 330.574 C 1324.346 331.289, 1321.304 332.169, 1318.180 332.530 C 1315.056 332.891, 1310.281 333.819, 1307.568 334.593 C 1304.856 335.367, 1300.975 336, 1298.944 336 C 1296.913 336, 1293.282 336.738, 1290.876 337.639 C 1288.469 338.541, 1284.250 339.630, 1281.500 340.059 C 1278.750 340.489, 1273.575 341.285, 1270 341.829 C 1266.425 342.373, 1260.818 343.534, 1257.540 344.409 C 1254.262 345.284, 1250.662 346.007, 1249.540 346.015 C 1248.418 346.023, 1245.700 346.679, 1243.500 347.471 C 1241.300 348.264, 1236.063 348.932, 1231.862 348.956 C 1226.772 348.985, 1221.314 349.843, 1215.503 351.527 C 1210.177 353.071, 1204.587 354.001, 1201.141 353.917 C 1197.637 353.831, 1194.364 354.387, 1192.500 355.383 C 1190.850 356.266, 1187.475 356.991, 1185 356.995 C 1182.525 356.999, 1176.675 357.700, 1172 358.552 C 1167.325 359.404, 1158.440 360.471, 1152.255 360.924 C 1146.070 361.377, 1140.429 362.229, 1139.721 362.817 C 1139.012 363.405, 1133.272 364.164, 1126.966 364.502 C 1120.660 364.841, 1113.943 365.608, 1112.039 366.206 C 1110.136 366.805, 1104.736 367.435, 1100.039 367.608 C 1095.343 367.780, 1089.483 368.138, 1087.018 368.402 C 1084.553 368.667, 1077.578 369.159, 1071.518 369.495 C 1065.458 369.831, 1059.375 370.393, 1058 370.743 C 1056.625 371.093, 1050.775 371.414, 1045 371.457 C 1015.367 371.678, 1013.216 371.852, 1011.027 374.202 C 1008.165 377.273, 1009.962 378.783, 1018.027 380.082 C 1021.549 380.649, 1025.017 381.599, 1025.732 382.192 C 1026.447 382.786, 1030.307 383.195, 1034.311 383.103 C 1040.839 382.951, 1041.824 383.184, 1043.869 385.361 C 1045.553 387.153, 1047.635 387.953, 1051.825 388.419 C 1058.021 389.107, 1064.848 390.508, 1081.138 394.435 C 1086.989 395.846, 1094.106 397, 1096.954 397 C 1099.802 397, 1103.114 397.529, 1104.316 398.175 C 1107.290 399.775, 1112.851 400.899, 1123.278 402.007 C 1128.106 402.520, 1133.956 403.571, 1136.278 404.342 C 1138.600 405.113, 1146.105 406.059, 1152.955 406.444 C 1159.805 406.829, 1166.786 407.719, 1168.467 408.422 C 1170.358 409.212, 1176.287 409.724, 1184.012 409.764 C 1191.452 409.803, 1199.330 410.463, 1203.500 411.395 C 1209.694 412.780, 1217.845 414.250, 1226.222 415.494 C 1227.720 415.716, 1229.203 415.481, 1229.518 414.971 C 1230.469 413.433, 1254.136 414.052, 1256.786 415.684 C 1259.417 417.306, 1266.162 416.940, 1268.436 415.053 C 1269.599 414.088, 1275.682 413.925, 1294.836 414.348 C 1322.167 414.952, 1356.887 413.754, 1361.361 412.053 C 1364.282 410.942, 1375.916 410.087, 1391 409.873 C 1397.187 409.785, 1401.302 409.106, 1406.121 407.376 C 1410.613 405.764, 1414.953 404.992, 1419.621 404.976 C 1423.404 404.963, 1428.300 404.470, 1430.500 403.881 C 1432.700 403.292, 1438.775 402.415, 1444 401.933 C 1449.225 401.451, 1455.750 400.397, 1458.500 399.591 C 1462.756 398.344, 1473.609 396.768, 1486.806 395.480 C 1488.624 395.302, 1491.182 394.456, 1492.491 393.598 C 1493.799 392.741, 1497.037 391.816, 1499.685 391.544 C 1502.333 391.272, 1506.975 390.317, 1510 389.422 C 1513.025 388.527, 1517.750 387.587, 1520.500 387.333 C 1523.250 387.079, 1526.918 386.225, 1528.651 385.436 C 1530.384 384.646, 1533.676 384, 1535.967 384 C 1538.257 384, 1540.975 383.549, 1542.005 382.997 C 1543.857 382.006, 1552.332 379.968, 1563 377.947 C 1566.025 377.374, 1570.137 376.276, 1572.137 375.506 C 1574.137 374.737, 1575.985 374.319, 1576.244 374.578 C 1576.912 375.245, 1586.911 372.475, 1590.548 370.614 C 1592.225 369.756, 1595.825 368.805, 1598.548 368.500 C 1601.272 368.195, 1604.850 367.294, 1606.500 366.498 C 1612.695 363.510, 1622.592 360.165, 1625.116 360.207 C 1626.554 360.230, 1629.929 359.568, 1632.616 358.735 C 1635.302 357.901, 1640.200 356.465, 1643.500 355.543 C 1646.800 354.621, 1651.909 352.994, 1654.853 351.928 C 1662.203 349.266, 1678.318 347.333, 1681.263 348.760 C 1684.830 350.489, 1687.925 350.914, 1698.022 351.065 C 1706.933 351.197, 1712.194 352.080, 1716.236 354.123 C 1718.540 355.287, 1727.671 355.241, 1731.841 354.046 C 1734.451 353.297, 1736.339 353.529, 1740.595 355.122 C 1745.480 356.949, 1748.042 357.130, 1766.261 356.931 C 1777.392 356.810, 1788.525 356.293, 1791 355.781 C 1793.475 355.270, 1799.775 354.227, 1805 353.464 C 1816.308 351.812, 1825.833 349.525, 1832 346.979 C 1834.475 345.958, 1838.116 344.862, 1840.090 344.546 C 1842.065 344.229, 1844.695 342.889, 1845.935 341.569 C 1847.175 340.249, 1849.341 338.880, 1850.748 338.527 C 1853.749 337.774, 1860.935 333.048, 1866.253 328.329 C 1868.317 326.498, 1870.342 324.998, 1870.753 324.995 C 1871.164 324.992, 1873.525 322.968, 1876 320.499 C 1878.475 318.029, 1882.638 313.888, 1885.250 311.297 C 1887.862 308.706, 1890.005 305.892, 1890.012 305.043 C 1890.018 304.194, 1892.268 301.279, 1895.012 298.565 C 1897.755 295.851, 1900 293.289, 1900 292.873 C 1900 292.457, 1902.475 288.053, 1905.500 283.088 C 1908.525 278.123, 1911 273.664, 1911 273.180 C 1911 272.696, 1912.243 270.545, 1913.762 268.400 C 1917.855 262.620, 1920.477 256.544, 1923.429 246 C 1924.122 243.525, 1925.373 240.150, 1926.211 238.500 C 1927.048 236.850, 1928.056 233.715, 1928.452 231.534 C 1928.848 229.352, 1930.033 226.358, 1931.086 224.879 C 1932.139 223.401, 1933 220.822, 1933 219.148 C 1933 216.229, 1932.882 216.145, 1930.123 217.107 C 1928.540 217.659, 1926.212 219.210, 1924.948 220.555 C 1923.685 221.900, 1921.674 223, 1920.479 223 C 1919.284 223, 1917.268 223.900, 1916 225 C 1914.732 226.100, 1912.918 227, 1911.969 227 C 1911.021 227, 1909.675 227.687, 1908.978 228.527 C 1907.563 230.232, 1899.271 236, 1898.235 236 C 1897.869 236, 1896.655 236.911, 1895.535 238.024 C 1892.309 241.233, 1886.087 245, 1884.012 245 C 1882.968 245, 1881.525 245.827, 1880.807 246.837 C 1880.088 247.848, 1878.325 249.310, 1876.889 250.087 C 1872.891 252.251, 1865.890 257.024, 1863.640 259.121 C 1862.531 260.154, 1860.573 261, 1859.290 261 C 1857.805 261, 1856.564 261.863, 1855.876 263.372 C 1855.181 264.899, 1853.317 266.179, 1850.648 266.963 C 1848.366 267.632, 1845.150 269.398, 1843.500 270.887 C 1841.850 272.375, 1837.575 274.922, 1834 276.546 C 1830.425 278.171, 1826.879 280.088, 1826.121 280.808 C 1825.363 281.527, 1824.097 281.867, 1823.308 281.565 C 1822.519 281.262, 1820.576 281.685, 1818.991 282.504 C 1816.281 283.906, 1815.765 283.816, 1810.336 280.999 C 1807.160 279.351, 1803.772 278.255, 1802.805 278.562 C 1801.838 278.869, 1796.874 277.443, 1791.774 275.393 C 1782.709 271.749, 1779.954 271.251, 1775.123 272.379 C 1772.647 272.957, 1769.219 271.606, 1767.500 269.376 C 1766.950 268.662, 1764.296 267.594, 1761.602 267.002 C 1758.908 266.410, 1755.463 265.042, 1753.947 263.963 C 1752.196 262.716, 1749.560 262, 1746.718 262 C 1741.184 262, 1735.496 259.717, 1733.628 256.745 C 1732.320 254.664, 1730.602 235.319, 1731.030 227.500 C 1731.247 223.544, 1731.246 224.008, 1731.052 204.938 C 1730.959 195.828, 1731.186 185.024, 1731.557 180.928 C 1732.179 174.071, 1732.481 173.301, 1735.366 171.227 C 1737.090 169.989, 1740.963 167.181, 1743.973 164.987 C 1746.983 162.794, 1749.830 161, 1750.300 161 C 1750.770 161, 1752.434 159.720, 1753.998 158.156 C 1755.562 156.592, 1759.465 154.037, 1762.671 152.478 C 1767.658 150.054, 1775.346 144.910, 1777 142.890 C 1777.275 142.554, 1778.850 141.571, 1780.500 140.705 C 1782.150 139.839, 1784.718 137.976, 1786.206 136.565 C 1787.695 135.154, 1789.162 134, 1789.468 134 C 1790.122 134, 1802.270 125.869, 1803 124.942 C 1803.275 124.593, 1804.659 124.025, 1806.076 123.679 C 1807.493 123.332, 1810.076 121.688, 1811.817 120.025 C 1813.558 118.361, 1815.626 117, 1816.414 117 C 1817.202 117, 1819.289 115.557, 1821.052 113.794 C 1822.816 112.031, 1826.200 109.356, 1828.574 107.851 C 1830.948 106.346, 1833.601 103.738, 1834.471 102.057 L 1836.051 99 1831.776 99.134 C 1829.424 99.207, 1825.475 99.619, 1823 100.048 M 1098.500 140.019 C 1095.061 141.677, 1092.213 141.951, 1078.184 141.974 C 1068.179 141.990, 1061.065 142.430, 1059.792 143.112 C 1058.649 143.723, 1054.600 144.614, 1050.793 145.092 C 1046.986 145.570, 1043.338 146.307, 1042.686 146.731 C 1042.034 147.154, 1039.250 147.559, 1036.500 147.631 C 1025.766 147.913, 1016.295 149.235, 1011.815 151.075 C 1009.238 152.134, 1005.032 153, 1002.469 153 C 999.542 153, 996.821 153.692, 995.154 154.861 C 993.694 155.885, 990.344 156.957, 987.709 157.243 C 985.075 157.529, 982.081 158.521, 981.058 159.448 C 979.836 160.553, 977.014 161.247, 972.848 161.466 C 969.357 161.650, 965.150 162.518, 963.500 163.394 C 961.850 164.271, 959.375 164.992, 958 164.998 C 956.625 165.003, 954.141 165.836, 952.480 166.849 C 950.819 167.862, 947.800 169.003, 945.772 169.383 C 943.744 169.763, 940.828 170.730, 939.292 171.531 C 937.757 172.332, 935.285 172.990, 933.800 172.994 C 932.315 172.997, 930.740 173.618, 930.300 174.373 C 929.270 176.141, 919.645 181, 917.173 181 C 916.131 181, 913.621 182.125, 911.595 183.500 C 909.569 184.875, 907.281 186, 906.511 186 C 905.740 186, 901.823 187.655, 897.805 189.677 C 893.725 191.731, 889.176 193.300, 887.500 193.231 C 872.986 192.638, 855.920 191.027, 854.156 190.084 C 852.785 189.350, 843.854 188.767, 829.747 188.489 C 817.511 188.249, 799.625 187.774, 790 187.434 C 752.076 186.096, 686.565 187.280, 683.212 189.364 C 682.504 189.804, 677.779 190.532, 672.712 190.982 C 667.646 191.432, 661.700 192.257, 659.500 192.816 C 657.300 193.375, 653.025 194.064, 650 194.348 C 643.525 194.955, 635.457 196.685, 633.022 197.988 C 631.078 199.029, 617.483 201.998, 614.658 201.999 C 613.644 202, 611.671 202.900, 610.273 204 C 608.855 205.115, 606.131 206.028, 604.115 206.064 C 598.750 206.159, 589.739 208.277, 586.949 210.099 C 585.602 210.979, 582.911 211.993, 580.969 212.353 C 579.026 212.714, 576.668 213.907, 575.728 215.004 C 574.558 216.371, 572.779 217, 570.087 217 C 567.350 217, 565.249 217.761, 563.182 219.500 C 561.548 220.875, 559.356 222, 558.310 222 C 557.264 222, 553.106 223.976, 549.069 226.392 C 544.921 228.874, 539.245 231.311, 536.017 231.996 C 532.407 232.762, 529.237 234.202, 527.403 235.910 C 524.732 238.395, 519.327 241.292, 509.750 245.371 C 507.688 246.249, 506 247.401, 506 247.930 C 506 249.415, 495.954 255.685, 491.755 256.822 C 489.695 257.380, 486.724 259.122, 485.152 260.694 C 483.580 262.266, 481.292 263.628, 480.067 263.720 C 477.466 263.916, 475 265.730, 475 267.448 C 475 268.918, 470.790 273, 469.274 273 C 468.671 273, 467.104 274.238, 465.792 275.750 C 463.231 278.702, 457.592 283, 456.281 283 C 455.841 283, 451.852 286.712, 447.416 291.250 C 442.981 295.788, 437.665 300.785, 435.604 302.356 C 433.542 303.926, 431.579 305.951, 431.239 306.856 C 430.900 307.760, 429.470 309.657, 428.061 311.071 C 423.718 315.431, 420.500 320.248, 420.500 322.389 C 420.500 324.215, 421.033 324.401, 425.500 324.133 C 428.250 323.968, 431.850 323.013, 433.500 322.010 C 438.054 319.241, 449.049 315, 451.672 315 C 452.953 315, 454 314.550, 454 314 C 454 313.450, 454.873 313, 455.941 313 C 457.009 313, 458.132 312.595, 458.438 312.100 C 458.744 311.606, 461.358 310.639, 464.247 309.953 C 467.136 309.267, 471.067 307.873, 472.982 306.855 C 474.897 305.837, 478.047 304.745, 479.982 304.430 C 481.917 304.114, 484.400 303.460, 485.500 302.975 C 488.612 301.605, 495.251 300.012, 497.876 300.006 C 499.183 300.003, 502.838 298.686, 505.998 297.081 C 509.157 295.475, 513.938 293.871, 516.621 293.517 C 519.305 293.163, 523.075 292.276, 525 291.546 C 526.925 290.816, 532.100 289.676, 536.500 289.011 C 540.900 288.346, 544.981 287.410, 545.568 286.929 C 546.156 286.449, 551.106 285.361, 556.568 284.511 C 565.881 283.061, 573.491 281.383, 580.500 279.231 C 582.150 278.725, 586.875 278.216, 591 278.101 C 595.125 277.986, 602.550 277.491, 607.500 277.001 C 627.621 275.011, 633.685 274.549, 637.500 274.718 C 651.543 275.338, 670.029 275.962, 673 275.917 C 674.925 275.888, 677.850 275.849, 679.500 275.831 C 684.616 275.773, 700.238 277.954, 701.399 278.888 C 702.004 279.375, 704.525 280.071, 707 280.434 C 722.035 282.638, 740.972 286.341, 743.786 287.627 C 745.594 288.453, 749.644 289.798, 752.786 290.616 C 755.929 291.434, 758.928 292.530, 759.450 293.052 C 759.973 293.573, 761.160 294, 762.089 294 C 764.898 294, 786.386 301.118, 788.079 302.609 C 788.947 303.374, 790.558 304, 791.659 304 C 792.760 304, 795.824 305.095, 798.467 306.433 C 801.110 307.771, 805.461 309.391, 808.136 310.033 C 810.811 310.674, 813 311.510, 813 311.889 C 813 312.568, 817.256 314.849, 830 320.998 C 833.575 322.723, 837.625 324.763, 839 325.532 C 841.798 327.097, 845.565 328.992, 851.500 331.818 C 853.700 332.866, 857.548 335.289, 860.051 337.203 C 862.555 339.117, 865.786 340.980, 867.231 341.343 C 868.677 341.706, 870.475 342.618, 871.227 343.370 C 871.978 344.121, 873.472 345.019, 874.547 345.366 C 875.621 345.712, 878.092 347.459, 880.037 349.248 C 887.957 356.530, 894.325 358.697, 902.694 356.960 C 905.827 356.309, 910.589 356.093, 913.572 356.466 C 916.490 356.830, 925.992 356.630, 934.689 356.020 C 943.385 355.410, 960.625 354.742, 973 354.536 C 985.375 354.330, 997.975 353.702, 1001 353.142 C 1004.025 352.581, 1014.600 351.853, 1024.500 351.524 C 1034.400 351.195, 1047.555 350.461, 1053.733 349.893 C 1059.910 349.325, 1065.422 349.143, 1065.981 349.488 C 1066.540 349.834, 1069.585 349.455, 1072.749 348.646 C 1076.684 347.640, 1081.658 347.315, 1088.500 347.616 C 1099.838 348.115, 1119.760 346.444, 1121.703 344.831 C 1122.512 344.160, 1125.333 343.997, 1129.248 344.394 C 1137.533 345.235, 1140.274 345.170, 1140.944 344.114 C 1141.250 343.632, 1146.225 342.742, 1152 342.135 C 1179.917 339.204, 1186.078 338.649, 1193.465 338.400 C 1199.290 338.203, 1201.737 337.713, 1202.570 336.573 C 1203.416 335.417, 1206.262 334.876, 1213.605 334.477 C 1219.047 334.181, 1224.852 333.504, 1226.505 332.973 C 1228.157 332.441, 1232.657 331.550, 1236.505 330.992 C 1244.262 329.867, 1249.406 328.983, 1262 326.606 C 1266.675 325.724, 1272.535 325.002, 1275.022 325.001 C 1279.347 325, 1284.014 323.859, 1299.500 319.016 C 1311 315.419, 1316.858 314.155, 1330 312.435 C 1336.875 311.535, 1343.400 310.444, 1344.500 310.010 C 1347.413 308.860, 1353.872 307.267, 1358.741 306.497 C 1361.073 306.129, 1364.780 304.958, 1366.979 303.896 C 1369.177 302.834, 1373.119 301.710, 1375.738 301.398 C 1378.357 301.085, 1381.175 300.570, 1382 300.251 C 1383.807 299.554, 1383.544 299.637, 1388.500 298.205 C 1390.700 297.570, 1393.505 296.343, 1394.734 295.480 C 1395.962 294.616, 1399.337 293.657, 1402.234 293.348 C 1405.130 293.039, 1409.300 291.972, 1411.500 290.978 C 1413.700 289.984, 1417.387 288.872, 1419.692 288.507 C 1421.998 288.142, 1424.416 287.204, 1425.065 286.422 C 1425.714 285.640, 1426.752 284.996, 1427.372 284.991 C 1427.993 284.986, 1430.750 283.875, 1433.500 282.522 C 1436.250 281.169, 1439.779 280.048, 1441.342 280.031 C 1442.906 280.014, 1445.329 279.100, 1446.727 278 C 1448.126 276.900, 1450.009 276, 1450.912 276 C 1451.816 276, 1453.632 275.246, 1454.948 274.324 C 1456.265 273.402, 1459.563 272.296, 1462.279 271.867 C 1464.995 271.438, 1467.730 270.461, 1468.358 269.698 C 1468.986 268.934, 1471.075 267.720, 1473 266.999 C 1477.664 265.254, 1497.020 256.573, 1504.390 252.920 C 1507.630 251.314, 1510.923 250, 1511.707 250 C 1512.492 250, 1514.608 248.875, 1516.411 247.500 C 1518.214 246.125, 1520.054 245, 1520.500 245 C 1520.946 245, 1522.704 243.976, 1524.406 242.724 C 1526.108 241.471, 1529.975 239.388, 1533 238.093 C 1542.877 233.865, 1543.473 233.573, 1545.885 231.776 C 1547.197 230.799, 1549.028 230, 1549.955 230 C 1550.881 230, 1552.646 228.843, 1553.876 227.428 C 1555.106 226.014, 1558.370 223.810, 1561.130 222.531 C 1571.495 217.729, 1580.881 209.359, 1578.430 207.104 C 1577.918 206.634, 1573 205.459, 1567.500 204.492 C 1561.809 203.493, 1556.522 201.970, 1555.230 200.958 C 1553.797 199.836, 1551.899 199.348, 1550.081 199.635 C 1548.497 199.884, 1544.584 199.168, 1541.385 198.044 C 1538.187 196.920, 1534.204 195.986, 1532.535 195.968 C 1530.866 195.951, 1528.626 195.276, 1527.559 194.468 C 1526.326 193.536, 1523.304 193, 1519.274 193 C 1515.338 193, 1512.066 192.434, 1510.656 191.510 C 1509.406 190.691, 1506.159 189.581, 1503.441 189.042 C 1494.412 187.255, 1493.805 187.083, 1492.406 185.922 C 1491.482 185.155, 1489.148 185.001, 1485.455 185.462 C 1481.934 185.902, 1479.418 185.762, 1478.595 185.079 C 1476.017 182.939, 1463.410 178.999, 1459.004 178.956 C 1456.527 178.932, 1452.700 178.248, 1450.500 177.437 C 1444.588 175.257, 1433.274 172.957, 1431.608 173.597 C 1430.809 173.903, 1429.280 173.685, 1428.208 173.111 C 1427.137 172.538, 1423.887 171.853, 1420.985 171.590 C 1418.084 171.326, 1415.235 170.635, 1414.655 170.055 C 1414.075 169.475, 1412.903 168.997, 1412.050 168.994 C 1411.198 168.990, 1409.375 168.421, 1408 167.727 C 1406.625 167.034, 1403.250 166.558, 1400.500 166.668 C 1395.030 166.887, 1383.749 164.426, 1380.360 162.274 C 1379.117 161.484, 1374.405 160.748, 1369.111 160.517 C 1364.101 160.298, 1359.438 159.768, 1358.751 159.338 C 1357.370 158.477, 1357.395 158.481, 1347.604 157.562 C 1343.812 157.206, 1339.883 156.473, 1338.874 155.932 C 1337.864 155.392, 1333.542 154.523, 1329.269 154.001 C 1307.027 151.285, 1296.837 149.956, 1290.500 148.947 C 1286.650 148.334, 1281.025 147.595, 1278 147.305 C 1274.975 147.015, 1271.278 146.149, 1269.784 145.381 C 1267.926 144.425, 1263.972 144.033, 1257.284 144.141 C 1251.903 144.227, 1245.250 143.943, 1242.500 143.508 C 1239.750 143.074, 1233.678 142.521, 1229.006 142.279 C 1224.334 142.037, 1220.038 141.446, 1219.459 140.966 C 1218.391 140.079, 1217.238 139.927, 1211 139.848 C 1205.075 139.774, 1192.938 140.729, 1192.350 141.316 C 1192.045 141.622, 1190.603 141.402, 1189.147 140.827 C 1185.337 139.322, 1134.107 138.230, 1128.152 139.526 C 1126.131 139.967, 1123.272 139.750, 1120.935 138.978 C 1117.821 137.951, 1116.768 137.947, 1115.546 138.962 C 1114.128 140.139, 1111.889 140.066, 1105 138.617 C 1103.569 138.316, 1100.789 138.916, 1098.500 140.019 M 1151.955 160.336 C 1151.285 161.058, 1133.520 162.708, 1118 163.491 C 1106.972 164.047, 1100.583 165.239, 1098.550 167.121 C 1098.028 167.604, 1093.528 168.007, 1088.550 168.015 C 1083.572 168.023, 1076.800 168.653, 1073.500 169.416 C 1070.200 170.178, 1063.481 171.324, 1058.570 171.962 C 1053.658 172.600, 1048.722 173.613, 1047.601 174.213 C 1046.480 174.813, 1043.299 175.274, 1040.531 175.238 C 1037.734 175.201, 1032.320 176.227, 1028.338 177.549 C 1024.399 178.857, 1016.974 180.877, 1011.838 182.039 C 1006.702 183.201, 1000.475 184.879, 998 185.769 C 995.478 186.676, 990.899 187.321, 987.582 187.236 C 984.187 187.150, 980.563 187.672, 979.082 188.462 C 974.650 190.825, 968.623 192.785, 963.463 193.541 C 960.733 193.941, 957.240 195.155, 955.701 196.237 C 954.161 197.320, 950.111 198.578, 946.701 199.032 C 943.290 199.487, 937.891 200.565, 934.701 201.429 C 931.512 202.293, 928.124 203, 927.173 203 C 926.223 203, 924.696 203.875, 923.780 204.944 C 922.865 206.013, 920.530 207.185, 918.592 207.549 C 914.746 208.270, 913.024 211.119, 914.996 213.495 C 915.635 214.265, 918.260 215.680, 920.829 216.639 C 923.398 217.599, 927.838 219.629, 930.696 221.151 C 933.554 222.672, 938.729 224.651, 942.196 225.548 C 945.663 226.445, 949.041 227.626, 949.702 228.172 C 950.363 228.718, 954.141 229.835, 958.096 230.654 C 962.052 231.473, 966.236 232.725, 967.394 233.438 C 968.552 234.150, 973.325 235.741, 978 236.973 C 982.675 238.205, 988.070 239.884, 989.990 240.705 C 991.909 241.525, 995.509 242.572, 997.990 243.031 C 1000.470 243.490, 1005.200 244.739, 1008.500 245.807 C 1017.103 248.590, 1025.570 250, 1033.683 250 C 1038.852 250, 1042.053 250.596, 1045.623 252.223 C 1049.656 254.061, 1052.317 254.450, 1061 254.473 C 1066.775 254.488, 1072.140 254.912, 1072.923 255.416 C 1075.557 257.112, 1090.115 259.500, 1103.500 260.432 C 1106.250 260.624, 1111.157 261.125, 1114.405 261.546 C 1118.772 262.112, 1120.125 262.011, 1119.598 261.159 C 1119.061 260.290, 1119.576 260.287, 1121.693 261.149 C 1123.640 261.942, 1136.297 262.273, 1163 262.231 C 1187.648 262.192, 1201.940 262.535, 1202.722 263.185 C 1203.550 263.872, 1205.487 263.854, 1208.722 263.128 C 1215.974 261.504, 1230.608 260.001, 1239 260.019 C 1243.125 260.028, 1248.750 259.678, 1251.500 259.240 C 1254.250 258.803, 1257.625 258.564, 1259 258.710 C 1261.333 258.956, 1271.269 257.136, 1280.500 254.770 C 1282.700 254.207, 1287.650 253.665, 1291.500 253.568 C 1295.350 253.470, 1301.109 252.627, 1304.299 251.695 C 1307.488 250.763, 1311.596 250, 1313.427 250 C 1315.258 250, 1318.371 249.325, 1320.346 248.500 C 1322.320 247.675, 1326.602 247, 1329.861 247 C 1334.296 247, 1335.936 246.609, 1336.382 245.446 C 1337.122 243.518, 1331.960 233.063, 1330.250 233.027 C 1329.563 233.012, 1328.998 232.213, 1328.995 231.250 C 1328.993 230.287, 1327.530 227.824, 1325.745 225.775 C 1320.861 220.167, 1318 216.289, 1318 215.273 C 1318 214.773, 1316.529 212.710, 1314.732 210.690 C 1312.934 208.669, 1310.572 205.325, 1309.482 203.258 C 1306.627 197.845, 1302.187 191.269, 1297.373 185.322 C 1295.067 182.474, 1292.884 179.211, 1292.523 178.072 C 1292.161 176.932, 1291.476 176, 1291 176 C 1290.524 176, 1289.842 175.079, 1289.485 173.953 C 1289.128 172.828, 1285.835 169.929, 1282.168 167.511 L 1275.500 163.116 1264.500 163.180 C 1258.246 163.217, 1252.224 162.737, 1250.542 162.068 C 1247.436 160.832, 1153.032 159.174, 1151.955 160.336 M 1307.753 171.811 C 1307.245 174.130, 1313.179 185.970, 1314.857 185.987 C 1315.646 185.994, 1315.975 186.623, 1315.642 187.490 C 1315.319 188.333, 1316.140 190.049, 1317.535 191.444 C 1318.891 192.800, 1320 193.728, 1320 193.507 C 1320 193.285, 1321.325 193.566, 1322.944 194.130 C 1326.629 195.415, 1332.819 202.847, 1333.646 206.979 C 1334.053 209.016, 1335.827 211.376, 1338.772 213.797 C 1343.335 217.549, 1348.688 222.789, 1351.150 225.913 C 1351.892 226.855, 1354.412 229.929, 1356.750 232.743 C 1359.088 235.557, 1361 238.265, 1361 238.760 C 1361 239.256, 1362.021 240.209, 1363.269 240.876 C 1365.103 241.858, 1366.247 241.795, 1369.237 240.545 C 1371.271 239.695, 1375.815 239, 1379.333 239 C 1384.219 239, 1386.332 238.527, 1388.276 236.997 C 1389.739 235.847, 1391.520 235.262, 1392.461 235.623 C 1394.561 236.429, 1406.031 234.096, 1408 232.462 C 1408.825 231.778, 1411.525 230.896, 1414 230.503 C 1416.475 230.110, 1419.903 228.936, 1421.618 227.894 C 1423.333 226.852, 1426.258 225.994, 1428.118 225.987 C 1429.978 225.980, 1434.353 225.080, 1437.839 223.987 C 1441.326 222.894, 1445.713 222, 1447.589 222 C 1449.667 222, 1451.782 221.218, 1453 220 C 1454.117 218.883, 1456.333 218, 1458.020 218 C 1459.681 218, 1462.822 216.875, 1465 215.500 C 1467.178 214.125, 1469.426 213, 1469.994 213 C 1471.303 213, 1476.764 207.057, 1477.527 204.801 C 1477.870 203.790, 1477.222 202.222, 1475.927 200.927 C 1474.099 199.099, 1472.994 198.841, 1469.012 199.312 C 1466.406 199.621, 1463.874 199.524, 1463.387 199.098 C 1462.899 198.671, 1459.800 197.751, 1456.500 197.054 C 1449.518 195.578, 1446.170 194.506, 1440.077 191.795 C 1437.644 190.713, 1433.144 189.623, 1430.077 189.374 C 1427.010 189.125, 1421.350 188.264, 1417.500 187.462 C 1413.650 186.659, 1409.600 185.998, 1408.500 185.995 C 1407.400 185.991, 1405.160 185.289, 1403.523 184.435 C 1401.886 183.582, 1397.386 182.665, 1393.523 182.398 C 1389.660 182.131, 1384.850 181.276, 1382.834 180.498 C 1380.818 179.720, 1375.522 178.626, 1371.067 178.068 C 1366.611 177.509, 1362.107 176.592, 1361.058 176.031 C 1360.009 175.469, 1358.104 175.056, 1356.825 175.113 C 1355.546 175.170, 1352.422 174.787, 1349.882 174.262 C 1347.342 173.737, 1343.967 173.489, 1342.382 173.711 C 1340.797 173.933, 1336.350 173.342, 1332.500 172.398 C 1328.650 171.453, 1321.590 170.555, 1316.812 170.402 C 1309.330 170.161, 1308.072 170.357, 1307.753 171.811 M 565.583 315.866 C 565.052 316.725, 561.002 317.191, 543 318.468 C 539.975 318.682, 533 319.562, 527.500 320.423 C 522 321.284, 515.122 321.991, 512.215 321.994 C 509.211 321.997, 505.942 322.647, 504.641 323.500 C 503.140 324.483, 499.066 325.125, 492.800 325.364 C 487.546 325.565, 482.693 326.072, 482.014 326.491 C 481.336 326.911, 477.798 327.444, 474.153 327.675 C 469.508 327.971, 466.923 328.655, 465.513 329.963 C 464.406 330.990, 461.250 332.120, 458.500 332.474 C 436.793 335.274, 431.059 336.400, 427.500 338.566 C 424.100 340.634, 410.014 341.313, 404.939 339.653 C 402.497 338.854, 398.256 337.887, 395.513 337.504 C 392.770 337.120, 389.395 336.235, 388.013 335.536 C 382.293 332.646, 340.623 331.821, 336.394 334.515 C 335.236 335.253, 331.823 335.857, 328.809 335.857 C 324.549 335.857, 322.226 336.508, 318.364 338.785 C 315.632 340.396, 311.621 342.297, 309.449 343.009 C 307.277 343.721, 304.586 345.361, 303.468 346.652 C 302.351 347.943, 300.911 349, 300.268 349 C 299.625 349, 298.740 349.593, 298.300 350.319 C 297.860 351.044, 295.418 353.052, 292.873 354.782 C 289.640 356.980, 287.733 359.217, 286.539 362.213 C 285.600 364.571, 284.195 367.210, 283.417 368.078 C 282.639 368.945, 280.979 372.095, 279.728 375.078 C 276.924 381.762, 271.398 391.425, 269.458 393.035 C 266.009 395.897, 265.166 409, 268.430 409 C 270.065 409, 286.273 401.013, 287.073 399.813 C 287.389 399.340, 288.706 398.749, 290 398.500 C 291.294 398.251, 292.611 397.647, 292.927 397.158 C 293.242 396.669, 295.300 395.284, 297.500 394.081 C 299.700 392.878, 304.423 390.118, 307.996 387.947 C 311.568 385.776, 315.099 384, 315.841 384 C 316.584 384, 318.437 383.113, 319.959 382.030 C 321.480 380.946, 322.989 380.322, 323.310 380.644 C 323.632 380.965, 325.091 380.287, 326.554 379.137 C 329.928 376.483, 335.970 377.039, 341 380.467 C 342.925 381.779, 347.305 383.393, 350.733 384.053 C 354.161 384.713, 357.478 385.871, 358.105 386.627 C 358.732 387.382, 360.011 388, 360.948 388 C 361.885 388, 365.871 389.125, 369.807 390.500 C 373.742 391.875, 377.591 393, 378.360 393 C 381.274 393, 382.182 398.466, 381.874 414.168 C 381.604 427.941, 380.581 436.161, 378.505 441.240 C 378.114 442.198, 375.027 444.640, 371.647 446.669 C 368.266 448.697, 364.228 451.402, 362.673 452.679 C 361.119 453.955, 359.060 455, 358.098 455 C 357.136 455, 355.326 456.089, 354.076 457.420 C 352.825 458.750, 350.384 460.410, 348.651 461.108 C 346.918 461.806, 344.108 463.417, 342.406 464.689 C 340.704 465.960, 338.861 467, 338.311 467 C 337.760 467, 336.495 467.900, 335.500 469 C 334.505 470.100, 332.854 471, 331.831 471 C 330.809 471, 329.191 471.450, 328.236 472 C 327.281 472.549, 325.201 473.461, 323.614 474.027 C 320.820 475.021, 320.747 475.217, 321.333 480.163 C 321.666 482.972, 322.141 485.474, 322.388 485.721 C 322.636 485.969, 326.812 485.632, 331.669 484.973 C 336.526 484.314, 343.425 483.579, 347 483.340 C 354.993 482.805, 364.033 481.487, 370 479.987 C 372.475 479.365, 375.967 478.613, 377.759 478.317 C 379.552 478.021, 381.266 477.379, 381.568 476.890 C 381.871 476.400, 382.946 476, 383.957 476 C 386.082 476, 398.200 469.765, 406.814 464.239 C 409.908 462.254, 428.942 442.899, 428.977 441.702 C 428.990 441.263, 431.195 438.788, 433.878 436.202 C 436.561 433.616, 440.312 429.025, 442.213 426 C 444.114 422.975, 446.422 419.879, 447.344 419.120 C 448.265 418.361, 449.997 415.999, 451.193 413.870 C 452.389 411.742, 453.785 410, 454.295 410 C 454.804 410, 458.094 407.992, 461.605 405.537 C 466.125 402.378, 471.244 400.044, 479.131 397.546 C 485.260 395.606, 490.774 393.615, 491.387 393.121 C 492.507 392.220, 494.228 391.907, 508 390.099 C 515.070 389.171, 525.042 386.787, 529.500 384.959 C 530.600 384.508, 533.750 383.894, 536.500 383.595 C 539.250 383.297, 543.750 382.617, 546.500 382.086 C 549.250 381.554, 554.522 381.092, 558.215 381.060 C 561.908 381.027, 566.858 380.358, 569.215 379.574 C 571.572 378.790, 582.950 377.447, 594.500 376.589 C 606.050 375.732, 622.025 374.518, 630 373.892 C 637.975 373.266, 653.275 372.611, 664 372.438 C 674.725 372.264, 696.550 371.599, 712.500 370.959 C 740.489 369.837, 786.327 370.086, 792.500 371.395 C 794.150 371.745, 800.675 372.477, 807 373.021 C 813.325 373.566, 821.425 374.582, 825 375.278 C 829.032 376.064, 833.588 376.267, 837 375.813 C 840.025 375.410, 843.945 375.335, 845.710 375.644 C 848.027 376.051, 849.624 375.654, 851.450 374.218 C 854.477 371.837, 854.346 371.701, 844.083 366.631 C 840.003 364.616, 836.098 362.157, 835.405 361.167 C 834.711 360.178, 832.199 358.796, 829.822 358.096 C 825.336 356.777, 824.112 356.278, 812.552 351.057 C 801.465 346.051, 762.764 333.573, 755.062 332.522 C 752.621 332.189, 748.407 330.803, 745.698 329.442 C 742.951 328.063, 739.164 327.006, 737.136 327.053 C 733.063 327.148, 709.401 323.132, 696.161 320.100 C 691.398 319.008, 682.100 317.830, 675.500 317.481 C 639.501 315.576, 629.669 315.269, 599.337 315.097 C 579.125 314.983, 565.943 315.283, 565.583 315.866 M 1685.831 379.060 C 1683.685 380.280, 1680.978 380.394, 1673.186 379.593 C 1668 379.060, 1666.212 379.293, 1663.186 380.896 C 1660.887 382.114, 1656.490 383.076, 1651.500 383.453 C 1647.100 383.787, 1642.150 384.281, 1640.500 384.551 C 1638.850 384.822, 1633.450 385.285, 1628.500 385.579 C 1623.550 385.873, 1617.250 386.782, 1614.500 387.597 C 1611.750 388.413, 1604.898 389.668, 1599.274 390.387 C 1591.128 391.429, 1588.256 392.244, 1585.152 394.395 C 1582.156 396.471, 1579.609 397.233, 1574.130 397.692 C 1570.024 398.037, 1566.528 398.864, 1565.880 399.645 C 1565.137 400.540, 1562.464 401, 1558 401 C 1553.215 401, 1550.882 401.438, 1550 402.500 C 1549.315 403.325, 1547.833 404, 1546.706 404 C 1545.579 404, 1543.910 404.676, 1542.997 405.503 C 1542.084 406.329, 1539.006 407.144, 1536.157 407.314 C 1533.309 407.483, 1530.443 408.157, 1529.789 408.811 C 1529.135 409.465, 1527.845 410, 1526.922 410 C 1525.999 410, 1523.727 410.634, 1521.872 411.409 C 1520.017 412.184, 1517.350 412.598, 1515.945 412.330 C 1514.540 412.061, 1512.027 412.215, 1510.360 412.671 C 1507.368 413.489, 1507.346 413.543, 1508.695 416.818 C 1510.053 420.115, 1510.100 420.134, 1516.296 419.910 C 1520.580 419.754, 1523.697 420.237, 1526.258 421.452 C 1528.871 422.692, 1531.107 423.026, 1533.742 422.569 C 1539.784 421.522, 1544.227 421.890, 1549.699 423.890 C 1553.936 425.439, 1555.609 425.583, 1559.358 424.725 C 1563.053 423.880, 1564.732 424.008, 1568.421 425.417 C 1570.911 426.368, 1575.098 427.356, 1577.724 427.613 C 1580.351 427.870, 1589.151 428.693, 1597.279 429.442 C 1605.452 430.195, 1612.718 431.351, 1613.534 432.028 C 1614.489 432.821, 1620.036 433.396, 1629.255 433.656 C 1645.973 434.129, 1651.720 434.738, 1652.579 436.128 C 1652.935 436.704, 1656.719 437.059, 1661.352 436.951 C 1665.866 436.846, 1672.729 437.473, 1676.739 438.357 C 1688.029 440.844, 1702.287 442.115, 1705.006 440.876 C 1705.835 440.499, 1708.310 440.879, 1710.506 441.722 C 1713.827 442.995, 1732.209 445.111, 1739.500 445.059 C 1740.600 445.052, 1743.975 445.472, 1747 445.993 C 1750.025 446.514, 1754.075 447.212, 1756 447.544 C 1759.962 448.226, 1764.593 448.716, 1774 449.446 C 1780.263 449.932, 1792.395 451.034, 1813.500 453.036 C 1819 453.558, 1829.800 454.460, 1837.500 455.042 C 1845.200 455.623, 1852.346 456.567, 1853.379 457.139 C 1855.535 458.332, 1871.947 460.144, 1883 460.410 C 1887.125 460.509, 1891.700 461.107, 1893.168 461.739 C 1894.635 462.371, 1902.285 463.162, 1910.168 463.497 C 1926.540 464.192, 1928.118 464.337, 1929.646 465.281 C 1931.682 466.540, 1945.956 467.281, 1947.263 466.197 C 1948.126 465.480, 1950.177 465.598, 1953.971 466.582 C 1956.977 467.362, 1960.658 468, 1962.153 468 C 1963.647 468, 1966.137 468.505, 1967.685 469.123 C 1969.234 469.741, 1976.815 470.303, 1984.544 470.373 C 1995.993 470.477, 1999.074 470.818, 2001.213 472.220 C 2003.297 473.585, 2005.246 473.830, 2010.669 473.406 C 2014.426 473.112, 2018.619 472.641, 2019.986 472.358 C 2022.369 471.865, 2022.390 471.798, 2020.486 470.734 C 2019.394 470.124, 2017.680 468.585, 2016.677 467.313 C 2015.675 466.041, 2014.057 465, 2013.083 465 C 2012.108 465, 2010.038 463.907, 2008.483 462.570 C 2005.747 460.219, 2002.229 458.696, 1993.189 455.949 C 1990.817 455.229, 1988.439 453.821, 1987.904 452.820 C 1987.368 451.819, 1986.233 451, 1985.381 451 C 1984.530 451, 1980.383 449.603, 1976.167 447.895 C 1971.950 446.188, 1966.795 444.732, 1964.710 444.661 C 1961.731 444.559, 1960.806 444.074, 1960.384 442.394 C 1959.777 439.974, 1957.855 438.841, 1950 436.272 C 1946.975 435.282, 1943.387 433.691, 1942.027 432.736 C 1940.668 431.781, 1938.807 431, 1937.892 431 C 1936.977 431, 1934.940 430.328, 1933.364 429.506 C 1931.789 428.685, 1929.543 428.010, 1928.372 428.006 C 1927.202 428.003, 1925.685 427.325, 1925 426.500 C 1924.315 425.675, 1922.671 425, 1921.345 425 C 1918.959 425, 1915.772 423.712, 1909 420.009 C 1907.075 418.957, 1904.107 418.074, 1902.405 418.048 C 1900.629 418.020, 1898.539 417.148, 1897.500 416 C 1896.369 414.750, 1894.420 414, 1892.303 414 C 1890.441 414, 1886.029 412.650, 1882.500 411 C 1878.971 409.350, 1875.502 407.998, 1874.792 407.996 C 1874.081 407.994, 1872.010 407.084, 1870.190 405.974 C 1868.369 404.864, 1866.459 404.216, 1865.946 404.534 C 1865.432 404.851, 1863.547 404.020, 1861.756 402.687 C 1858.710 400.420, 1855.764 399.705, 1844 398.379 C 1841.525 398.100, 1838.985 397.205, 1838.356 396.390 C 1837.727 395.575, 1835.477 394.641, 1833.356 394.313 C 1831.235 393.986, 1828.285 393.106, 1826.800 392.359 C 1825.314 391.612, 1822.518 391, 1820.585 391 C 1818.652 391, 1815.035 390.309, 1812.547 389.464 C 1810.059 388.620, 1805.569 387.796, 1802.569 387.634 C 1799.569 387.472, 1796.472 386.806, 1795.686 386.154 C 1791.856 382.976, 1782.823 381.765, 1764.373 381.958 C 1761.878 381.984, 1759.753 381.407, 1759 380.500 C 1757.440 378.621, 1748.371 378.419, 1747.726 380.250 C 1747.395 381.188, 1746.508 381.053, 1744.172 379.711 C 1741.345 378.086, 1739.060 377.978, 1719.280 378.536 C 1707.301 378.874, 1696.375 379.218, 1695 379.301 C 1693.625 379.384, 1691.375 379.150, 1690 378.782 C 1688.625 378.413, 1686.749 378.538, 1685.831 379.060 M 299.797 525.912 C 288.475 526.311, 282.692 526.902, 281.848 527.748 C 280.990 528.609, 280.546 533.429, 280.420 543.248 C 280.319 551.087, 280.172 562.225, 280.094 568 C 279.927 580.341, 280.811 588.754, 282.379 589.761 C 282.996 590.157, 288.675 590.602, 295 590.750 C 301.325 590.898, 307.850 591.172, 309.500 591.359 C 311.150 591.546, 313.492 591.254, 314.705 590.710 C 316.200 590.039, 317.810 590.076, 319.705 590.826 C 321.268 591.445, 331.398 592.125, 342.686 592.368 C 353.788 592.607, 363.351 593.099, 363.936 593.460 C 364.521 593.822, 365.337 593.911, 365.750 593.657 C 366.923 592.937, 383.192 594.792, 384.156 595.756 C 384.639 596.239, 384.556 611.552, 383.967 630.559 C 382.613 674.279, 382.149 691.048, 381.630 715 C 380.573 763.835, 379.704 790.579, 379.145 791.500 C 378.811 792.050, 378.474 798.125, 378.397 805 C 378.320 811.875, 377.961 824.925, 377.599 834 C 376.976 849.603, 377.922 867.255, 379.464 868.797 C 379.850 869.184, 397.567 869.537, 418.833 869.583 C 460.965 869.673, 461.996 869.546, 464.642 863.925 C 465.422 862.267, 465.968 845.997, 466.367 812.500 C 466.687 785.550, 467.448 752.250, 468.058 738.500 C 469.508 705.785, 469.682 700.904, 470.412 672.500 C 470.751 659.300, 471.295 643.550, 471.621 637.500 C 471.947 631.450, 472.196 625.600, 472.174 624.500 C 471.805 606.061, 472.055 602.647, 474.002 599.497 C 476.661 595.195, 478.632 594.955, 505.500 595.662 C 517.600 595.980, 537.943 596.299, 550.706 596.370 C 572.683 596.493, 573.988 596.396, 575.347 594.539 C 578.078 590.807, 579.039 558.938, 576.910 542.684 C 575.469 531.682, 575.867 532.156, 568.176 532.280 C 560.275 532.407, 511.600 531.128, 498 530.437 C 492.775 530.171, 478.600 529.717, 466.500 529.428 C 454.400 529.138, 435.500 528.673, 424.500 528.393 C 413.500 528.113, 397.975 527.771, 390 527.632 C 368.991 527.268, 327.330 526.075, 321.500 525.671 C 318.750 525.481, 308.983 525.589, 299.797 525.912 M 591.681 535.963 C 590.290 538.318, 589.936 543.086, 589.482 565.635 C 589.184 580.411, 588.755 599.025, 588.528 607 C 587.251 651.870, 586.621 688.636, 586.564 721.500 C 586.509 753.096, 586.752 759.608, 588.225 766.088 C 589.174 770.261, 590.634 774.986, 591.469 776.588 C 592.304 778.190, 592.993 779.950, 592.998 780.500 C 593.004 781.050, 594.121 784.200, 595.481 787.500 C 596.840 790.800, 597.982 794.400, 598.019 795.500 C 598.055 796.600, 600.092 800.650, 602.546 804.500 C 605 808.350, 607.482 812.625, 608.062 814 C 608.642 815.375, 610.821 818.300, 612.904 820.500 C 614.988 822.700, 617.716 826.216, 618.967 828.314 C 620.218 830.411, 622.875 833.179, 624.871 834.463 C 626.867 835.748, 630.397 838.595, 632.716 840.790 C 635.035 842.985, 639.346 845.781, 642.295 847.004 C 645.245 848.226, 649.044 850.413, 650.737 851.863 C 657.311 857.494, 658.090 858, 660.183 858 C 661.371 858, 663.053 858.611, 663.921 859.358 C 665.879 861.043, 671.562 863, 674.496 863 C 675.705 863, 677.732 863.900, 679 865 C 680.496 866.297, 682.746 867.001, 685.403 867.004 C 687.740 867.006, 690.915 867.870, 692.794 869.016 C 695.481 870.654, 698.341 871.104, 708.294 871.456 C 715.007 871.694, 722.750 872.558, 725.500 873.376 C 734.325 876.002, 757.924 875.682, 763.237 872.864 C 764.193 872.358, 768.936 871.792, 773.776 871.606 C 779.478 871.388, 783.720 870.679, 785.822 869.592 C 787.606 868.669, 790.514 867.821, 792.283 867.707 C 794.052 867.593, 795.725 867.275, 796 867 C 797.272 865.728, 801.145 863.999, 802.736 863.993 C 803.706 863.990, 805.850 863.093, 807.500 862 C 809.150 860.907, 811.100 860.010, 811.833 860.007 C 813.827 859.997, 828.291 852.642, 832.241 849.630 C 834.137 848.183, 835.993 847, 836.366 847 C 837.499 847, 845.423 841.609, 846.649 840.004 C 847.281 839.177, 852.166 834, 857.506 828.500 C 862.845 823, 868.403 816.771, 869.857 814.658 C 876.071 805.624, 879.881 799.415, 879.939 798.230 C 879.972 797.531, 881.839 793.070, 884.087 788.316 C 886.335 783.562, 888.616 777.158, 889.156 774.086 C 890.828 764.571, 892.226 758.543, 893.001 757.500 C 894.598 755.352, 895.498 724.129, 896.474 637 C 896.625 623.525, 897.089 598.944, 897.505 582.375 C 898.334 549.382, 897.915 542.053, 895.104 540.297 C 892.427 538.625, 877.897 537.708, 874.507 538.997 C 872.322 539.828, 870.173 539.709, 865.292 538.485 C 861.791 537.607, 858.156 537.118, 857.214 537.398 C 856.271 537.679, 847.850 537.983, 838.500 538.074 C 820.050 538.255, 815.078 539.176, 814.869 542.451 C 814.097 554.552, 813.726 568.694, 813.859 581 C 813.985 592.769, 813.500 621.522, 811.498 721 L 810.905 750.500 807.348 762.527 C 803.864 774.307, 803.640 774.725, 796.434 782.875 C 789.249 791.001, 780.813 798, 778.204 798 C 777.487 798, 775.634 798.655, 774.085 799.456 C 772.536 800.257, 770.196 801.129, 768.885 801.395 C 767.573 801.661, 764.025 802.812, 761 803.954 C 756.036 805.827, 753.890 805.988, 738.972 805.604 C 721.717 805.160, 721.546 805.124, 709.658 799.351 C 706.994 798.058, 704.357 797, 703.797 797 C 700.043 797, 687.874 785.745, 681.754 776.613 C 680.211 774.311, 675.132 762.328, 673.865 758 C 671.468 749.816, 672.658 621.848, 675.464 586 C 675.658 583.525, 675.943 572.248, 676.099 560.941 C 676.360 541.903, 676.238 540.189, 674.441 537.772 C 672.076 534.594, 670.641 534.475, 624.919 533.696 L 593.338 533.158 591.681 535.963 M 927.655 540.880 C 925.454 543.393, 924.678 546.969, 924.916 553.500 C 925.364 565.788, 925.313 577.261, 924.683 606 C 923.846 644.212, 922.896 722.755, 922.470 789 C 922.284 817.875, 921.886 846.822, 921.585 853.327 C 921.018 865.568, 922.243 871.919, 925.199 872.064 C 928.624 872.232, 946.117 871.938, 951 871.631 C 954.025 871.440, 961.904 871.751, 968.509 872.321 C 980.798 873.381, 991.792 872.160, 994.009 869.489 C 995.341 867.885, 995.958 851.731, 995.882 820.500 C 995.845 805.100, 995.847 791.600, 995.888 790.500 C 995.994 787.677, 997.167 716.964, 997.349 702.500 C 997.432 695.900, 997.315 686.675, 997.090 682 L 996.679 673.500 999.465 673.171 C 1001.731 672.904, 1003.159 673.811, 1007.125 678.035 C 1009.806 680.891, 1012 683.785, 1012 684.468 C 1012 685.795, 1013.026 686.992, 1025.096 699.742 C 1029.388 704.276, 1033.667 709.604, 1034.607 711.583 C 1035.546 713.562, 1039.506 718.489, 1043.407 722.530 C 1052.363 731.810, 1058.235 738.637, 1059.431 741.162 C 1059.944 742.244, 1062.194 745.103, 1064.431 747.517 C 1066.669 749.931, 1070.975 755.125, 1074 759.060 C 1077.025 762.994, 1083.264 770.103, 1087.864 774.857 C 1092.464 779.611, 1097.354 785.263, 1098.731 787.417 C 1100.109 789.571, 1103.100 793.225, 1105.379 795.536 C 1107.658 797.848, 1110.132 800.878, 1110.877 802.270 C 1112.600 805.489, 1123.950 819.222, 1129.364 824.638 C 1134.784 830.059, 1136.331 831.889, 1138.548 835.500 C 1139.561 837.150, 1143.002 841.274, 1146.195 844.663 C 1149.388 848.053, 1152 851.222, 1152 851.705 C 1152 853.439, 1168.917 870, 1170.688 870.001 C 1171.685 870.001, 1174.750 870.828, 1177.500 871.840 C 1181.843 873.437, 1185.260 873.651, 1203.500 873.473 C 1215.050 873.360, 1225.051 873.207, 1225.724 873.134 C 1228.517 872.829, 1230.064 866.991, 1230.466 855.237 C 1231.768 817.151, 1232.673 731.033, 1231.919 717 C 1231.651 712.013, 1233.071 568.260, 1233.475 559.500 C 1233.933 549.578, 1232.292 544.297, 1228.500 543.485 C 1227.400 543.249, 1212.250 542.817, 1194.834 542.525 L 1163.168 541.993 1161.188 545.246 C 1159.462 548.082, 1159.180 550.554, 1158.990 564.500 C 1158.701 585.801, 1158.698 586.755, 1158.791 630 C 1158.836 650.625, 1158.563 675.831, 1158.186 686.013 C 1157.809 696.195, 1157.852 707.220, 1158.283 710.513 C 1158.714 713.806, 1159.244 721.752, 1159.461 728.171 C 1159.883 740.693, 1159.266 742.283, 1154.891 739.941 C 1151.563 738.161, 1145.992 731.645, 1145.365 728.802 C 1144.680 725.692, 1141.500 722.057, 1134.726 716.643 C 1132.101 714.544, 1129.103 711.179, 1128.065 709.164 C 1127.027 707.149, 1123.212 702.429, 1119.589 698.676 C 1115.965 694.923, 1113 691.196, 1113 690.395 C 1113 689.593, 1112.334 688.682, 1111.520 688.369 C 1110.706 688.057, 1109.133 686.334, 1108.025 684.540 C 1106.916 682.746, 1103.082 678.420, 1099.504 674.928 C 1095.927 671.436, 1092.988 668.111, 1092.974 667.539 C 1092.959 666.968, 1089.471 662.607, 1085.224 657.849 C 1080.976 653.091, 1074.575 645.486, 1071 640.948 C 1067.425 636.411, 1062.359 630.404, 1059.741 627.599 C 1057.124 624.795, 1050.643 617.325, 1045.340 611 C 1040.036 604.675, 1035.374 599.275, 1034.979 599 C 1034.585 598.725, 1032.880 596.250, 1031.190 593.500 C 1029.500 590.750, 1026.395 586.922, 1024.289 584.993 C 1022.184 583.064, 1018.220 577.910, 1015.480 573.540 C 1012.741 569.170, 1008.362 563.480, 1005.750 560.896 C 1003.138 558.312, 1001 555.983, 1001 555.720 C 1001 555.458, 998.856 553.050, 996.236 550.371 C 986.972 540.899, 984.382 540.248, 953.787 539.702 C 931.904 539.311, 928.912 539.446, 927.655 540.880 M 1864.199 543.171 C 1860.317 545.629, 1859.628 547.995, 1860.235 556.776 C 1860.561 561.488, 1860.261 564.376, 1859.233 566.427 C 1858.019 568.849, 1857.970 570.229, 1858.951 574.427 C 1859.838 578.220, 1860.010 600.818, 1859.634 664 C 1859.357 710.475, 1859.097 749.400, 1859.056 750.500 C 1859.015 751.600, 1858.976 770.725, 1858.969 793 C 1858.963 815.275, 1858.939 842.675, 1858.918 853.889 C 1858.896 865.103, 1859.243 874.623, 1859.689 875.045 C 1860.135 875.467, 1862.114 876.705, 1864.087 877.797 C 1867.204 879.523, 1869.169 879.738, 1879.087 879.440 C 1893.523 879.005, 1913.724 879.047, 1926 879.537 C 1940.573 880.118, 2002.173 881.163, 2044.500 881.547 C 2072.905 881.804, 2082.889 881.589, 2084.039 880.696 C 2086.715 878.618, 2087.793 871.969, 2088.045 856 C 2088.180 847.475, 2088.245 839.375, 2088.190 838 C 2087.330 816.451, 2087.949 817.319, 2073 816.697 C 2067.225 816.456, 2061.699 815.923, 2060.719 815.511 C 2059.740 815.099, 2057.490 815.086, 2055.719 815.482 C 2053.949 815.877, 2036.300 816.357, 2016.500 816.547 C 1996.700 816.737, 1976 816.937, 1970.500 816.991 C 1960.157 817.091, 1949.332 815.732, 1947.730 814.130 C 1947.226 813.626, 1946.811 811.478, 1946.809 809.357 C 1946.807 807.235, 1946.812 795.375, 1946.820 783 C 1946.828 770.625, 1946.817 759.375, 1946.795 758 C 1946.536 741.735, 1947.551 699.778, 1948.214 699.368 C 1948.691 699.073, 1948.734 697.857, 1948.309 696.666 C 1947.884 695.475, 1947.430 689.100, 1947.299 682.500 C 1947.168 675.900, 1946.962 665.775, 1946.841 660 C 1946.720 654.225, 1946.879 625.935, 1947.194 597.133 C 1947.862 536.087, 1948.722 540.941, 1937.344 541.564 C 1933.580 541.770, 1927.575 541.921, 1924 541.899 C 1920.425 541.877, 1915.025 541.976, 1912 542.120 C 1908.975 542.264, 1904.925 542.265, 1903 542.123 C 1898.613 541.799, 1895.437 541.763, 1880.624 541.874 C 1874.093 541.923, 1868.448 541.777, 1868.080 541.550 C 1867.713 541.322, 1865.966 542.052, 1864.199 543.171 M 1259.866 544.560 C 1258.417 545.320, 1256.988 546.968, 1256.690 548.221 C 1256.392 549.475, 1256.135 568.275, 1256.118 590 C 1256.070 651.065, 1255.078 793.840, 1254.452 829.883 C 1253.822 866.119, 1254.221 872.618, 1257.130 873.541 C 1260.903 874.739, 1319.939 874.268, 1322.960 873.017 C 1326.591 871.513, 1328.003 868.016, 1327.887 860.820 C 1327.836 857.697, 1328.052 854.725, 1328.367 854.216 C 1328.828 853.469, 1329.041 833.773, 1328.995 796 C 1328.993 794.075, 1329.159 784.850, 1329.365 775.500 C 1329.961 748.476, 1330.156 689.790, 1329.661 686.500 C 1329.413 684.850, 1329.629 682.712, 1330.140 681.750 C 1332.135 677.997, 1335.295 679.793, 1345 690.199 C 1350.225 695.801, 1357.265 703.226, 1360.643 706.699 C 1364.022 710.173, 1367.096 714.245, 1367.473 715.748 C 1367.850 717.251, 1371.386 721.705, 1375.329 725.646 C 1383.692 734.002, 1391.660 743.041, 1395.036 748 C 1396.346 749.925, 1398.216 752.083, 1399.192 752.794 C 1400.167 753.506, 1402.283 755.981, 1403.893 758.294 C 1405.503 760.608, 1409.338 765.121, 1412.415 768.324 C 1415.493 771.527, 1419.246 775.802, 1420.755 777.824 C 1422.265 779.846, 1424.019 781.950, 1424.653 782.500 C 1425.287 783.050, 1428.046 786.200, 1430.784 789.500 C 1433.523 792.800, 1437.222 797.075, 1439.005 799 C 1440.789 800.925, 1443.717 804.762, 1445.512 807.527 C 1447.308 810.292, 1450.491 814.019, 1452.586 815.809 C 1454.681 817.598, 1457.789 821.022, 1459.491 823.417 C 1461.194 825.812, 1464.818 830.099, 1467.544 832.944 C 1470.270 835.788, 1472.448 838.427, 1472.384 838.808 C 1472.321 839.188, 1473.095 840.079, 1474.105 840.786 C 1475.115 841.493, 1477.628 844.643, 1479.690 847.786 C 1485.319 856.365, 1500.036 870.500, 1506.344 873.386 C 1511.266 875.637, 1513.086 875.840, 1531.967 876.244 C 1543.145 876.483, 1554.448 876.471, 1557.085 876.218 C 1561.609 875.783, 1561.972 875.528, 1563.503 871.702 C 1564.519 869.161, 1565.135 864.630, 1565.152 859.573 C 1565.166 855.133, 1565.330 839.350, 1565.516 824.500 C 1565.701 809.650, 1565.902 779.725, 1565.962 758 C 1566.021 736.275, 1566.109 714, 1566.157 708.500 C 1566.348 686.542, 1566.348 667.006, 1566.156 635.500 C 1566.046 617.350, 1566.222 590.494, 1566.547 575.819 C 1567.116 550.144, 1567.064 549.064, 1565.159 547.159 C 1562.793 544.793, 1552.917 542.544, 1549.168 543.517 C 1547.701 543.898, 1534.873 544.330, 1520.663 544.478 C 1500.008 544.692, 1494.542 545.029, 1493.413 546.159 C 1491.920 547.651, 1491.917 547.915, 1491.844 672 C 1491.805 738.674, 1491.815 738.328, 1489.821 740.322 C 1488.898 741.245, 1487.773 741.981, 1487.321 741.958 C 1485.602 741.871, 1479.245 735.390, 1478.535 733 C 1478.126 731.625, 1473.849 726.450, 1469.031 721.500 C 1454.405 706.475, 1453.231 705.043, 1452.548 701.406 C 1452.122 699.134, 1451.095 697.545, 1449.617 696.871 C 1448.365 696.301, 1446.252 694.428, 1444.921 692.709 C 1443.589 690.990, 1440.697 687.765, 1438.493 685.542 C 1436.288 683.319, 1433.701 680.279, 1432.744 678.787 C 1431.786 677.295, 1427.667 672.570, 1423.590 668.287 C 1419.514 664.004, 1414.793 658.700, 1413.100 656.500 C 1411.407 654.300, 1408.492 650.925, 1406.623 649 C 1404.754 647.075, 1402.836 644.757, 1402.362 643.849 C 1401.888 642.941, 1399.611 640.016, 1397.303 637.349 C 1394.994 634.682, 1388.392 626.650, 1382.632 619.500 C 1376.871 612.350, 1370.886 605.150, 1369.331 603.500 C 1367.776 601.850, 1364.775 598.025, 1362.663 595 C 1360.550 591.975, 1357.400 588.110, 1355.661 586.410 C 1353.922 584.711, 1349.904 579.761, 1346.730 575.410 C 1343.557 571.060, 1339.167 565.710, 1336.975 563.522 C 1334.783 561.334, 1332.750 558.787, 1332.456 557.862 C 1331.640 555.289, 1321.054 547, 1318.585 547 C 1317.383 547, 1315.972 546.582, 1315.450 546.071 C 1312.458 543.145, 1265.017 541.855, 1259.866 544.560 M 1718.490 543.843 C 1718.159 544.175, 1692.289 544.458, 1661.001 544.473 L 1604.115 544.500 1602.075 546.690 C 1600.169 548.735, 1600.024 550.251, 1599.869 569.690 C 1599.778 581.135, 1599.749 594.100, 1599.806 598.500 C 1599.901 605.870, 1600.008 642.185, 1600.079 691.500 C 1600.156 744.953, 1599.962 788.402, 1599.467 828.367 C 1598.995 866.462, 1599.123 872.539, 1600.436 874.543 C 1601.932 876.826, 1602.185 876.854, 1623.724 877.050 C 1635.701 877.160, 1646.625 877.264, 1648 877.281 C 1649.375 877.299, 1651.850 877.212, 1653.500 877.087 C 1656.465 876.864, 1735.912 877.653, 1795 878.492 C 1820.153 878.850, 1826.304 878.665, 1830.084 877.438 L 1834.667 875.950 1835.779 864.596 C 1836.391 858.351, 1836.579 852.074, 1836.196 850.645 C 1835.813 849.217, 1835.769 843.200, 1836.099 837.274 C 1836.658 827.195, 1836.548 826.263, 1834.389 822.834 C 1833.120 820.818, 1831.619 818.883, 1831.055 818.534 C 1830.491 818.185, 1802.235 817.663, 1768.265 817.374 C 1684.171 816.659, 1689.401 816.831, 1687.286 814.706 C 1685.627 813.041, 1685.521 810.400, 1685.797 777.706 C 1686.015 751.870, 1686.414 742.211, 1687.297 741.414 C 1690.272 738.727, 1697.445 738.056, 1724.516 737.934 C 1739.907 737.864, 1753.400 737.838, 1754.500 737.874 C 1755.600 737.911, 1761.225 737.987, 1767 738.042 C 1772.775 738.098, 1779.198 738.515, 1781.273 738.970 C 1788.690 740.597, 1800.693 735.523, 1801.088 730.594 C 1801.691 723.067, 1801.397 685.972, 1800.722 684.404 C 1800.146 683.067, 1797.930 681.713, 1794.601 680.663 C 1788.150 678.630, 1765.561 677.290, 1763.705 678.830 C 1762.179 680.096, 1747.931 680.479, 1711 680.247 C 1689.887 680.114, 1688.688 680.027, 1687.019 678.517 C 1685.716 677.337, 1685.500 672.227, 1685.500 642.622 C 1685.500 616.074, 1685.793 607.810, 1686.768 606.833 C 1687.667 605.934, 1692.771 605.489, 1704.268 605.310 C 1713.196 605.171, 1733.775 604.815, 1750 604.519 C 1766.225 604.223, 1784.225 604.066, 1790 604.170 C 1811.578 604.558, 1827.109 604.119, 1830.414 603.028 C 1833.379 602.050, 1833.964 601.290, 1834.898 597.202 C 1835.489 594.616, 1836.088 582.307, 1836.230 569.848 C 1836.461 549.553, 1836.307 546.997, 1834.757 545.284 C 1833.140 543.497, 1831.705 543.396, 1812.763 543.738 C 1801.619 543.940, 1790.925 544.005, 1789 543.883 C 1784.534 543.601, 1782.288 543.593, 1760.500 543.786 C 1750.600 543.874, 1737.233 543.787, 1730.796 543.593 C 1724.360 543.399, 1718.822 543.512, 1718.490 543.843 M 240.029 923.676 C 238.913 925.567, 238 927.912, 238 928.888 C 238 929.863, 236.877 932.875, 235.504 935.581 C 234.131 938.286, 233.006 940.881, 233.004 941.346 C 233.002 941.811, 232.130 943.413, 231.066 944.907 C 230.003 946.400, 228.857 948.945, 228.521 950.561 C 228.184 952.177, 227.059 956.425, 226.020 960 C 224.982 963.575, 223.401 969.200, 222.508 972.500 C 221.615 975.800, 220.465 979.175, 219.953 980 C 216.898 984.917, 214.999 989.210, 214.993 991.210 C 214.990 992.470, 214.093 994.850, 213 996.500 C 211.907 998.150, 211.007 1000.175, 211 1001 C 210.993 1001.825, 210.251 1003.850, 209.351 1005.500 C 208.451 1007.150, 207.379 1010.778, 206.969 1013.562 C 206.505 1016.715, 205.039 1020.305, 203.083 1023.080 C 201.156 1025.813, 199.207 1030.551, 198.039 1035.340 C 196.992 1039.632, 195.430 1044.221, 194.568 1045.537 C 193.705 1046.853, 193 1048.975, 193 1050.253 C 193 1051.531, 192.100 1054.342, 191 1056.500 C 189.900 1058.658, 189 1061.016, 189 1061.740 C 189 1062.464, 187.650 1065.731, 186 1069 C 184.350 1072.269, 183 1076.279, 183 1077.912 C 183 1079.546, 182.543 1081.165, 181.984 1081.510 C 181.425 1081.856, 181.231 1082.564, 181.553 1083.085 C 181.875 1083.606, 182.644 1083.720, 183.261 1083.338 C 183.879 1082.957, 190.692 1082.446, 198.400 1082.204 C 212.362 1081.766, 212.430 1081.752, 216.190 1078.632 C 218.266 1076.909, 219.966 1075.050, 219.969 1074.500 C 219.972 1073.950, 221.162 1069.609, 222.613 1064.854 C 226.192 1053.126, 229.444 1049.943, 236.824 1050.942 C 237.552 1051.041, 238.841 1050.547, 239.687 1049.845 C 241.352 1048.463, 265.660 1047.687, 267.500 1048.956 C 268.050 1049.336, 270.068 1049.741, 271.984 1049.857 C 273.900 1049.973, 275.835 1050.435, 276.284 1050.884 C 278.148 1052.748, 284.288 1071.849, 284.390 1076.101 L 284.500 1080.702 302.226 1080.446 C 316.852 1080.235, 320.231 1079.912, 321.541 1078.601 C 323.364 1076.779, 324.487 1071.964, 323.294 1071.089 C 322.379 1070.418, 319.952 1062.753, 317.407 1052.500 C 316.451 1048.650, 315.322 1044.825, 314.897 1044 C 313.223 1040.753, 311 1032.480, 311 1029.500 C 311 1025.963, 308.827 1019.046, 305.934 1013.370 C 304.870 1011.284, 304 1008.428, 304 1007.024 C 304 1005.619, 303.157 1002.898, 302.127 1000.976 C 301.097 999.053, 299.946 995.010, 299.571 991.990 C 299.195 988.971, 298.517 985.600, 298.064 984.500 C 297.610 983.400, 296.489 980.692, 295.573 978.483 C 294.656 976.273, 294.015 972.842, 294.149 970.857 C 294.302 968.585, 293.788 966.646, 292.762 965.619 C 290.908 963.766, 290.656 962.980, 289.027 954 C 286.949 942.536, 285.736 937.593, 283.999 933.500 C 283.066 931.300, 281.989 927.816, 281.607 925.758 C 280.774 921.273, 279.530 920.816, 268.992 921.124 C 264.872 921.244, 257.126 921.094, 251.779 920.790 L 242.058 920.237 240.029 923.676 M 337.323 920.700 C 332.714 921.589, 332.399 923.491, 331.560 955.528 C 331.344 963.763, 330.903 974.325, 330.580 979 C 329.443 995.419, 329.194 1026.641, 330.090 1040.403 C 330.816 1051.558, 331.390 1054.918, 332.993 1057.403 C 334.093 1059.106, 336.072 1062.769, 337.391 1065.542 C 338.844 1068.593, 340.819 1071.052, 342.395 1071.770 C 343.828 1072.423, 345 1073.642, 345 1074.479 C 345 1075.486, 345.967 1076, 347.865 1076 C 349.441 1076, 351.874 1076.900, 353.273 1078 C 354.989 1079.350, 357.330 1080, 360.473 1080 C 363.035 1080, 366.042 1080.487, 367.155 1081.083 C 369.271 1082.215, 379.307 1083.192, 387 1083.014 C 395.623 1082.814, 411.163 1079.589, 416.016 1076.991 C 417.035 1076.446, 418.782 1076, 419.899 1076 C 421.016 1076, 422.411 1075.100, 423 1074 C 423.589 1072.900, 424.744 1072, 425.567 1072 C 426.389 1072, 427.322 1071.325, 427.638 1070.500 C 427.955 1069.675, 428.841 1069, 429.607 1069 C 430.373 1069, 431 1068.372, 431 1067.603 C 431 1066.835, 432.975 1064.557, 435.388 1062.540 C 438.587 1059.866, 440.052 1057.738, 440.795 1054.686 C 444.585 1039.127, 445.218 1033.909, 445.624 1014.891 C 445.859 1003.893, 446.282 993.456, 446.564 991.698 C 446.846 989.939, 447.223 980.850, 447.401 971.500 C 447.778 951.752, 448.357 948, 451.030 948 C 452.059 948, 453.341 948.788, 453.879 949.750 C 454.702 951.221, 456.342 951.500, 464.179 951.500 C 469.306 951.500, 475.396 951.126, 477.714 950.668 C 481.512 949.918, 482.190 950.099, 484.593 952.502 L 487.259 955.168 486.608 979.334 C 486.250 992.625, 485.741 1005.750, 485.476 1008.500 C 485.212 1011.250, 484.788 1025.875, 484.535 1041 C 484.282 1056.125, 483.787 1069.908, 483.437 1071.628 C 483.074 1073.408, 483.314 1075.718, 483.994 1076.988 C 485.176 1079.198, 485.350 1079.214, 501.310 1078.595 C 510.177 1078.251, 517.851 1077.549, 518.364 1077.036 C 519.820 1075.580, 520.683 1060.783, 520.934 1033 C 521.191 1004.550, 522.594 965.626, 523.583 959.500 C 524.802 951.950, 526.787 951.126, 544.700 950.741 C 551.360 950.598, 556.358 950.043, 557.028 949.372 C 559.685 946.715, 561.045 930.878, 559.064 925.667 C 558.271 923.583, 557.079 923.017, 551.312 921.986 C 546.302 921.091, 543.463 921.054, 540.593 921.847 C 538.445 922.440, 536.323 922.699, 535.877 922.424 C 533.889 921.195, 464.184 920.467, 457.093 921.601 C 452.818 922.285, 449.897 925.200, 452.114 926.570 C 453.386 927.357, 452.445 940.448, 450.933 942.989 C 450.335 943.995, 450.229 943.454, 450.618 941.371 C 450.958 939.549, 450.742 937.959, 450.101 937.562 C 448.792 936.754, 448.652 932.556, 449.853 930.184 C 451.044 927.835, 449.336 922.235, 447.238 921.606 C 445.046 920.949, 418.218 920.447, 417.621 921.052 C 417.378 921.298, 416.878 932.525, 416.511 946 C 416.144 959.475, 415.624 973.425, 415.354 977 C 414.776 984.679, 413.919 1005.119, 413.382 1024 C 413.171 1031.425, 412.756 1038.547, 412.461 1039.827 C 412.165 1041.107, 409.731 1044.312, 407.051 1046.950 C 403.156 1050.783, 401.257 1051.884, 397.589 1052.434 C 395.065 1052.813, 393 1053.468, 393 1053.890 C 393 1055.254, 379.547 1052.935, 378.700 1051.426 C 378.260 1050.642, 377.309 1050, 376.586 1050 C 374.385 1050, 370.232 1042.867, 368.510 1036.129 C 367.104 1030.625, 366.970 1025.595, 367.527 999.129 C 367.881 982.283, 368.331 964.225, 368.528 959 C 369.239 940.135, 369.134 922.734, 368.306 921.906 C 367.411 921.011, 341.032 919.985, 337.323 920.700 M 594.771 923.585 C 592.422 925.453, 589.776 926.985, 588.891 926.990 C 588.006 926.996, 585.555 929.025, 583.446 931.500 C 581.336 933.975, 579.135 936.015, 578.555 936.033 C 575.692 936.124, 570 943.493, 570 947.110 C 570 948.309, 568.391 952.635, 566.425 956.723 C 562.050 965.818, 559.877 973.588, 559.494 981.500 C 557.732 1017.909, 557.760 1021.673, 559.842 1028.670 C 560.960 1032.426, 562.785 1039.252, 563.898 1043.838 C 565.237 1049.354, 567.114 1053.923, 569.442 1057.338 C 574.310 1064.476, 575.577 1066, 576.645 1066 C 577.153 1066, 578.330 1067.288, 579.260 1068.863 C 580.473 1070.917, 582.301 1072.091, 585.726 1073.015 C 588.352 1073.723, 591.625 1074.870, 593 1075.563 C 597.306 1077.732, 601.231 1078.876, 609.737 1080.439 C 618.358 1082.024, 622.451 1081.692, 633.451 1078.519 C 636.228 1077.718, 640.139 1076.812, 642.143 1076.506 C 648.373 1075.554, 662.104 1063.702, 666.435 1055.538 C 667.882 1052.810, 669.389 1050.335, 669.783 1050.038 C 671.322 1048.882, 675.885 1037.193, 677.019 1031.500 C 677.676 1028.200, 678.616 1024.375, 679.108 1023 C 679.599 1021.625, 680.114 1011.500, 680.251 1000.500 C 680.519 978.942, 678.615 961.144, 675.576 956.805 C 674.709 955.567, 674 953.598, 674 952.428 C 674 951.258, 672.658 948.321, 671.018 945.900 C 669.378 943.480, 668.028 941.172, 668.018 940.771 C 667.960 938.443, 652.181 925.169, 648.836 924.635 C 648.101 924.518, 646.170 923.539, 644.545 922.461 C 641.863 920.681, 639.625 920.486, 620.316 920.345 L 599.042 920.190 594.771 923.585 M 776.500 921.609 C 767.749 923.739, 763.167 926.148, 755.442 932.678 C 745.142 941.385, 743 943.787, 743 946.633 C 743 948.170, 741.845 950.277, 740.117 951.890 C 738.025 953.845, 737.101 955.806, 736.748 959.042 C 736.481 961.494, 735.048 966.875, 733.565 971 C 730.212 980.326, 728.633 993.695, 729.493 1005.489 C 729.854 1010.445, 730.103 1015.805, 730.047 1017.399 C 729.881 1022.140, 735.782 1044.676, 739.443 1053.280 C 741.114 1057.205, 754.260 1070.870, 759.500 1074.127 C 761.150 1075.153, 763.690 1075.994, 765.145 1075.996 C 766.599 1075.998, 770.731 1076.908, 774.326 1078.019 C 782.621 1080.581, 797.709 1080.857, 804.445 1078.570 C 806.989 1077.707, 809.692 1077, 810.453 1077 C 813.241 1077, 822.379 1071.649, 826.877 1067.382 C 829.420 1064.970, 832.219 1062.764, 833.098 1062.479 C 833.977 1062.194, 835.237 1060.776, 835.897 1059.327 C 836.557 1057.878, 838.642 1054.365, 840.531 1051.520 C 842.419 1048.675, 844.760 1043.232, 845.732 1039.424 C 846.704 1035.616, 847.837 1032.350, 848.250 1032.167 C 849.382 1031.663, 849.150 1025, 848 1025 C 847.450 1025, 847 1024.355, 847 1023.567 C 847 1021.193, 842.849 1020.697, 824.832 1020.918 C 818.374 1020.997, 818.097 1021.106, 816.082 1024.368 C 814.937 1026.220, 814 1028.749, 814 1029.988 C 814 1031.226, 812.109 1035.563, 809.799 1039.624 C 804.579 1048.798, 801.018 1051, 791.402 1051 C 785.832 1051, 784.323 1050.594, 781.183 1048.250 C 773.751 1042.701, 771.385 1038.472, 769.425 1027.228 C 767.771 1017.743, 767.602 984.360, 769.177 978.268 C 769.713 976.195, 770.498 972.700, 770.923 970.500 C 772.755 961.010, 774.044 958.029, 776.966 956.518 C 778.557 955.695, 780.128 954.172, 780.458 953.132 C 781.216 950.744, 790.069 947, 794.959 947 C 797.605 947, 799.317 947.709, 801 949.500 C 802.292 950.875, 803.833 952.018, 804.424 952.041 C 805.016 952.064, 807.589 954.911, 810.143 958.368 C 813.559 962.992, 815.097 966.218, 815.962 970.577 C 817.719 979.426, 817.847 979.699, 820.783 980.843 C 825.345 982.619, 846.125 980.760, 848.083 978.400 C 849.718 976.430, 849.446 970.474, 847.600 967.839 C 846.720 966.583, 845.995 964.643, 845.989 963.527 C 845.969 959.991, 840.245 942.980, 837.963 939.676 C 834.832 935.143, 825.911 928.783, 815 923.303 C 809.890 920.737, 808.542 920.527, 796 920.345 C 786.945 920.213, 780.525 920.629, 776.500 921.609 M 894.994 922.833 C 894.447 923.017, 893.997 923.917, 893.994 924.833 C 893.990 925.750, 893.315 927.789, 892.494 929.364 C 891.672 930.940, 891 932.865, 891 933.643 C 891 935.428, 885.497 952.203, 883.984 955.030 C 883.362 956.192, 882.208 959.621, 881.419 962.651 C 880.630 965.680, 879.354 968.789, 878.583 969.560 C 877.813 970.330, 876.859 972.882, 876.464 975.230 C 875.401 981.555, 871.381 993.601, 867.032 1003.500 C 866.548 1004.600, 865.406 1008.200, 864.493 1011.500 C 863.580 1014.800, 861.765 1019.975, 860.459 1023 C 859.154 1026.025, 857.785 1030.075, 857.417 1032 C 857.050 1033.925, 855.930 1037.075, 854.929 1039 C 853.928 1040.925, 852.441 1045.200, 851.626 1048.500 C 848.890 1059.573, 847.453 1063.842, 845.844 1065.677 C 843.780 1068.029, 842.481 1076.561, 844.040 1077.525 C 845.098 1078.179, 872.056 1078.433, 872.412 1077.792 C 872.501 1077.631, 873.795 1075.676, 875.287 1073.446 C 876.779 1071.217, 878 1068.708, 878 1067.871 C 878 1061.725, 886.530 1045.197, 888.623 1047.289 C 889.004 1047.671, 889.807 1047.582, 890.408 1047.092 C 891.976 1045.813, 925.333 1044.796, 928.330 1045.935 C 931.518 1047.147, 932.742 1050.822, 935.975 1068.884 C 937.416 1076.933, 938.401 1077.347, 957.060 1077.741 C 969.895 1078.012, 972.915 1077.808, 973.917 1076.600 C 974.838 1075.490, 974.862 1074.611, 974.014 1073.026 C 973.395 1071.870, 973.162 1070.064, 973.496 1069.012 C 973.830 1067.960, 973.469 1065.840, 972.694 1064.300 C 971.920 1062.760, 970.989 1059.925, 970.626 1058 C 970.263 1056.075, 969.104 1052.250, 968.050 1049.500 C 966.996 1046.750, 965.133 1041.125, 963.909 1037 C 962.685 1032.875, 961.326 1029.029, 960.889 1028.454 C 960.451 1027.879, 960.082 1026.529, 960.067 1025.454 C 959.994 1020.054, 959.327 1016.099, 958.274 1014.830 C 957.631 1014.056, 956.566 1011.189, 955.907 1008.461 C 955.248 1005.732, 953.611 1000.465, 952.269 996.755 C 950.927 993.045, 949.477 987.645, 949.047 984.755 C 948.617 981.865, 947.531 977.827, 946.633 975.782 C 945.735 973.737, 945 971.192, 945 970.125 C 945 969.059, 943.729 965.332, 942.175 961.843 C 940.621 958.354, 938.320 952.125, 937.061 948 C 935.802 943.875, 934.117 938.475, 933.316 936 C 932.515 933.525, 931.606 930.375, 931.296 929 C 930.450 925.251, 929.272 924.222, 925.002 923.500 C 920.891 922.806, 896.681 922.268, 894.994 922.833 M 985.098 924.382 C 984.397 925.227, 983.813 934.883, 983.483 951.102 C 983.198 965.071, 982.761 978.075, 982.511 980 C 982.261 981.925, 981.767 1002.741, 981.413 1026.258 C 980.912 1059.550, 981.043 1069.347, 982.007 1070.508 C 982.688 1071.329, 982.818 1072, 982.296 1072 C 981.774 1072, 981.545 1073.350, 981.787 1075 L 982.227 1078 994.863 1077.926 C 1001.814 1077.885, 1009.525 1077.548, 1012 1077.176 L 1016.500 1076.500 1016.680 1047.154 C 1016.779 1031.013, 1017.125 1017.541, 1017.450 1017.217 C 1018.933 1015.734, 1031.266 1015.537, 1033.913 1016.954 C 1036.097 1018.122, 1039.007 1024.901, 1038.984 1028.770 C 1038.976 1030.272, 1040.061 1033.750, 1041.397 1036.500 C 1044.914 1043.743, 1050 1057.571, 1050 1059.890 C 1050 1060.986, 1050.415 1062.139, 1050.923 1062.452 C 1051.431 1062.766, 1052.160 1064.480, 1052.544 1066.261 C 1054.704 1076.295, 1058.512 1078.299, 1075.793 1078.499 C 1093.170 1078.700, 1094 1078.518, 1094 1074.521 C 1094 1072.733, 1093.195 1070.197, 1092.210 1068.885 C 1089.793 1065.664, 1088.007 1061.377, 1087.968 1058.703 C 1087.951 1057.491, 1087.276 1055.626, 1086.468 1054.559 C 1085.661 1053.491, 1085 1051.925, 1085 1051.079 C 1085 1050.232, 1083.450 1047.028, 1081.555 1043.958 C 1079.660 1040.888, 1077.141 1035.254, 1075.958 1031.438 C 1074.774 1027.622, 1073.114 1022.830, 1072.268 1020.789 C 1071.276 1018.394, 1070.917 1015.431, 1071.254 1012.436 C 1071.686 1008.608, 1072.585 1006.974, 1076.389 1003.113 C 1078.925 1000.538, 1081 997.987, 1081 997.443 C 1081 996.900, 1082.306 994.872, 1083.901 992.936 C 1085.497 991, 1086.942 988.085, 1087.113 986.458 C 1087.284 984.831, 1087.778 983.005, 1088.209 982.401 C 1090.028 979.855, 1089.942 967.855, 1088.038 958.269 C 1086.207 949.055, 1082.836 940.010, 1081.227 939.992 C 1080.827 939.988, 1077.663 937.311, 1074.195 934.043 C 1063.774 924.224, 1063.339 924.137, 1021.626 923.555 C 993 923.155, 985.984 923.314, 985.098 924.382 M 1109.714 925.105 C 1108.474 925.823, 1107.958 927.266, 1108.027 929.820 C 1108.189 935.821, 1107.036 1033.721, 1106.532 1056.693 C 1106.097 1076.574, 1106.181 1077.923, 1107.896 1078.467 C 1108.902 1078.786, 1115.749 1079.002, 1123.112 1078.947 C 1130.476 1078.892, 1137.625 1078.890, 1139 1078.943 C 1141.970 1079.058, 1178.490 1079.208, 1188.500 1079.147 C 1194.912 1079.108, 1204.037 1078.308, 1204.589 1077.737 C 1205.732 1076.553, 1205.272 1054.978, 1204.062 1053.066 C 1203.318 1051.890, 1198.063 1051.570, 1174.827 1051.285 C 1149.528 1050.974, 1146.314 1050.751, 1144.756 1049.196 C 1143.355 1047.799, 1142.979 1045.487, 1142.847 1037.478 C 1142.738 1030.905, 1142.200 1026.707, 1141.269 1025.176 C 1138.493 1020.608, 1142.629 1014.386, 1149.491 1012.808 C 1151.146 1012.427, 1159.644 1012.559, 1168.375 1013.101 C 1184.004 1014.072, 1184.300 1014.052, 1187.542 1011.831 C 1191.405 1009.184, 1191.896 1007.225, 1191.370 996.572 C 1190.995 988.992, 1190.658 987.590, 1189.167 987.427 C 1188.800 987.387, 1186.025 987.047, 1183 986.671 C 1179.975 986.295, 1170.525 985.864, 1162 985.714 C 1152.851 985.553, 1145.698 984.980, 1144.543 984.315 C 1142.803 983.314, 1142.574 981.991, 1142.473 972.345 C 1142.410 966.380, 1142.072 959.627, 1141.722 957.337 C 1140.668 950.440, 1140.391 950.500, 1173.245 950.500 L 1202.181 950.500 1203.480 948 C 1204.382 946.262, 1204.545 943.985, 1204.014 940.528 C 1203.594 937.794, 1203.465 933.950, 1203.729 931.987 C 1204.036 929.691, 1203.724 928.021, 1202.854 927.308 C 1200.338 925.247, 1192.719 924.466, 1182.584 925.231 C 1177.038 925.649, 1171.825 925.701, 1171 925.345 C 1168.345 924.200, 1111.658 923.978, 1109.714 925.105 M 1292.633 924.803 C 1289.257 924.978, 1285.679 925.827, 1284.204 926.803 C 1282.794 927.737, 1280.237 928.950, 1278.522 929.500 C 1275.344 930.519, 1260 945.730, 1260 947.861 C 1260 948.488, 1259.633 949, 1259.184 949 C 1256.509 949, 1249.340 967.451, 1247.470 979.148 C 1245.347 992.434, 1245.205 1021.178, 1247.229 1028 C 1248.126 1031.025, 1249.293 1036.200, 1249.821 1039.500 C 1250.349 1042.800, 1251.436 1047.221, 1252.237 1049.325 C 1254.270 1054.665, 1264.474 1067, 1266.858 1067 C 1267.486 1067, 1268.008 1067.338, 1268.018 1067.750 C 1268.063 1069.642, 1276.780 1075.459, 1282.818 1077.627 C 1286.493 1078.947, 1290.067 1080.233, 1290.760 1080.486 C 1291.454 1080.739, 1292.228 1081.001, 1292.482 1081.070 C 1292.735 1081.138, 1294.766 1081.732, 1296.994 1082.390 C 1301.374 1083.683, 1310.023 1082.722, 1323 1079.499 C 1326.575 1078.611, 1330.501 1077.635, 1331.725 1077.331 C 1332.948 1077.026, 1335.043 1075.763, 1336.380 1074.524 C 1337.717 1073.285, 1340.165 1071.307, 1341.819 1070.129 C 1345.338 1067.623, 1353.756 1056.991, 1356.189 1051.979 C 1360.337 1043.436, 1362 1038.898, 1362 1036.120 C 1362 1034.476, 1362.421 1032.022, 1362.936 1030.669 C 1363.582 1028.969, 1363.491 1027.686, 1362.643 1026.526 C 1361.617 1025.123, 1359.230 1024.804, 1348.182 1024.593 C 1340.177 1024.440, 1334.104 1024.767, 1332.806 1025.420 C 1330.110 1026.777, 1327.320 1031.712, 1326.439 1036.683 C 1326.067 1038.782, 1324.388 1043.039, 1322.709 1046.143 C 1319.151 1052.720, 1316.374 1054, 1305.669 1054 C 1299.698 1054, 1298.729 1053.701, 1295.497 1050.863 C 1291.282 1047.162, 1287.140 1040.434, 1285.869 1035.221 C 1281.948 1019.151, 1281.741 983.300, 1285.480 968 C 1285.682 967.175, 1285.881 966.045, 1285.923 965.490 C 1285.966 964.934, 1287.125 963.266, 1288.500 961.783 C 1289.875 960.301, 1291 958.811, 1291 958.472 C 1291 957.531, 1293.099 955.660, 1297.482 952.694 C 1304.472 947.965, 1314.508 949.570, 1319.006 956.137 C 1320.273 957.987, 1321.803 959.950, 1322.405 960.500 C 1324.968 962.841, 1327.786 969.915, 1328.308 975.319 C 1329.144 983.976, 1329.189 984, 1344.215 984 C 1359.854 984, 1361.319 983.299, 1361.819 975.574 C 1361.994 972.865, 1361.475 968.815, 1360.666 966.574 C 1359.857 964.333, 1358.919 960.945, 1358.582 959.043 C 1357.692 954.036, 1354.761 948.123, 1352.849 947.482 C 1351.942 947.178, 1350.939 945.894, 1350.622 944.631 C 1350.305 943.367, 1348.127 940.154, 1345.783 937.491 C 1341.097 932.167, 1330.960 926.836, 1323 925.510 C 1318.105 924.694, 1301.991 924.319, 1292.633 924.803 M 1418 925.942 C 1411.983 927.052, 1397.488 932.707, 1395.969 934.537 C 1395.301 935.342, 1394.287 936, 1393.716 936 C 1392.302 936, 1386.324 942.704, 1383.906 947 C 1382.823 948.925, 1380.537 952.750, 1378.826 955.500 C 1377.115 958.250, 1375.355 961.850, 1374.914 963.500 C 1374.473 965.150, 1373.622 968.300, 1373.022 970.500 C 1369.809 982.274, 1366.913 1021.160, 1368.999 1024.500 C 1369.343 1025.050, 1370.216 1027.975, 1370.941 1031 C 1371.665 1034.025, 1372.603 1036.950, 1373.026 1037.500 C 1373.782 1038.486, 1375.395 1043.974, 1376.448 1049.147 C 1376.744 1050.603, 1378.604 1053.731, 1380.581 1056.098 C 1382.559 1058.464, 1384.833 1062.041, 1385.636 1064.047 C 1386.438 1066.053, 1388.536 1068.764, 1390.297 1070.073 C 1398.412 1076.100, 1403.583 1079.121, 1407.160 1079.925 C 1409.294 1080.404, 1412.238 1081.581, 1413.703 1082.541 C 1418.124 1085.438, 1433.918 1084.697, 1445.383 1081.055 C 1450.398 1079.462, 1455.625 1077.846, 1457 1077.465 C 1458.375 1077.083, 1460.668 1075.585, 1462.097 1074.135 C 1463.525 1072.686, 1466.598 1069.944, 1468.926 1068.042 C 1473.343 1064.432, 1481 1052.712, 1481 1049.560 C 1481 1048.557, 1482.010 1046.108, 1483.244 1044.118 C 1484.478 1042.128, 1485.515 1040.275, 1485.548 1040 C 1485.582 1039.725, 1485.948 1035.900, 1486.363 1031.500 C 1486.777 1027.100, 1487.810 1021.338, 1488.657 1018.695 C 1489.794 1015.149, 1489.933 1013.184, 1489.189 1011.195 C 1488.634 1009.713, 1488.290 1004.225, 1488.423 999 C 1488.556 993.775, 1488.079 985.225, 1487.363 980 C 1485.390 965.608, 1484.036 961.178, 1479.651 954.781 C 1478.249 952.735, 1476.807 949.490, 1476.447 947.570 C 1475.911 944.711, 1475.014 943.701, 1471.503 942.001 C 1469.144 940.859, 1466.999 939.104, 1466.736 938.100 C 1466.086 935.612, 1458.770 930.775, 1451.500 928.026 C 1446.827 926.259, 1442.956 925.686, 1434 925.435 C 1427.675 925.257, 1420.475 925.485, 1418 925.942 M 1507.490 929.014 C 1505.639 932.018, 1503.966 965.560, 1505.097 977 C 1505.288 978.925, 1505.429 985.675, 1505.411 992 C 1505.359 1010.383, 1505.359 1024.203, 1505.412 1044 C 1505.448 1057.779, 1505.106 1063.266, 1504.070 1065.500 C 1503.305 1067.150, 1502.786 1069.127, 1502.916 1069.894 C 1503.047 1070.660, 1502.557 1071.659, 1501.827 1072.113 C 1500.754 1072.781, 1500.739 1073.325, 1501.750 1074.956 C 1502.438 1076.065, 1503 1077.637, 1503 1078.448 C 1503 1080.968, 1510.544 1082.270, 1520.988 1081.551 C 1532.137 1080.783, 1533.505 1079.885, 1534.924 1072.402 C 1535.998 1066.740, 1535.695 990.934, 1534.592 989.148 C 1534.213 988.536, 1534.192 986.493, 1534.546 984.609 C 1535.460 979.733, 1540.588 978.616, 1541.382 983.119 C 1541.516 983.879, 1542.324 986.975, 1543.177 990 C 1544.029 993.025, 1544.808 997.261, 1544.906 999.414 C 1545.004 1001.567, 1545.377 1003.801, 1545.734 1004.379 C 1546.335 1005.352, 1549.026 1014.760, 1552.490 1028 C 1553.281 1031.025, 1553.945 1034.872, 1553.964 1036.550 C 1553.984 1038.227, 1554.415 1040.027, 1554.922 1040.550 C 1556.202 1041.868, 1563.284 1068.287, 1564.552 1076.470 C 1565.404 1081.972, 1566.859 1082.526, 1579.750 1082.257 C 1587.565 1082.094, 1591.793 1081.598, 1592.560 1080.757 C 1593.190 1080.065, 1594.431 1075.675, 1595.319 1071 C 1596.206 1066.325, 1598.748 1056.974, 1600.966 1050.221 C 1603.185 1043.467, 1605 1036.925, 1605 1035.682 C 1605 1034.440, 1605.900 1031.658, 1607 1029.500 C 1608.100 1027.342, 1609 1024.169, 1609 1022.448 C 1609 1017.139, 1612.911 1000.257, 1615.496 994.414 C 1616.845 991.363, 1618.256 986.551, 1618.631 983.720 C 1619.317 978.550, 1623.089 972.758, 1624.715 974.380 C 1626.792 976.452, 1627.930 1000.020, 1628.274 1048.096 C 1628.442 1071.625, 1628.819 1080.077, 1629.750 1081.199 C 1631.420 1083.211, 1650.398 1084.508, 1656.021 1082.994 L 1660 1081.923 1660.035 1075.211 C 1660.054 1071.520, 1660.104 1039.700, 1660.146 1004.500 C 1660.225 938.504, 1659.931 933.010, 1656.239 931.489 C 1655.283 931.096, 1644.765 930.568, 1632.867 930.318 L 1611.234 929.863 1609.334 932.681 C 1608.289 934.232, 1607.306 936.850, 1607.149 938.500 C 1606.783 942.369, 1605.161 948.689, 1603.558 952.500 C 1602.864 954.150, 1601.829 957.300, 1601.258 959.500 C 1600.687 961.700, 1599.744 964.850, 1599.164 966.500 C 1598.583 968.150, 1597.557 972.108, 1596.883 975.297 C 1596.209 978.485, 1595.285 981.324, 1594.829 981.606 C 1594.373 981.887, 1594 983.372, 1594 984.905 C 1594 986.438, 1593.291 989.114, 1592.424 990.852 C 1591.557 992.590, 1590.661 995.521, 1590.432 997.366 C 1590.018 1000.703, 1586.016 1008.932, 1583.206 1012.226 C 1581.572 1014.141, 1579.566 1013.574, 1580.388 1011.431 C 1580.677 1010.679, 1580.508 1009.814, 1580.014 1009.509 C 1579.520 1009.203, 1578.801 1006.854, 1578.416 1004.288 C 1578.031 1001.721, 1576.694 997.344, 1575.444 994.561 C 1574.194 991.777, 1572.920 987.700, 1572.612 985.500 C 1571.254 975.791, 1570.052 970.061, 1568.690 966.801 C 1567.885 964.873, 1566.894 961.334, 1566.489 958.937 C 1566.084 956.539, 1565.379 953.885, 1564.923 953.038 C 1564.467 952.192, 1563.423 947.994, 1562.603 943.709 C 1561.783 939.424, 1560.150 934.361, 1558.974 932.459 L 1556.837 929 1548.168 928.983 C 1543.401 928.973, 1532.369 928.861, 1523.654 928.733 C 1514.938 928.605, 1507.665 928.731, 1507.490 929.014 M 1685.570 934.345 C 1683.652 939.194, 1684.181 1077.518, 1686.134 1081.595 L 1687.525 1084.500 1703.512 1084.774 L 1719.500 1085.048 1719.262 1057.583 C 1719.048 1032.853, 1719.194 1029.949, 1720.727 1028.415 C 1722.236 1026.907, 1724.016 1026.788, 1736.338 1027.376 C 1744.353 1027.759, 1750.724 1027.653, 1751.373 1027.126 C 1751.993 1026.624, 1756.720 1025.493, 1761.878 1024.615 C 1768.876 1023.422, 1771.826 1022.444, 1773.505 1020.758 C 1777.849 1016.398, 1780.791 1014, 1781.797 1014 C 1783.175 1014, 1788.948 1005.149, 1789.611 1002.020 C 1789.905 1000.634, 1790.754 997.925, 1791.499 996 C 1792.774 992.704, 1794.399 977.368, 1794.225 970.278 C 1794.182 968.506, 1793.491 965.806, 1792.690 964.278 C 1788.637 956.544, 1786.193 951.254, 1785.633 949 C 1785.082 946.786, 1776.757 940, 1774.590 940 C 1774.167 940, 1773.073 939.157, 1772.160 938.127 C 1767.499 932.868, 1750.284 930.984, 1708.159 931.121 L 1686.818 931.191 1685.570 934.345 M 1831.059 934.949 C 1829.824 936.020, 1828.430 938.383, 1827.963 940.199 C 1827.495 942.014, 1826.649 945.075, 1826.082 947 C 1825.515 948.925, 1824.333 953.425, 1823.454 957 C 1822.576 960.575, 1820.989 965.425, 1819.928 967.777 C 1818.868 970.129, 1818 972.904, 1818 973.943 C 1818 974.983, 1817.618 975.983, 1817.151 976.167 C 1816.311 976.496, 1812 988.911, 1812 991.001 C 1812 991.596, 1810.658 994.954, 1809.017 998.463 C 1807.376 1001.972, 1805.523 1007.016, 1804.899 1009.672 C 1804.275 1012.327, 1803.367 1015.281, 1802.882 1016.236 C 1802.397 1017.191, 1801.986 1018.766, 1801.968 1019.736 C 1801.951 1020.706, 1801.276 1022.374, 1800.468 1023.441 C 1799.661 1024.509, 1799 1026.395, 1799 1027.632 C 1799 1028.870, 1798.613 1030.121, 1798.141 1030.413 C 1797.669 1030.705, 1796.979 1033.520, 1796.609 1036.669 C 1796.186 1040.270, 1795.082 1043.528, 1793.635 1045.447 C 1791.346 1048.484, 1787 1063.588, 1787 1068.506 C 1787 1069.924, 1786.118 1072.031, 1785.039 1073.188 C 1782.894 1075.491, 1781.227 1083.645, 1782.625 1084.994 C 1783.772 1086.101, 1802.151 1087.078, 1807.648 1086.325 C 1811.866 1085.747, 1811.961 1085.647, 1813.562 1080.119 C 1814.457 1077.028, 1815.586 1074.016, 1816.071 1073.425 C 1816.557 1072.834, 1817.655 1069.016, 1818.513 1064.940 C 1819.370 1060.863, 1820.393 1057.231, 1820.786 1056.867 C 1822.984 1054.830, 1856.370 1053.575, 1863.335 1055.268 C 1868.525 1056.529, 1871.491 1059.120, 1871.783 1062.648 C 1871.907 1064.141, 1872.613 1066.294, 1873.352 1067.431 C 1874.092 1068.569, 1874.736 1070.997, 1874.784 1072.827 C 1874.831 1074.657, 1875.575 1077.228, 1876.435 1078.542 C 1877.296 1079.855, 1878 1082.016, 1878 1083.343 C 1878 1086.405, 1881.650 1088.024, 1889.641 1088.506 C 1892.863 1088.700, 1899.641 1089.168, 1904.702 1089.545 L 1913.904 1090.231 1914.574 1087.561 C 1914.943 1086.093, 1914.980 1083.453, 1914.657 1081.696 C 1912.882 1072.041, 1910.873 1064.456, 1909.562 1062.454 C 1907.690 1059.597, 1898 1030.923, 1898 1028.240 C 1898 1027.143, 1897.325 1025.685, 1896.500 1025 C 1895.675 1024.315, 1894.991 1022.348, 1894.979 1020.628 C 1894.967 1018.907, 1893.790 1014.350, 1892.363 1010.500 C 1890.936 1006.650, 1888.877 1001.025, 1887.788 998 C 1886.699 994.975, 1885.466 992.275, 1885.049 992 C 1883.464 990.956, 1881.969 984.145, 1882.342 979.671 C 1882.670 975.725, 1882.221 974.224, 1879.403 969.850 C 1877.574 967.010, 1875.579 962.290, 1874.971 959.361 C 1874.363 956.431, 1873.535 953.831, 1873.132 953.582 C 1872.729 953.332, 1872.288 951.260, 1872.154 948.978 C 1871.930 945.181, 1871.274 943.221, 1868.816 939 C 1868.335 938.175, 1867.688 936.754, 1867.379 935.842 C 1866.548 933.398, 1864.003 933.029, 1847.903 933.014 C 1834.858 933.001, 1833.067 933.207, 1831.059 934.949 M 1925.522 936.232 C 1923.519 939.623, 1923.121 945.969, 1923.152 974 C 1923.176 995.505, 1923.049 1011.130, 1922.772 1021 C 1922.656 1025.125, 1922.862 1030.718, 1923.229 1033.428 C 1923.597 1036.139, 1923.709 1038.663, 1923.478 1039.036 C 1922.118 1041.236, 1921.301 1088.635, 1922.600 1089.932 C 1923.687 1091.018, 1948.027 1090.373, 1949.171 1089.229 C 1949.951 1088.449, 1950.359 1072.792, 1950.537 1036.809 C 1950.719 1000.124, 1951.107 985.529, 1951.896 985.600 C 1952.503 985.655, 1953.473 985.768, 1954.051 985.850 C 1955.350 986.035, 1958 992.190, 1958 995.022 C 1958 996.170, 1959.387 998.547, 1961.082 1000.304 C 1962.777 1002.062, 1964.621 1004.737, 1965.180 1006.250 C 1965.739 1007.763, 1966.602 1009, 1967.098 1009 C 1967.594 1009, 1968.010 1009.788, 1968.022 1010.750 C 1968.034 1011.712, 1968.924 1013.625, 1970 1015 C 1971.076 1016.375, 1971.971 1018.400, 1971.990 1019.500 C 1972.009 1020.600, 1973.102 1023.385, 1974.419 1025.688 C 1975.736 1027.992, 1977.121 1031.273, 1977.496 1032.980 C 1977.871 1034.687, 1979.171 1037.077, 1980.386 1038.292 C 1981.600 1039.506, 1983.434 1043.088, 1984.460 1046.250 C 1985.485 1049.412, 1986.702 1052, 1987.162 1052 C 1987.623 1052, 1988 1052.873, 1988 1053.941 C 1988 1055.009, 1988.399 1056.129, 1988.887 1056.430 C 1989.374 1056.731, 1990.061 1058.513, 1990.413 1060.388 C 1990.993 1063.482, 1992.072 1065.902, 1995.735 1072.332 C 1996.415 1073.524, 1996.977 1075.937, 1996.985 1077.693 C 1996.994 1079.556, 1997.729 1081.431, 1998.750 1082.193 C 1999.713 1082.912, 2001.137 1084.735, 2001.915 1086.243 C 2004.552 1091.354, 2007.002 1092.129, 2022.022 1092.599 C 2031.198 1092.887, 2036.084 1092.674, 2036.521 1091.966 C 2037.065 1091.086, 2037.623 1082.346, 2038.178 1066 C 2038.225 1064.625, 2038.196 1043.360, 2038.114 1018.745 C 2038.031 994.130, 2038.246 972.868, 2038.590 971.495 C 2038.936 970.120, 2038.782 969, 2038.247 969 C 2037.235 969, 2037.503 953.613, 2038.545 951.927 C 2039.496 950.388, 2043.188 950.884, 2044.667 952.750 C 2045.430 953.712, 2046.991 956.413, 2048.137 958.750 C 2049.283 961.087, 2050.572 963, 2051.002 963 C 2051.432 963, 2052.042 964.013, 2052.357 965.250 C 2052.673 966.487, 2054.500 969.926, 2056.417 972.891 C 2058.334 975.856, 2060.200 979.681, 2060.563 981.391 C 2060.926 983.101, 2061.735 985.175, 2062.361 986 C 2064.428 988.722, 2065.736 991.522, 2066.441 994.731 C 2066.823 996.472, 2068.456 999.557, 2070.068 1001.586 C 2071.681 1003.615, 2073 1005.958, 2073 1006.793 C 2073 1007.628, 2074.068 1009.711, 2075.373 1011.422 C 2076.678 1013.133, 2077.988 1016.325, 2078.285 1018.516 C 2078.582 1020.707, 2079.541 1024.965, 2080.415 1027.978 C 2081.715 1032.457, 2081.996 1038.830, 2081.952 1062.892 C 2081.910 1085.797, 2082.186 1092.607, 2083.199 1093.593 C 2084.667 1095.022, 2116.848 1096.330, 2118.927 1095.045 C 2120.971 1093.782, 2122.793 1089.382, 2121.919 1087.820 C 2120.985 1086.151, 2120.990 1086.442, 2121.419 1055 C 2121.709 1033.755, 2121.951 1030.924, 2123.937 1025.500 C 2126.593 1018.250, 2136.846 997.213, 2138.102 996.437 C 2138.596 996.132, 2139.014 995.121, 2139.032 994.191 C 2139.049 993.261, 2140.581 990.990, 2142.436 989.145 C 2144.598 986.995, 2146.802 983.046, 2148.575 978.145 C 2150.096 973.940, 2152.336 969.150, 2153.551 967.500 C 2154.767 965.850, 2156.942 962.250, 2158.385 959.500 C 2159.828 956.750, 2161.569 954.500, 2162.254 954.500 C 2162.939 954.500, 2163.866 952.700, 2164.314 950.500 C 2164.761 948.300, 2165.759 944.568, 2166.532 942.206 C 2167.885 938.071, 2167.855 937.881, 2165.718 937.071 C 2164.434 936.584, 2163.003 936.630, 2162.318 937.181 C 2161.580 937.775, 2159.873 937.783, 2157.774 937.203 C 2155.822 936.664, 2151.856 936.624, 2148.320 937.108 C 2144.969 937.566, 2139.902 938.067, 2137.058 938.220 C 2132.275 938.479, 2131.753 938.762, 2130.072 942 C 2125.924 949.989, 2122.738 960.153, 2123.642 962.510 C 2123.988 963.412, 2123.233 964.392, 2121.627 965.124 C 2120.153 965.796, 2118.603 967.672, 2117.991 969.526 C 2117.405 971.304, 2116.042 973.557, 2114.962 974.534 C 2113.883 975.511, 2113 976.919, 2113 977.662 C 2113 980.171, 2107.704 988.844, 2105.881 989.321 C 2103.733 989.883, 2102.528 988.552, 2101.571 984.559 C 2101.183 982.942, 2100.086 980.917, 2099.132 980.059 C 2097.135 978.264, 2094.476 972.858, 2093.444 968.500 C 2092.376 963.983, 2089.166 957.200, 2087.671 956.298 C 2086.943 955.859, 2085.637 953.475, 2084.768 951 C 2081.731 942.346, 2080.429 939.222, 2079.288 937.847 C 2078.367 936.738, 2072.683 936.418, 2050.819 936.248 C 2035.794 936.130, 2021.445 935.752, 2018.932 935.406 C 2010.972 934.312, 2011.052 934.020, 2010.840 964.809 C 2010.592 1000.654, 2010.433 1006.479, 2009.514 1013.500 C 2008.344 1022.430, 2005.994 1025.789, 2004.442 1020.750 C 2004.060 1019.513, 2002.455 1016.565, 2000.874 1014.200 C 1999.293 1011.835, 1998 1009.274, 1998 1008.509 C 1998 1007.744, 1997.550 1006.840, 1997 1006.500 C 1996.450 1006.160, 1996 1005.203, 1996 1004.374 C 1996 1003.545, 1994.875 1001.392, 1993.500 999.589 C 1992.125 997.786, 1991 995.846, 1991 995.278 C 1991 994.710, 1990.325 993.685, 1989.500 993 C 1988.675 992.315, 1988 990.979, 1988 990.031 C 1988 987.749, 1985.203 982.043, 1982.752 979.324 C 1981.673 978.127, 1981.062 976.709, 1981.393 976.173 C 1982.234 974.812, 1978.304 962.497, 1976.569 961.057 C 1974.767 959.562, 1970 950.514, 1970 948.590 C 1970 947.794, 1969.438 946.548, 1968.750 945.821 C 1968.063 945.095, 1967.354 943.150, 1967.175 941.500 C 1966.559 935.810, 1965.357 935.356, 1948.724 934.529 C 1940.351 934.112, 1932.105 933.647, 1930.401 933.496 C 1927.869 933.271, 1926.975 933.772, 1925.522 936.232 M 615.500 947.698 C 612.487 948.510, 606.123 953.862, 604.548 956.906 C 601.996 961.843, 599.256 971.424, 598.373 978.500 C 596.893 990.367, 597.557 1025.723, 599.395 1032.897 C 601.509 1041.149, 605.413 1047.640, 609.344 1049.441 C 613.658 1051.417, 614.369 1051.475, 623.530 1050.599 C 631.056 1049.879, 631.669 1049.642, 633.280 1046.834 C 634.226 1045.186, 635 1043.177, 635 1042.369 C 635 1041.562, 635.747 1039.461, 636.661 1037.700 C 641.670 1028.048, 644.594 990.969, 641.566 975.500 C 640.705 971.100, 640 966.438, 640 965.140 C 640 961.793, 634.365 953.518, 630.104 950.609 C 626.485 948.137, 619.231 946.691, 615.500 947.698 M 1018.117 951.049 C 1017.009 952.869, 1016.354 954.764, 1016.660 955.259 C 1016.966 955.753, 1017.200 963.210, 1017.181 971.829 C 1017.135 992.274, 1016.957 992.007, 1030.660 991.982 C 1039.869 991.965, 1040.776 991.776, 1044.810 989.042 C 1047.181 987.436, 1050.443 984.181, 1052.060 981.810 C 1054.669 977.985, 1054.985 976.713, 1054.872 970.500 C 1054.799 966.487, 1054.099 962.220, 1053.232 960.500 C 1051.290 956.649, 1047.380 951.954, 1046.690 952.644 C 1046.397 952.936, 1044.795 952.169, 1043.131 950.938 C 1040.614 949.078, 1038.419 948.620, 1030.117 948.220 L 1020.129 947.739 1018.117 951.049 M 1420 954.337 C 1413.763 960.009, 1410.125 967.213, 1408.890 976.336 C 1405.896 998.448, 1409.766 1044.928, 1415.070 1050.574 C 1416.919 1052.543, 1421.577 1053.940, 1431.383 1055.467 C 1437.685 1056.448, 1444.365 1051.125, 1445.586 1044.149 C 1445.937 1042.142, 1446.780 1039.600, 1447.459 1038.500 C 1448.786 1036.351, 1449.509 1030.651, 1450.947 1011 C 1451.676 1001.029, 1451.563 997.185, 1450.389 992 C 1449.580 988.425, 1448.958 982.742, 1449.008 979.372 C 1449.078 974.585, 1448.494 972.013, 1446.341 967.622 C 1444.824 964.530, 1443.051 962, 1442.400 962 C 1441.749 962, 1440.960 960.987, 1440.645 959.750 C 1440.326 958.494, 1438.050 956.285, 1435.496 954.750 C 1429.638 951.231, 1423.592 951.070, 1420 954.337 M 1722.250 955.103 C 1720.493 955.753, 1720.265 957.240, 1719.694 971.729 C 1719.125 986.189, 1719.296 991.325, 1720.559 997.650 C 1721.181 1000.769, 1725.833 1002, 1736.994 1002 C 1745.622 1002, 1746.971 1001.752, 1749.252 999.750 C 1753.864 995.702, 1756.016 990.457, 1756.597 981.853 C 1757.106 974.309, 1756.960 973.532, 1753.931 967.686 C 1748.142 956.511, 1744.441 954.169, 1732.779 954.296 C 1728.049 954.348, 1723.311 954.711, 1722.250 955.103 M 254.494 964.403 C 251.732 967.602, 247.881 978.679, 246.464 987.500 C 246.110 989.700, 245.473 991.950, 245.048 992.500 C 244.623 993.050, 243.962 994.850, 243.579 996.500 C 243.196 998.150, 241.977 1001.396, 240.870 1003.713 C 239.123 1007.370, 237.974 1018.307, 239.207 1019.540 C 240.481 1020.814, 266.788 1019.591, 268.201 1018.192 C 268.586 1017.811, 268.448 1015.699, 267.894 1013.499 C 267.340 1011.300, 266.491 1007.953, 266.006 1006.061 C 265.522 1004.170, 265.363 1001.433, 265.654 999.978 C 265.983 998.335, 265.391 995.857, 264.092 993.432 C 262.941 991.286, 262.006 988.173, 262.014 986.515 C 262.030 982.861, 258.074 967.141, 256.568 964.876 C 255.770 963.675, 255.229 963.552, 254.494 964.403 M 905.072 968.928 C 904.012 969.988, 902.830 973.026, 902.446 975.678 C 902.062 978.330, 901.356 980.994, 900.878 981.598 C 900.399 982.202, 899.326 986.603, 898.493 991.378 C 897.661 996.153, 896.552 1000.834, 896.030 1001.780 C 894.620 1004.335, 893.143 1012.832, 893.723 1015.050 C 894.439 1017.787, 900.238 1019.084, 910.475 1018.795 C 919.530 1018.540, 922.021 1017.384, 922.182 1013.362 C 922.304 1010.326, 919.094 995.743, 917.590 992.500 C 916.825 990.850, 915.424 985.675, 914.477 981 C 911.759 967.584, 909.420 964.580, 905.072 968.928 M 1841.537 976.566 C 1840.692 978.589, 1840 981.147, 1840 982.251 C 1840 983.355, 1838.926 987.237, 1837.612 990.879 C 1836.299 994.521, 1834.655 1001.100, 1833.958 1005.500 C 1833.261 1009.900, 1831.635 1015.834, 1830.345 1018.686 C 1827.496 1024.986, 1827.447 1026.190, 1829.946 1028.451 C 1831.600 1029.948, 1833.860 1030.208, 1845.003 1030.181 C 1861.025 1030.144, 1861.451 1029.912, 1860.703 1021.663 C 1860.409 1018.421, 1859.681 1015.281, 1859.084 1014.684 C 1858.488 1014.088, 1858 1011.947, 1858 1009.926 C 1858 1007.905, 1857.343 1004.389, 1856.540 1002.114 C 1855.737 999.838, 1853.905 993.059, 1852.468 987.050 C 1849.808 975.925, 1849.188 974.762, 1845.287 973.567 C 1843.420 972.995, 1842.833 973.465, 1841.537 976.566" stroke="none" fill="#a2b7be" fill-rule="evenodd" data-index="0" style="opacity: 1;"></path>
</svg>