<svg xmlns="http://www.w3.org/2000/svg" width="2280" height="1237" viewBox="0 0 2280 1237" version="1.1">
	<path d="M 1826 99.750 C 1817.367 101.123, 1814.345 101.273, 1802.879 100.902 C 1800.888 100.837, 1798.034 101.587, 1796.537 102.568 C 1794.496 103.905, 1791.527 104.397, 1784.658 104.535 C 1775.166 104.727, 1767.787 106.347, 1765.866 108.662 C 1765.235 109.422, 1762.755 110.007, 1760.128 110.015 C 1754.816 110.032, 1748.931 111.847, 1746.214 114.306 C 1745.185 115.238, 1743.203 116, 1741.811 116 C 1740.418 116, 1737.690 117.078, 1735.749 118.396 C 1733.807 119.714, 1730.482 121.343, 1728.359 122.018 C 1726.237 122.692, 1723.825 123.642, 1723 124.128 C 1722.175 124.614, 1719.967 125.797, 1718.094 126.756 C 1716.220 127.715, 1712.395 130.630, 1709.594 133.232 C 1706.792 135.835, 1704.189 137.973, 1703.808 137.982 C 1703.428 137.992, 1700.545 140.250, 1697.403 143 C 1694.260 145.750, 1691.177 148, 1690.550 148 C 1689.924 148, 1687.706 149.800, 1685.622 152 C 1683.537 154.200, 1681.458 156, 1681.002 156 C 1680.546 156, 1677.124 159.713, 1673.397 164.250 C 1669.671 168.787, 1664.943 174.170, 1662.891 176.210 C 1660.839 178.251, 1658.869 180.838, 1658.513 181.960 C 1658.157 183.082, 1657.221 184, 1656.433 184 C 1655.645 184, 1655 184.444, 1655 184.987 C 1655 185.530, 1650.902 190.239, 1645.892 195.451 C 1640.883 200.663, 1634.770 207.531, 1632.308 210.714 C 1629.846 213.896, 1626.127 218.099, 1624.043 220.053 C 1621.960 222.007, 1619.528 225.012, 1618.639 226.732 C 1617.749 228.451, 1616.157 230.133, 1615.100 230.468 C 1614.043 230.804, 1611.990 232.636, 1610.538 234.539 C 1609.086 236.443, 1607.458 238, 1606.920 238 C 1606.382 238, 1603.731 239.687, 1601.029 241.750 C 1592.330 248.390, 1575.393 257.869, 1568.500 259.954 C 1566.300 260.619, 1561.350 262.644, 1557.500 264.454 C 1553.650 266.264, 1548.786 268.052, 1546.690 268.429 C 1544.595 268.805, 1539.645 270.814, 1535.690 272.892 C 1531.736 274.971, 1526.415 276.955, 1523.867 277.301 C 1521.318 277.647, 1517.718 278.819, 1515.867 279.905 C 1512.259 282.022, 1496.577 286.948, 1483.317 290.130 C 1481.017 290.682, 1478.599 291.778, 1477.945 292.567 C 1477.171 293.499, 1474.787 294.002, 1471.128 294.006 C 1467.929 294.010, 1464.205 294.697, 1462.500 295.598 C 1458.171 297.887, 1446.571 302, 1444.445 302 C 1443.447 302, 1440.577 303.008, 1438.066 304.240 C 1435.309 305.592, 1431.519 306.509, 1428.500 306.555 C 1425.663 306.597, 1421.553 307.538, 1419 308.730 C 1416.525 309.885, 1411.800 311.150, 1408.500 311.542 C 1405.200 311.934, 1401.356 312.836, 1399.958 313.546 C 1398.559 314.256, 1394.509 315.339, 1390.958 315.952 C 1387.406 316.566, 1383.600 317.465, 1382.500 317.951 C 1381.400 318.436, 1376.900 319.360, 1372.500 320.003 C 1368.100 320.646, 1363.503 321.809, 1362.285 322.586 C 1361.067 323.364, 1358.816 324, 1357.282 324 C 1355.748 324, 1351.345 324.904, 1347.497 326.009 C 1343.649 327.114, 1337.350 328.298, 1333.500 328.642 C 1329.650 328.985, 1325.806 329.866, 1324.958 330.600 C 1324.110 331.333, 1320.735 332.220, 1317.458 332.570 C 1314.181 332.921, 1309.281 333.836, 1306.568 334.604 C 1303.856 335.372, 1300.031 336, 1298.068 336 C 1296.106 336, 1291.800 336.884, 1288.500 337.964 C 1285.200 339.044, 1279.125 340.411, 1275 341.001 C 1270.875 341.590, 1265.475 342.573, 1263 343.185 C 1253.252 345.594, 1244.100 347.234, 1235.500 348.114 C 1230.550 348.620, 1222.675 350.020, 1218 351.225 C 1213.325 352.429, 1206.350 353.466, 1202.500 353.529 C 1198.084 353.601, 1194.319 354.263, 1192.300 355.322 C 1190.539 356.245, 1186.867 357, 1184.138 357 C 1181.409 357, 1175.649 357.686, 1171.338 358.524 C 1167.027 359.363, 1158.431 360.438, 1152.236 360.913 C 1146.041 361.389, 1140.398 362.255, 1139.696 362.838 C 1138.993 363.421, 1132.812 364.191, 1125.959 364.549 C 1119.107 364.908, 1112.656 365.652, 1111.623 366.204 C 1110.591 366.755, 1105.641 367.355, 1100.623 367.536 C 1089.160 367.952, 1075.977 368.881, 1065 370.047 C 1057.303 370.865, 1041.776 371.503, 1020.750 371.866 C 1014.312 371.977, 1012.643 372.357, 1010.893 374.107 C 1008.989 376.011, 1008.936 376.364, 1010.336 377.765 C 1011.189 378.618, 1014.647 379.693, 1018.019 380.154 C 1021.392 380.615, 1025.121 381.671, 1026.305 382.501 C 1027.949 383.652, 1029.951 383.856, 1034.775 383.362 C 1040.687 382.756, 1041.271 382.886, 1043.876 385.382 C 1046.180 387.589, 1048.066 388.209, 1054.810 388.978 C 1059.292 389.490, 1063.839 390.379, 1064.914 390.954 C 1065.989 391.529, 1068.139 392, 1069.691 392 C 1071.244 392, 1076.561 393.119, 1081.507 394.488 C 1086.453 395.856, 1093.110 396.981, 1096.300 396.988 C 1099.730 396.995, 1103.407 397.678, 1105.300 398.661 C 1108.846 400.500, 1109.510 400.627, 1122.807 401.999 C 1127.926 402.527, 1134.001 403.585, 1136.307 404.349 C 1138.613 405.113, 1145.834 406.043, 1152.353 406.416 C 1158.873 406.789, 1166.083 407.731, 1168.377 408.510 C 1171.931 409.716, 1177.150 410.040, 1194.500 410.128 C 1195.600 410.133, 1200.775 410.972, 1206 411.991 C 1211.225 413.010, 1218.306 414.389, 1221.736 415.055 C 1226.427 415.967, 1228.315 415.984, 1229.353 415.122 C 1231.163 413.620, 1253.684 414.193, 1256.684 415.817 C 1259.649 417.423, 1264.508 417.306, 1267.910 415.547 C 1270.238 414.343, 1276.191 414.151, 1302.610 414.430 C 1334.925 414.772, 1357.564 413.831, 1361.860 411.967 C 1363.157 411.404, 1372.157 410.663, 1381.860 410.321 C 1395.720 409.831, 1400.678 409.276, 1405 407.728 C 1408.273 406.556, 1414.752 405.476, 1421 405.062 C 1426.775 404.679, 1432.400 403.892, 1433.500 403.313 C 1434.600 402.734, 1439.969 401.944, 1445.432 401.557 C 1450.895 401.169, 1457.195 400.250, 1459.432 399.514 C 1461.669 398.778, 1466.875 397.859, 1471 397.472 C 1475.125 397.084, 1479.400 396.576, 1480.500 396.343 C 1481.600 396.109, 1484.144 395.746, 1486.153 395.535 C 1488.162 395.324, 1491.207 394.427, 1492.920 393.541 C 1494.633 392.656, 1498.164 391.762, 1500.767 391.556 C 1503.370 391.350, 1508.425 390.246, 1512 389.103 C 1515.575 387.961, 1520.322 387.020, 1522.550 387.013 C 1524.777 387.006, 1527.052 386.548, 1527.605 385.995 C 1528.157 385.443, 1531.262 384.739, 1534.503 384.432 C 1537.745 384.124, 1540.791 383.629, 1541.272 383.332 C 1542.537 382.550, 1561.192 378, 1563.133 378 C 1564.033 378, 1566.960 377.360, 1569.635 376.577 C 1572.311 375.795, 1577.200 374.594, 1580.500 373.909 C 1583.800 373.224, 1588.160 371.844, 1590.190 370.842 C 1592.219 369.840, 1596.044 368.786, 1598.690 368.498 C 1603.213 368.007, 1605.866 367.092, 1617.897 361.877 C 1620.590 360.710, 1623.301 360.068, 1623.921 360.451 C 1624.540 360.834, 1627.849 360.263, 1631.274 359.183 C 1634.698 358.102, 1640.200 356.464, 1643.500 355.543 C 1646.800 354.621, 1651.909 352.994, 1654.853 351.928 C 1662.801 349.049, 1678.622 347.283, 1681.326 348.972 C 1683.404 350.269, 1702.360 352.133, 1704.697 351.269 C 1705.356 351.026, 1709.041 351.820, 1712.887 353.034 C 1718.553 354.822, 1721.173 355.117, 1726.690 354.591 C 1736.954 353.611, 1737.589 353.648, 1741.175 355.440 C 1743.993 356.847, 1747.701 357.075, 1765.500 356.932 C 1777.050 356.840, 1788.750 356.331, 1791.500 355.802 C 1794.250 355.273, 1800.550 354.233, 1805.500 353.490 C 1817.331 351.714, 1827.551 349.261, 1832.500 347.008 C 1834.700 346.007, 1838.007 344.923, 1839.850 344.599 C 1841.692 344.275, 1844.539 342.883, 1846.177 341.505 C 1847.814 340.127, 1850.318 338.707, 1851.740 338.350 C 1853.162 337.993, 1855.040 337.123, 1855.913 336.415 C 1861.432 331.944, 1866.973 327.712, 1870 325.656 C 1874.918 322.316, 1890 307.147, 1890 305.541 C 1890 304.809, 1892.073 302.025, 1894.607 299.355 C 1897.141 296.685, 1899.635 293.600, 1900.150 292.500 C 1901.144 290.376, 1902.030 288.882, 1906.079 282.500 C 1907.474 280.300, 1909.435 276.700, 1910.436 274.500 C 1911.436 272.300, 1912.828 269.825, 1913.528 269 C 1915.881 266.227, 1920 258.132, 1920 256.280 C 1920 255.271, 1920.611 253.557, 1921.358 252.473 C 1922.105 251.388, 1923.043 248.700, 1923.442 246.500 C 1923.841 244.300, 1924.973 241.150, 1925.957 239.500 C 1926.940 237.850, 1928.043 234.527, 1928.406 232.115 C 1928.769 229.704, 1929.952 226.606, 1931.033 225.230 C 1933.586 221.985, 1933.728 216.164, 1931.250 216.361 C 1929.259 216.519, 1927.778 217.522, 1924.726 220.778 C 1923.551 222.031, 1922.034 222.843, 1921.355 222.583 C 1920.675 222.322, 1918.497 223.209, 1916.515 224.554 C 1914.533 225.899, 1912.486 227, 1911.967 227 C 1911.447 227, 1908.360 229.025, 1905.105 231.500 C 1901.851 233.975, 1898.774 236, 1898.268 236 C 1897.763 236, 1896.292 237.125, 1895 238.500 C 1893.708 239.875, 1892.238 241, 1891.733 241 C 1891.229 241, 1889.671 241.900, 1888.273 243 C 1886.874 244.100, 1884.923 245, 1883.937 245 C 1882.950 245, 1881.361 245.788, 1880.405 246.750 C 1878.646 248.522, 1877.697 249.215, 1869.963 254.371 C 1867.595 255.950, 1864.749 258.087, 1863.640 259.121 C 1862.531 260.154, 1860.573 261, 1859.290 261 C 1857.797 261, 1856.563 261.865, 1855.862 263.403 C 1855.132 265.006, 1853.338 266.205, 1850.469 267.009 C 1848.105 267.670, 1844.923 269.514, 1843.398 271.106 C 1841.873 272.698, 1840.232 274, 1839.751 274 C 1838.328 274, 1827.610 279.263, 1826.221 280.644 C 1825.518 281.343, 1824.321 281.677, 1823.561 281.385 C 1822.802 281.094, 1820.815 281.562, 1819.145 282.425 C 1816.238 283.928, 1815.864 283.867, 1810.336 280.999 C 1807.160 279.351, 1803.772 278.255, 1802.805 278.562 C 1801.838 278.869, 1796.928 277.472, 1791.894 275.458 C 1781.786 271.414, 1778.680 270.791, 1775.204 272.112 C 1772.769 273.038, 1769.400 271.842, 1767.500 269.376 C 1766.950 268.662, 1764.296 267.594, 1761.602 267.002 C 1758.908 266.410, 1755.463 265.042, 1753.947 263.963 C 1752.196 262.716, 1749.560 262, 1746.718 262 C 1741.726 262, 1736.057 259.978, 1733.959 257.450 C 1733.151 256.477, 1732.487 253.024, 1732.360 249.143 C 1732.240 245.489, 1731.811 239.575, 1731.407 236 C 1731.002 232.425, 1730.748 228.600, 1730.843 227.500 C 1730.938 226.400, 1731.131 213.982, 1731.272 199.905 L 1731.528 174.310 1734.514 171.687 C 1736.156 170.244, 1737.904 169.049, 1738.397 169.032 C 1738.890 169.014, 1741.210 167.430, 1743.551 165.512 C 1745.892 163.593, 1748.976 161.579, 1750.404 161.037 C 1751.832 160.494, 1753 159.648, 1753 159.158 C 1753 157.992, 1759.547 153.752, 1764 152.032 C 1765.925 151.289, 1768.625 149.686, 1770 148.470 C 1771.375 147.254, 1774.975 144.591, 1778 142.551 C 1781.025 140.512, 1784.734 137.754, 1786.241 136.422 C 1787.749 135.090, 1789.243 134, 1789.561 134 C 1789.879 134, 1792.102 132.650, 1794.500 131 C 1796.898 129.350, 1799.272 128, 1799.775 128 C 1800.278 128, 1801.481 127.126, 1802.449 126.057 C 1803.416 124.988, 1805.478 123.834, 1807.030 123.493 C 1808.583 123.152, 1810.571 121.777, 1811.450 120.437 C 1812.328 119.097, 1813.883 118, 1814.905 118 C 1815.928 118, 1818.565 116.200, 1820.765 114 C 1822.965 111.800, 1825.205 110, 1825.744 110 C 1827.473 110, 1836 101.420, 1836 99.680 C 1836 98.756, 1835.888 98.054, 1835.750 98.120 C 1835.612 98.186, 1831.225 98.920, 1826 99.750 M 1099 139.697 C 1096.850 141.247, 1093.910 141.545, 1078.016 141.819 C 1067.851 141.994, 1059.273 142.558, 1058.955 143.073 C 1058.637 143.587, 1055.174 144.410, 1051.259 144.901 C 1047.344 145.393, 1043.546 146.171, 1042.820 146.630 C 1042.094 147.089, 1039.025 147.522, 1036 147.592 C 1026.155 147.819, 1013.303 149.503, 1011.782 150.766 C 1010.964 151.445, 1007.416 152.270, 1003.898 152.601 C 1000.338 152.935, 996.391 153.974, 995 154.944 C 993.625 155.902, 990.344 156.929, 987.709 157.225 C 985.075 157.521, 982.064 158.537, 981.020 159.482 C 979.644 160.727, 977.384 161.197, 972.811 161.190 C 968.837 161.183, 965.926 161.692, 964.950 162.563 C 964.098 163.324, 961.623 164.219, 959.450 164.552 C 957.278 164.885, 954.012 166.022, 952.193 167.079 C 950.374 168.135, 947.899 169.015, 946.693 169.034 C 945.487 169.053, 942.700 169.937, 940.500 171 C 938.300 172.063, 935.285 172.947, 933.800 172.966 C 932.315 172.985, 930.740 173.618, 930.300 174.373 C 929.252 176.172, 920.409 180.535, 916.169 181.346 C 914.337 181.696, 911.689 182.886, 910.284 183.991 C 908.879 185.096, 906.727 186, 905.500 186 C 904.273 186, 902.197 186.808, 900.885 187.795 C 897.963 189.995, 890.379 193.375, 888.717 193.219 C 888.048 193.156, 880.423 192.652, 871.772 192.099 C 863.119 191.546, 855.023 190.536, 853.772 189.853 C 852.258 189.026, 845.331 188.515, 833 188.321 C 822.825 188.161, 806.175 187.777, 796 187.466 C 738.281 185.706, 732.034 185.670, 724.723 187.054 C 722.096 187.551, 713.321 187.934, 705.223 187.903 C 697.126 187.873, 688.250 188.361, 685.500 188.987 C 682.750 189.613, 676.900 190.380, 672.500 190.693 C 668.100 191.006, 663.733 191.657, 662.796 192.141 C 661.859 192.625, 658.259 193.261, 654.796 193.555 C 646.169 194.287, 637.008 196.048, 633.980 197.558 C 631.537 198.775, 623.045 200.710, 616.108 201.629 C 614.242 201.876, 611.594 202.961, 610.223 204.039 C 608.743 205.203, 606.191 206, 603.941 206 C 598.424 206, 589.905 208.083, 586.846 210.180 C 585.386 211.181, 583.046 212, 581.647 212 C 580.248 212, 577.889 213.125, 576.405 214.500 C 574.518 216.249, 572.574 217, 569.931 217 C 567.361 217, 565.204 217.799, 563.182 219.500 C 561.548 220.875, 559.272 222, 558.123 222 C 556.975 222, 553.063 223.820, 549.429 226.043 C 545.796 228.267, 540.050 230.796, 536.662 231.662 C 533.273 232.529, 528.925 234.443, 527 235.917 C 521.430 240.181, 518.444 241.862, 512.463 244.100 C 509.383 245.252, 506.642 246.770, 506.372 247.472 C 505.548 249.621, 495.751 255.769, 491.267 256.951 C 488.939 257.566, 486.582 258.913, 486.028 259.947 C 485.475 260.980, 483.125 262.458, 480.805 263.232 C 478.119 264.127, 476.026 265.644, 475.043 267.406 C 474.194 268.929, 471.845 271.373, 469.821 272.837 C 459.479 280.324, 455.923 283.265, 446.655 292 C 433.735 304.177, 431.362 306.577, 426.500 312.385 C 420.350 319.732, 418.458 323.047, 419.904 323.941 C 422.182 325.349, 431.238 323.779, 434.806 321.357 C 436.716 320.061, 438.807 319, 439.452 319 C 440.097 319, 442.487 318.100, 444.764 317 C 447.041 315.900, 449.831 315, 450.965 315 C 452.099 315, 453.809 314.588, 454.764 314.084 C 457.557 312.611, 463.297 310.280, 466 309.521 C 467.375 309.135, 471.277 307.735, 474.671 306.409 C 478.064 305.084, 481.725 304, 482.806 304 C 483.887 304, 486.007 303.359, 487.516 302.576 C 489.026 301.793, 492.565 300.858, 495.381 300.498 C 498.196 300.139, 503.298 298.523, 506.717 296.908 C 510.137 295.292, 515.087 293.689, 517.717 293.345 C 520.348 293.001, 523.625 292.170, 525 291.499 C 526.375 290.828, 530.200 290.010, 533.500 289.680 C 536.800 289.350, 542.200 288.222, 545.500 287.174 C 548.800 286.126, 554.200 284.939, 557.500 284.536 C 563.636 283.786, 577.054 280.703, 578.754 279.652 C 579.274 279.331, 584.155 278.792, 589.600 278.455 C 608.084 277.310, 609.497 277.207, 615.500 276.568 C 618.800 276.217, 625.422 275.459, 630.215 274.884 C 635.009 274.309, 639.509 274.213, 640.215 274.670 C 640.922 275.126, 647.350 275.605, 654.500 275.733 C 661.650 275.862, 669.075 276.023, 671 276.091 C 672.925 276.160, 676.300 276.135, 678.500 276.035 C 683.408 275.813, 698.886 278.253, 705.010 280.215 C 707.491 281.010, 710.029 281.490, 710.651 281.283 C 711.273 281.076, 714.644 281.556, 718.141 282.350 C 721.639 283.144, 728.438 284.385, 733.250 285.107 C 738.063 285.829, 742 286.775, 742 287.210 C 742 287.644, 742.873 288, 743.941 288 C 745.009 288, 746.160 288.450, 746.500 289 C 746.840 289.550, 748.231 290, 749.591 290 C 750.951 290, 753.737 290.710, 755.782 291.577 C 757.827 292.445, 764.859 294.722, 771.408 296.637 C 777.957 298.552, 785.379 301.218, 787.900 302.560 C 790.421 303.902, 793.133 305, 793.926 305 C 794.720 305, 797.198 305.855, 799.434 306.901 C 801.670 307.946, 805.300 309.365, 807.500 310.054 C 809.700 310.743, 813.179 312.363, 815.230 313.654 C 817.282 314.944, 819.419 316, 819.980 316 C 820.541 316, 821 316.450, 821 317 C 821 317.550, 821.638 318, 822.418 318 C 823.198 318, 826.076 319.125, 828.813 320.500 C 831.551 321.875, 834.218 323, 834.740 323 C 835.263 323, 836.505 323.900, 837.500 325 C 838.495 326.100, 840.028 327.007, 840.905 327.015 C 841.782 327.023, 843.466 327.585, 844.647 328.265 C 845.828 328.944, 849.107 330.727, 851.934 332.227 C 854.761 333.727, 858.634 336.144, 860.540 337.598 C 862.447 339.053, 867.043 341.741, 870.753 343.572 C 874.464 345.403, 879.382 348.677, 881.682 350.848 C 886.984 355.851, 894.557 358.530, 900.346 357.450 C 902.631 357.024, 910.800 356.600, 918.500 356.508 C 926.200 356.416, 938.125 356.006, 945 355.597 C 951.875 355.188, 966.050 354.732, 976.500 354.582 C 986.950 354.433, 998.425 353.780, 1002 353.132 C 1005.575 352.483, 1016.825 351.747, 1027 351.496 C 1037.175 351.246, 1047.546 350.777, 1050.046 350.455 C 1052.546 350.132, 1057.721 349.856, 1061.546 349.841 C 1065.371 349.825, 1070.300 349.336, 1072.500 348.754 C 1074.700 348.172, 1081.675 347.770, 1088 347.860 C 1102.344 348.065, 1119.612 346.567, 1121.562 344.948 C 1122.593 344.093, 1124.910 343.936, 1129.268 344.425 C 1137.116 345.307, 1140.007 345.232, 1141.399 344.110 C 1142.468 343.248, 1147.593 342.562, 1161 341.485 C 1164.575 341.198, 1171.422 340.485, 1176.215 339.901 C 1181.008 339.317, 1188.589 338.754, 1193.060 338.650 C 1199.149 338.508, 1201.480 338.064, 1202.345 336.883 C 1203.209 335.703, 1206.247 335.121, 1214.385 334.577 C 1220.371 334.176, 1226.328 333.446, 1227.622 332.954 C 1228.916 332.462, 1233.468 331.575, 1237.737 330.982 C 1248.991 329.421, 1251.282 329.045, 1253.141 328.455 C 1256.015 327.543, 1266.145 325.998, 1275.500 325.045 C 1284.158 324.163, 1288.060 323.159, 1307.265 316.870 C 1312.086 315.291, 1317.261 314.001, 1318.765 314.003 C 1322.559 314.008, 1342.060 310.979, 1344.500 310.007 C 1346.915 309.044, 1356.348 307.033, 1360.500 306.596 C 1362.150 306.423, 1365.075 305.359, 1367 304.232 C 1368.925 303.105, 1372.525 301.915, 1375 301.588 C 1382.753 300.563, 1386.003 299.804, 1386.570 298.887 C 1386.871 298.399, 1388.404 298, 1389.976 298 C 1391.547 298, 1392.989 297.534, 1393.179 296.964 C 1393.673 295.480, 1400.879 293.096, 1405.027 293.044 C 1406.968 293.020, 1409.528 292.319, 1410.717 291.486 C 1411.906 290.653, 1415.238 289.524, 1418.120 288.977 C 1421.003 288.431, 1424.103 287.312, 1425.009 286.492 C 1425.916 285.671, 1427.202 285, 1427.869 285 C 1428.535 285, 1430.795 284.125, 1432.891 283.056 C 1434.987 281.986, 1438.655 280.876, 1441.043 280.588 C 1443.431 280.300, 1445.763 279.389, 1446.225 278.562 C 1446.688 277.736, 1448.964 276.549, 1451.283 275.926 C 1453.602 275.303, 1455.788 274.330, 1456.141 273.764 C 1456.493 273.199, 1459.192 272.355, 1462.139 271.889 C 1465.085 271.423, 1467.997 270.358, 1468.608 269.521 C 1469.220 268.684, 1470.176 268, 1470.733 268 C 1472.077 268, 1479.628 264.783, 1489.652 259.939 C 1494.136 257.773, 1498.376 256, 1499.074 256 C 1499.771 256, 1501.053 255.387, 1501.921 254.637 C 1502.790 253.887, 1505.750 252.448, 1508.500 251.438 C 1513.490 249.606, 1514.402 249.098, 1523.129 243.291 C 1525.675 241.597, 1528.825 239.876, 1530.129 239.466 C 1534.147 238.203, 1543.373 233.722, 1545.885 231.813 C 1547.197 230.816, 1549.028 230, 1549.955 230 C 1550.881 230, 1552.651 228.836, 1553.889 227.413 C 1555.126 225.990, 1558.694 223.658, 1561.819 222.231 C 1571.880 217.635, 1580.860 209.418, 1578.417 207.043 C 1577.913 206.553, 1573 205.399, 1567.500 204.480 C 1560.607 203.329, 1556.826 202.187, 1555.332 200.807 C 1553.723 199.321, 1552.405 198.972, 1550.221 199.451 C 1548.306 199.872, 1545.398 199.383, 1541.889 198.049 C 1538.925 196.923, 1535.150 195.985, 1533.500 195.965 C 1531.850 195.945, 1529.375 195.286, 1528 194.500 C 1526.625 193.714, 1523.250 193.055, 1520.500 193.036 C 1517.750 193.016, 1512.800 192.122, 1509.500 191.048 C 1506.200 189.973, 1501.475 188.572, 1499 187.933 C 1496.525 187.295, 1493.538 186.324, 1492.362 185.777 C 1491.179 185.226, 1488.051 185.079, 1485.362 185.448 C 1481.276 186.008, 1479.734 185.706, 1475.697 183.557 C 1473.055 182.151, 1470.045 181, 1469.006 181 C 1467.968 181, 1466.840 180.550, 1466.500 180 C 1466.160 179.450, 1463.321 178.980, 1460.191 178.956 C 1457.061 178.932, 1452.700 178.217, 1450.500 177.367 C 1445.466 175.422, 1433.068 172.840, 1431.983 173.510 C 1431.535 173.787, 1429.906 173.535, 1428.364 172.948 C 1426.822 172.362, 1423.310 171.662, 1420.559 171.392 C 1417.808 171.123, 1415.320 170.565, 1415.029 170.152 C 1413.910 168.566, 1405.214 166.513, 1399 166.370 C 1391.802 166.203, 1385.423 164.791, 1380.645 162.308 C 1378.615 161.253, 1374.357 160.564, 1368.637 160.366 C 1363.763 160.196, 1359.263 159.648, 1358.637 159.148 C 1358.012 158.648, 1354.099 157.982, 1349.943 157.668 C 1345.787 157.354, 1341.062 156.582, 1339.443 155.952 C 1337.824 155.321, 1333.125 154.413, 1329 153.933 C 1324.875 153.452, 1317 152.395, 1311.500 151.584 C 1306 150.773, 1299.025 149.879, 1296 149.598 C 1292.975 149.317, 1288.928 148.617, 1287.007 148.043 C 1285.085 147.470, 1281.023 147, 1277.979 147 C 1274.494 147, 1271.588 146.400, 1270.130 145.378 C 1268.206 144.031, 1266.291 143.876, 1258.813 144.461 C 1253.038 144.912, 1248.860 144.778, 1247.156 144.084 C 1245.695 143.490, 1239.100 142.592, 1232.500 142.088 C 1225.900 141.585, 1218.452 140.714, 1215.949 140.154 C 1213.445 139.593, 1208.720 139.369, 1205.449 139.655 C 1202.177 139.941, 1198.123 140.281, 1196.440 140.411 C 1194.757 140.541, 1192.957 140.906, 1192.440 141.222 C 1191.923 141.538, 1189.925 141.039, 1188 140.114 C 1185.179 138.757, 1183.551 138.613, 1179.609 139.375 C 1176.483 139.980, 1169.988 139.955, 1161.609 139.306 C 1154.399 138.748, 1144.675 138.439, 1140 138.618 C 1131.774 138.933, 1124.218 139.083, 1118 139.054 C 1116.350 139.047, 1113.313 139.073, 1111.250 139.113 C 1109.188 139.154, 1106.150 138.896, 1104.500 138.540 C 1102.395 138.086, 1100.754 138.431, 1099 139.697 M 1148.500 160.967 C 1146.300 161.441, 1135.725 162.393, 1125 163.082 C 1110.547 164.011, 1104.378 164.809, 1101.167 166.167 C 1098.200 167.422, 1094.260 168.014, 1088.667 168.044 C 1084.175 168.068, 1078.475 168.527, 1076 169.065 C 1073.525 169.603, 1066.586 170.733, 1060.581 171.577 C 1054.575 172.421, 1048.731 173.609, 1047.595 174.217 C 1046.459 174.825, 1042.597 175.487, 1039.014 175.688 C 1035.432 175.889, 1029.575 177.113, 1026 178.408 C 1022.425 179.703, 1015.675 181.544, 1011 182.499 C 1006.325 183.454, 999.834 185.109, 996.577 186.177 C 992.569 187.489, 989.423 187.909, 986.849 187.474 C 984.216 187.030, 982.036 187.342, 979.772 188.490 C 974.705 191.057, 968.671 192.950, 963.351 193.640 C 960.683 193.986, 957.824 194.852, 956.998 195.565 C 954.834 197.432, 950.595 198.892, 945.732 199.445 C 937.982 200.327, 925.116 203.741, 923.515 205.342 C 922.647 206.211, 920.391 207.211, 918.502 207.566 C 914.744 208.271, 913.045 211.144, 914.996 213.495 C 915.635 214.265, 918.260 215.668, 920.829 216.613 C 923.398 217.558, 925.927 218.706, 926.450 219.165 C 926.972 219.624, 928.003 220, 928.740 220 C 929.478 220, 931.300 220.879, 932.790 221.954 C 934.281 223.028, 938.547 224.599, 942.270 225.444 C 945.994 226.289, 950.044 227.617, 951.270 228.394 C 952.497 229.172, 955.525 230.126, 958 230.515 C 960.475 230.904, 964.300 232.015, 966.500 232.983 C 971.899 235.361, 979.638 237.759, 984.500 238.563 C 986.700 238.927, 989.400 239.781, 990.500 240.461 C 991.600 241.142, 994.300 242.016, 996.500 242.404 C 998.700 242.792, 1003.875 244.188, 1008 245.506 C 1017.669 248.596, 1025.895 249.995, 1034.560 250.022 C 1039.562 250.038, 1042.756 250.644, 1046 252.193 C 1049.672 253.946, 1052.431 254.356, 1061 254.421 C 1066.775 254.464, 1072.032 254.845, 1072.683 255.268 C 1075.205 256.904, 1090.115 259.351, 1104 260.407 C 1106.475 260.596, 1111.200 261.067, 1114.500 261.455 C 1119.138 262, 1120.160 261.898, 1119 261.002 C 1117.805 260.079, 1118.109 259.979, 1120.500 260.510 C 1126.354 261.811, 1147.680 262.885, 1160 262.498 C 1187.183 261.646, 1201.064 261.808, 1202.494 262.995 C 1203.584 263.900, 1205.122 263.821, 1209.204 262.653 C 1212.117 261.819, 1215.625 261.157, 1217 261.181 C 1218.375 261.206, 1227.600 260.662, 1237.500 259.972 C 1247.400 259.283, 1257.525 258.658, 1260 258.583 C 1262.475 258.508, 1266.300 257.927, 1268.500 257.292 C 1276.403 255.010, 1284.605 253.731, 1290.500 253.862 C 1293.800 253.935, 1297.400 253.584, 1298.500 253.081 C 1301.403 251.754, 1309.434 250.002, 1312.693 249.985 C 1314.237 249.977, 1317.300 249.321, 1319.500 248.529 C 1321.700 247.736, 1325.895 247.068, 1328.821 247.044 C 1336.627 246.980, 1337.507 245.612, 1334.201 238.693 C 1332.734 235.623, 1330.739 232.903, 1329.767 232.649 C 1328.795 232.395, 1328 231.417, 1328 230.476 C 1328 229.534, 1326.763 227.259, 1325.250 225.419 C 1320.021 219.058, 1318 216.179, 1318 215.092 C 1318 214.491, 1317.550 214, 1317 214 C 1316.450 214, 1315.992 213.438, 1315.983 212.750 C 1315.973 212.063, 1314.846 210.438, 1313.477 209.140 C 1312.109 207.842, 1310.229 205.142, 1309.299 203.140 C 1308.369 201.138, 1307.021 199.140, 1306.304 198.700 C 1305.587 198.260, 1305 197.340, 1305 196.654 C 1305 195.969, 1302.300 191.886, 1299 187.582 C 1295.700 183.278, 1293 179.427, 1293 179.025 C 1293 178.622, 1291.875 177.078, 1290.500 175.595 C 1289.125 174.111, 1288 172.523, 1288 172.066 C 1288 171.609, 1285.110 169.352, 1281.579 167.051 L 1275.158 162.868 1265.829 163.517 C 1258.575 164.022, 1255.532 163.816, 1252.147 162.591 C 1248.488 161.267, 1240.191 160.943, 1200.147 160.560 C 1173.941 160.310, 1150.700 160.492, 1148.500 160.967 M 1308.017 171.934 C 1306.998 173.754, 1312.943 185.968, 1314.857 185.987 C 1315.604 185.994, 1315.974 186.626, 1315.679 187.394 C 1314.957 189.277, 1318.947 192.860, 1323.109 194.066 C 1327.252 195.266, 1333.553 203.473, 1334.575 209 C 1334.727 209.825, 1336.779 212.075, 1339.134 214 C 1343.958 217.942, 1348.766 222.627, 1351 225.561 C 1351.825 226.644, 1354.412 229.836, 1356.750 232.654 C 1359.088 235.472, 1361 238.169, 1361 238.648 C 1361 239.127, 1361.885 240.072, 1362.967 240.747 C 1364.481 241.693, 1365.575 241.709, 1367.717 240.816 C 1369.248 240.178, 1374.193 239.371, 1378.707 239.022 C 1384.569 238.569, 1387.488 237.869, 1388.922 236.571 C 1390.276 235.345, 1391.837 234.929, 1393.715 235.292 C 1396.743 235.878, 1407.027 233.573, 1407.937 232.104 C 1408.247 231.605, 1410.735 230.861, 1413.466 230.452 C 1416.197 230.043, 1419.797 228.876, 1421.466 227.858 C 1423.135 226.840, 1425.922 226.006, 1427.661 226.004 C 1429.399 226.002, 1433.674 225.106, 1437.161 224.013 C 1440.647 222.920, 1445.188 222.020, 1447.250 222.013 C 1449.653 222.005, 1451.718 221.282, 1453 220 C 1454.100 218.900, 1456.143 218, 1457.541 218 C 1463.546 218, 1478.863 207.114, 1477.723 203.656 C 1477.513 203.020, 1476.368 202.010, 1475.177 201.411 C 1473.986 200.812, 1473.324 200.010, 1473.704 199.629 C 1474.085 199.248, 1471.945 199.011, 1468.949 199.102 C 1461.857 199.317, 1446.265 195.208, 1437.764 190.883 C 1436.809 190.397, 1434.624 190, 1432.909 190 C 1428.396 190, 1409.599 186.319, 1401.911 183.929 C 1398.123 182.751, 1394.263 182.147, 1392.828 182.507 C 1391.378 182.871, 1387.854 182.302, 1384.416 181.148 C 1381.162 180.056, 1375.077 178.689, 1370.894 178.111 C 1366.711 177.533, 1362.145 176.625, 1360.747 176.094 C 1359.349 175.563, 1357.965 175.369, 1357.670 175.664 C 1357.375 175.958, 1355.490 175.657, 1353.480 174.993 C 1351.470 174.330, 1347.094 173.826, 1343.756 173.873 C 1340.417 173.920, 1333.973 173.045, 1329.436 171.928 C 1319.992 169.603, 1309.320 169.606, 1308.017 171.934 M 564.771 316.055 C 563.820 316.617, 556.620 317.492, 548.771 318 C 540.922 318.509, 532.700 319.374, 530.500 319.924 C 528.300 320.473, 522 321.234, 516.500 321.614 C 511 321.994, 505.580 322.902, 504.455 323.633 C 503.213 324.440, 498.473 325.097, 492.393 325.306 C 486.884 325.495, 481.856 325.971, 481.220 326.364 C 480.583 326.758, 477.354 327.252, 474.044 327.463 C 470.101 327.714, 467.048 328.542, 465.190 329.865 C 463.630 330.976, 459.912 332.157, 456.927 332.491 C 442.382 334.118, 430.946 336.475, 427.500 338.558 C 424.164 340.574, 409.814 341.244, 404.833 339.617 C 402.450 338.838, 398.256 337.887, 395.513 337.504 C 392.770 337.120, 389.395 336.231, 388.013 335.529 C 386.631 334.826, 381.675 333.915, 377 333.505 C 364.931 332.446, 337.785 332.949, 336.194 334.261 C 335.475 334.853, 332.247 335.476, 329.020 335.643 C 323.832 335.913, 318.505 337.876, 314.500 340.991 C 313.950 341.419, 312.018 342.086, 310.206 342.474 C 308.395 342.861, 305.718 344.375, 304.257 345.839 C 302.797 347.303, 300.846 348.950, 299.921 349.500 C 293.374 353.396, 287.109 359.227, 286.502 361.992 C 286.133 363.673, 284.814 366.275, 283.571 367.774 C 282.328 369.273, 280.492 372.750, 279.491 375.500 C 278.490 378.250, 276.620 381.932, 275.336 383.683 C 274.051 385.434, 273 387.285, 273 387.796 C 273 388.307, 271.700 390.360, 270.112 392.359 C 266.895 396.407, 265.541 401.635, 266.537 406.168 C 267.120 408.821, 267.502 409.091, 269.848 408.506 C 271.307 408.142, 274.750 406.687, 277.500 405.273 C 280.250 403.859, 283.509 402.207, 284.742 401.601 C 285.975 400.995, 286.988 400.163, 286.992 399.750 C 286.996 399.337, 287.868 399, 288.929 399 C 289.989 399, 291.549 398.309, 292.394 397.464 C 293.239 396.619, 295.490 395.275, 297.397 394.479 C 299.303 393.682, 301.121 392.614, 301.435 392.105 C 302.165 390.924, 314.719 384, 316.130 384 C 316.714 384, 318.437 383.113, 319.959 382.030 C 321.480 380.946, 323.010 380.343, 323.357 380.690 C 323.704 381.037, 324.830 380.559, 325.860 379.627 C 328.864 376.909, 335.933 377.265, 340.627 380.372 C 342.804 381.813, 347.266 383.483, 350.543 384.083 C 353.819 384.684, 357.210 385.811, 358.079 386.588 C 358.947 387.364, 360.047 388, 360.522 388 C 360.998 388, 365.237 389.179, 369.943 390.621 C 382.436 394.447, 382.187 393.928, 381.639 415 C 381.030 438.402, 379.998 441.659, 371.590 446.703 C 368.241 448.713, 364.228 451.402, 362.673 452.679 C 361.119 453.955, 358.864 455, 357.664 455 C 356.463 455, 354.896 455.937, 354.180 457.083 C 353.465 458.228, 350.803 460.084, 348.265 461.207 C 345.726 462.330, 342.744 464.093, 341.636 465.124 C 340.529 466.156, 339.102 467, 338.466 467 C 337.830 467, 336.495 467.900, 335.500 469 C 334.505 470.100, 332.854 471, 331.831 471 C 330.809 471, 329.191 471.402, 328.236 471.892 C 327.281 472.383, 325.207 473.299, 323.626 473.927 C 320.892 475.014, 320.776 475.312, 321.231 480.057 C 321.495 482.800, 321.974 485.308, 322.296 485.630 C 322.619 485.952, 328.523 485.492, 335.418 484.608 C 342.312 483.724, 349.704 483, 351.845 483 C 357.193 483, 373.282 480.118, 374.448 478.952 C 374.972 478.428, 376.238 478, 377.262 478 C 380.075 478, 389.170 474.904, 392 472.983 C 394.394 471.358, 400.213 468.020, 408.250 463.662 C 410.313 462.544, 412 461.278, 412 460.849 C 412 460.420, 415.825 456.148, 420.500 451.355 C 425.175 446.563, 429 442.203, 429 441.667 C 429 441.131, 430.824 439.131, 433.052 437.223 C 435.281 435.315, 439.336 430.547, 442.064 426.627 C 450.965 413.836, 453.395 411.225, 461.262 405.997 C 466.835 402.294, 472.115 399.862, 479.981 397.374 C 486.007 395.469, 491.203 393.480, 491.528 392.955 C 491.852 392.430, 494.090 392, 496.500 392 C 498.910 392, 501.119 391.616, 501.409 391.148 C 501.698 390.679, 504.987 390.038, 508.718 389.724 C 512.448 389.409, 518.875 388.165, 523 386.957 C 527.125 385.750, 532.750 384.408, 535.500 383.974 C 538.250 383.540, 543.425 382.703, 547 382.113 C 550.575 381.523, 556.303 381.031, 559.730 381.020 C 563.156 381.009, 567.656 380.348, 569.730 379.552 C 571.803 378.755, 577.325 377.880, 582 377.608 C 586.675 377.335, 595.675 376.663, 602 376.115 C 608.325 375.567, 618.781 374.856, 625.235 374.536 C 631.689 374.217, 640.239 373.545, 644.235 373.044 C 648.231 372.544, 662.075 372.094, 675 372.045 C 687.925 371.997, 704.800 371.546, 712.500 371.044 C 728.504 370, 788.237 370.310, 792 371.456 C 793.375 371.875, 799 372.582, 804.500 373.028 C 810 373.473, 817.875 374.385, 822 375.054 C 826.125 375.723, 831.750 376.209, 834.500 376.133 C 837.250 376.057, 841.859 375.999, 844.743 376.005 C 848.655 376.011, 850.492 375.508, 851.979 374.021 C 853.970 372.030, 853.970 372.026, 851.736 370.664 C 845.807 367.049, 841.765 365, 840.561 365 C 839.833 365, 837.946 363.697, 836.369 362.104 C 834.791 360.511, 831.250 358.476, 828.500 357.581 C 822.800 355.727, 822.217 355.488, 812 350.817 C 803.552 346.955, 796.841 344.431, 789.500 342.356 C 779.187 339.441, 767.463 335.626, 766.423 334.848 C 765.830 334.405, 762.056 333.575, 758.037 333.005 C 754.017 332.435, 748.502 330.851, 745.782 329.484 C 743.061 328.118, 739.494 327, 737.855 327 C 734.679 327, 704.069 322.161, 702.978 321.486 C 701.030 320.283, 686.109 317.938, 677.467 317.478 C 641.237 315.547, 628.948 315.174, 599.500 315.108 C 578.713 315.062, 565.860 315.412, 564.771 316.055 M 1716.707 378.057 C 1708.022 378.462, 1699.468 379.065, 1697.700 379.396 C 1695.932 379.728, 1693.060 379.591, 1691.319 379.091 C 1689.157 378.471, 1686.968 378.591, 1684.418 379.467 C 1681.825 380.358, 1679.657 380.468, 1677.328 379.825 C 1675.483 379.315, 1673.567 379.150, 1673.070 379.456 C 1672.574 379.763, 1671.062 379.594, 1669.709 379.080 C 1667.775 378.344, 1666.531 378.630, 1663.875 380.421 C 1661.221 382.211, 1658.472 382.842, 1651 383.381 C 1645.775 383.758, 1639.925 384.276, 1638 384.534 C 1636.075 384.791, 1630.900 385.256, 1626.500 385.566 C 1622.100 385.877, 1615.268 386.972, 1611.319 387.998 C 1607.369 389.025, 1600.930 390.181, 1597.009 390.568 C 1592.007 391.061, 1588.838 391.978, 1586.384 393.644 C 1582.417 396.335, 1574.627 398.374, 1571.401 397.565 C 1570.080 397.233, 1568.259 397.795, 1566.713 399.011 C 1564.781 400.531, 1562.658 401, 1557.715 401 C 1553.184 401, 1550.872 401.450, 1550 402.500 C 1549.315 403.325, 1547.833 404, 1546.706 404 C 1545.579 404, 1543.939 404.650, 1543.062 405.444 C 1542.184 406.239, 1539.223 407.010, 1536.483 407.159 C 1533.742 407.307, 1530.612 408.007, 1529.527 408.714 C 1528.443 409.421, 1526.620 410, 1525.477 410 C 1524.335 410, 1522.972 410.403, 1522.450 410.895 C 1521.927 411.387, 1518.480 411.970, 1514.788 412.190 C 1507.595 412.619, 1505.938 413.338, 1507.817 415.217 C 1508.468 415.868, 1509 417.210, 1509 418.200 C 1509 419.763, 1509.928 420, 1516.050 420 C 1520.512 420, 1524.218 420.579, 1526.147 421.576 C 1528.548 422.818, 1530.785 423.003, 1536.680 422.451 C 1541.311 422.017, 1544.990 422.147, 1546.332 422.792 C 1551.395 425.228, 1554.958 425.850, 1558.394 424.902 C 1562.325 423.816, 1564.540 424.082, 1571.582 426.484 C 1574.287 427.407, 1579.200 428.307, 1582.500 428.484 C 1600.852 429.466, 1608.886 430.392, 1612.500 431.941 C 1615.594 433.266, 1619.984 433.708, 1631.880 433.893 C 1644.029 434.081, 1648.238 434.517, 1651.918 435.968 C 1655.774 437.488, 1657.496 437.637, 1661.916 436.833 C 1665.547 436.174, 1668.094 436.203, 1669.878 436.926 C 1676.009 439.411, 1692.223 441.482, 1703.300 441.196 C 1707.650 441.083, 1710.893 441.519, 1712.300 442.406 C 1713.604 443.227, 1718.981 444.070, 1725.500 444.475 C 1744.604 445.661, 1746.879 445.894, 1754.272 447.417 C 1758.248 448.236, 1766.225 449.159, 1772 449.469 C 1777.775 449.778, 1784.075 450.259, 1786 450.537 C 1787.925 450.816, 1797.375 451.717, 1807 452.539 C 1816.625 453.361, 1828.976 454.489, 1834.447 455.046 C 1839.917 455.603, 1845.992 456.169, 1847.947 456.304 C 1849.901 456.440, 1852.088 456.919, 1852.807 457.370 C 1854.434 458.389, 1871.965 460.269, 1882 460.499 C 1886.125 460.594, 1890.796 461.207, 1892.380 461.861 C 1893.965 462.515, 1901.840 463.287, 1909.880 463.577 C 1926.619 464.182, 1928.079 464.313, 1929.774 465.360 C 1931.853 466.645, 1945.940 467.295, 1947.297 466.168 C 1948.155 465.456, 1950.227 465.555, 1954.019 466.490 C 1966.704 469.616, 1971.082 470.235, 1982 470.445 C 1998.719 470.767, 1999.723 470.866, 2001.196 472.339 C 2002.870 474.013, 2007.862 475.032, 2008.593 473.850 C 2008.892 473.365, 2011.244 473.042, 2013.819 473.132 C 2020.452 473.365, 2022.921 472.414, 2022.259 469.881 C 2021.906 468.533, 2021.475 468.232, 2020.999 469.001 C 2019.941 470.713, 2019.209 470.402, 2016.371 467.029 C 2014.967 465.360, 2013.412 464.245, 2012.917 464.551 C 2012.422 464.857, 2010.325 463.771, 2008.258 462.137 C 2006.156 460.476, 2001.195 458.212, 1997 456.998 C 1992.875 455.805, 1988.825 454.061, 1988 453.123 C 1987.175 452.184, 1984.700 450.835, 1982.500 450.124 C 1980.300 449.413, 1976.592 447.970, 1974.261 446.916 C 1971.929 445.862, 1969.207 445, 1968.211 445 C 1967.215 445, 1965.841 444.441, 1965.158 443.758 C 1964.170 442.770, 1963.736 442.810, 1963.027 443.956 C 1962.320 445.101, 1961.890 444.852, 1960.930 442.746 C 1959.693 440.030, 1956.539 438.170, 1949.500 436.007 C 1947.300 435.330, 1944.535 434.173, 1943.355 433.434 C 1940.673 431.755, 1930.014 427.825, 1928 427.773 C 1927.175 427.752, 1925.825 427.209, 1925 426.566 C 1924.175 425.924, 1921.338 424.854, 1918.695 424.188 C 1916.052 423.523, 1912.633 422.049, 1911.098 420.914 C 1909.563 419.779, 1906.325 418.602, 1903.904 418.297 C 1901.482 417.992, 1898.572 416.902, 1897.437 415.873 C 1896.303 414.845, 1893.297 413.759, 1890.758 413.460 C 1888.220 413.162, 1884.062 411.811, 1881.518 410.459 C 1878.975 409.106, 1876.130 407.998, 1875.197 407.996 C 1874.264 407.994, 1872.006 407.082, 1870.180 405.968 C 1868.354 404.855, 1866.328 404.067, 1865.677 404.216 C 1865.026 404.366, 1863.145 403.543, 1861.497 402.388 C 1858.549 400.323, 1855.180 399.525, 1844.760 398.424 C 1841.867 398.118, 1839.037 397.273, 1838.471 396.545 C 1837.215 394.930, 1827.744 392.196, 1819.132 390.962 C 1815.630 390.460, 1812.211 389.590, 1811.536 389.030 C 1810.860 388.469, 1807.287 387.816, 1803.595 387.579 C 1799.904 387.342, 1796.332 386.691, 1795.659 386.132 C 1792.330 383.370, 1775.433 380.202, 1774.762 382.214 C 1774.617 382.648, 1772.924 382.547, 1770.999 381.988 C 1769.075 381.430, 1766.292 381.234, 1764.814 381.552 C 1763.151 381.910, 1761.184 381.512, 1759.646 380.504 C 1756.568 378.487, 1749.086 378.242, 1747.925 380.121 C 1747.230 381.245, 1746.582 381.184, 1744.187 379.769 C 1742.593 378.828, 1739.987 378.120, 1738.395 378.195 C 1736.803 378.271, 1734.825 378.105, 1734 377.826 C 1733.175 377.548, 1725.393 377.651, 1716.707 378.057 M 286.699 526.101 C 284.609 526.431, 282.365 527.235, 281.714 527.886 C 280.935 528.665, 280.470 533.765, 280.357 542.785 C 280.262 550.328, 280.109 561.675, 280.017 568 C 279.838 580.358, 280.621 587.682, 282.354 589.866 C 283.166 590.890, 284.989 591.072, 289.646 590.595 C 293.060 590.245, 299.114 590.465, 303.098 591.083 C 308.714 591.955, 311.195 591.926, 314.139 590.954 C 316.858 590.057, 318.302 590.006, 319.228 590.774 C 319.994 591.410, 328.661 592.091, 340.510 592.448 C 363.913 593.151, 376.136 593.886, 381 594.882 L 384.500 595.598 384.416 603.049 C 384.370 607.147, 383.975 622.875, 383.538 638 C 383.102 653.125, 382.623 670.900, 382.474 677.500 C 381.663 713.353, 381.043 736.942, 380.359 758 C 379.940 770.925, 379.696 783.469, 379.817 785.875 C 379.938 788.282, 379.658 790.757, 379.194 791.375 C 377.758 793.292, 376.972 858.601, 378.306 865.140 C 378.992 868.499, 379.376 868.826, 383.275 869.372 C 385.599 869.698, 392.225 869.938, 398 869.906 C 403.775 869.873, 419.300 869.883, 432.500 869.928 C 455.177 870.005, 456.733 869.890, 460.732 867.856 C 464.039 866.175, 465.074 865.025, 465.463 862.602 C 465.737 860.896, 466.195 837, 466.480 809.500 C 466.766 782, 467.212 757.025, 467.472 754 C 467.883 749.208, 468.444 736.161, 469.557 705.500 C 469.717 701.100, 470.108 687.375, 470.427 675 C 470.745 662.625, 471.300 646.875, 471.660 640 C 472.020 633.125, 472.207 621.987, 472.077 615.248 C 471.863 604.197, 472.051 602.653, 474.001 599.498 C 475.891 596.440, 476.688 595.989, 480.332 595.913 C 493.402 595.641, 510.653 595.783, 535.500 596.369 C 566.398 597.097, 574.589 596.636, 575.953 594.088 C 576.986 592.157, 578.476 569.590, 578.236 559.500 C 578.008 549.929, 577.055 540.243, 575.901 535.781 L 574.940 532.062 568.220 532.212 C 560.961 532.374, 515.175 531.148, 500.500 530.398 C 495.550 530.145, 484.075 529.767, 475 529.559 C 465.925 529.351, 446.800 528.851, 432.500 528.447 C 418.200 528.043, 400.200 527.618, 392.500 527.502 C 384.800 527.386, 367.475 526.939, 354 526.509 C 322.868 525.514, 291.607 525.325, 286.699 526.101 M 609.566 532.768 C 609.173 533.160, 605.180 533.485, 600.693 533.490 C 592.822 533.500, 592.487 533.596, 591.238 536.195 C 590.331 538.083, 589.791 546.471, 589.435 564.195 C 589.156 578.113, 588.734 596.700, 588.498 605.500 C 587.182 654.505, 586.873 669.452, 586.343 709.689 C 585.824 749.054, 585.949 754.839, 587.490 762.689 C 588.442 767.535, 590.071 773.388, 591.110 775.695 C 592.150 778.002, 593.003 780.477, 593.006 781.195 C 593.010 781.913, 593.687 783.793, 594.511 785.373 C 595.335 786.953, 596.689 790.869, 597.519 794.075 C 598.350 797.280, 600.758 802.513, 602.870 805.702 C 604.982 808.891, 607.407 812.850, 608.260 814.500 C 609.112 816.150, 611.027 818.625, 612.515 820 C 614.003 821.375, 616.726 824.841, 618.567 827.702 C 620.408 830.563, 623.171 833.570, 624.707 834.383 C 626.243 835.196, 629.525 837.809, 632 840.189 C 634.475 842.570, 638.525 845.389, 641 846.454 C 646.278 848.727, 650.341 851.363, 654.500 855.213 C 656.228 856.814, 658.641 857.993, 660.191 857.995 C 661.671 857.998, 663.177 858.478, 663.538 859.062 C 664.395 860.448, 668.437 862.040, 673.801 863.105 C 676.166 863.574, 678.786 864.643, 679.622 865.479 C 680.459 866.316, 682.805 867, 684.836 867 C 686.868 867, 690.297 867.947, 692.456 869.105 C 695.661 870.822, 698.539 871.272, 708.108 871.552 C 714.557 871.741, 722.234 872.580, 725.167 873.417 C 734.308 876.025, 760.091 875.617, 763.667 872.809 C 764.310 872.305, 768.135 871.868, 772.167 871.840 C 776.696 871.807, 781.673 871.042, 785.184 869.839 C 788.309 868.767, 791.909 867.788, 793.184 867.663 C 794.458 867.537, 796.940 866.662, 798.700 865.718 C 800.461 864.773, 802.486 864.001, 803.200 864.003 C 803.915 864.004, 806.300 863.140, 808.500 862.082 C 810.700 861.024, 816.434 858.285, 821.242 855.996 C 826.050 853.708, 830.217 851.459, 830.501 850.999 C 830.785 850.539, 833.916 848.542, 837.458 846.561 C 841 844.580, 844.483 842.339, 845.199 841.582 C 845.915 840.824, 850.569 835.988, 855.542 830.836 C 860.515 825.684, 866.485 819.062, 868.810 816.121 C 873.509 810.177, 879.983 799.547, 880.031 797.696 C 880.049 797.038, 881.434 793.800, 883.111 790.500 C 887.430 781.998, 890 774.306, 890 769.881 C 890 767.788, 890.858 763.696, 891.907 760.788 C 894.083 754.751, 894.768 746.167, 895.439 716.500 C 896.151 685.062, 897.167 608.652, 897.344 573.298 C 897.495 543.160, 897.432 542.046, 895.500 540.621 C 892.723 538.575, 877.841 537.409, 874.126 538.948 C 871.810 539.907, 870.179 539.817, 865.563 538.475 C 862.427 537.564, 858.880 537.057, 857.681 537.348 C 856.481 537.640, 847.850 537.955, 838.500 538.049 C 820.506 538.229, 815.106 539.092, 814.834 541.828 C 814.550 544.675, 814.249 559.864, 813.590 604.500 C 813.241 628.150, 812.793 655.150, 812.595 664.500 C 812.396 673.850, 811.922 697.025, 811.541 716 L 810.848 750.500 807.329 762.500 C 804.761 771.255, 803.040 775.311, 800.964 777.500 C 799.399 779.150, 795.982 782.973, 793.371 785.995 C 790.761 789.017, 787.022 792.622, 785.062 794.006 C 781.294 796.668, 771.985 800.740, 767.922 801.503 C 766.590 801.754, 764.600 802.355, 763.500 802.841 C 757.790 805.360, 753.433 805.840, 738.876 805.554 C 723.317 805.248, 723.217 805.231, 714.876 801.541 C 710.269 799.502, 705.600 797.574, 704.500 797.256 C 701.158 796.290, 691.433 789.310, 689.662 786.607 C 688.747 785.210, 686.546 782.414, 684.772 780.393 C 682.997 778.371, 679.832 772.626, 677.738 767.624 C 672.411 754.902, 671.847 747.474, 672.437 697.844 C 672.900 658.852, 673.155 648.236, 674.597 608 C 676.191 563.494, 676.647 543.345, 676.100 541.496 C 675.770 540.379, 674.811 538.501, 673.969 537.323 C 672.084 534.685, 667.071 534.222, 634.954 533.721 C 622.553 533.528, 611.928 533.074, 611.343 532.712 C 610.758 532.350, 609.958 532.375, 609.566 532.768 M 927.017 541.706 C 925.139 544.094, 924.536 546.335, 924.788 550 C 925.185 555.780, 925.129 580.577, 924.668 602.500 C 923.588 653.983, 922.631 735.421, 922.553 782.500 C 922.510 808.900, 922.077 838.383, 921.592 848.018 C 920.809 863.547, 920.898 865.903, 922.380 868.768 C 923.299 870.546, 924.602 872.027, 925.276 872.061 C 929.284 872.259, 946.496 872.067, 952 871.763 C 955.575 871.566, 962.522 871.902, 967.438 872.509 C 976.401 873.617, 982.826 873.222, 990.750 871.075 C 994.857 869.962, 995.005 869.782, 995.145 865.711 C 995.225 863.395, 995.384 859.925, 995.499 858 C 995.614 856.075, 995.742 840.325, 995.784 823 C 995.826 805.675, 995.895 790.825, 995.937 790 C 995.979 789.175, 996.236 776.125, 996.508 761 C 996.916 738.283, 997.808 702.520, 998.066 698.500 C 998.101 697.950, 997.807 691.987, 997.412 685.250 L 996.695 673 999.307 673 C 1002.285 673, 1008.857 678.889, 1011.429 683.862 C 1012.945 686.793, 1015.850 690.149, 1028.750 703.867 C 1031.638 706.938, 1034 709.851, 1034 710.341 C 1034 711.690, 1041.152 721.227, 1043.868 723.500 C 1049.279 728.028, 1056.294 736.072, 1059 740.851 C 1059.825 742.308, 1060.950 743.798, 1061.500 744.163 C 1062.050 744.527, 1066.325 749.673, 1071 755.599 C 1075.675 761.525, 1083.472 770.502, 1088.327 775.549 C 1093.182 780.595, 1098.067 786.249, 1099.183 788.112 C 1100.299 789.975, 1103.158 793.413, 1105.537 795.750 C 1107.916 798.087, 1109.682 800, 1109.462 800 C 1108.021 800, 1119.392 814.170, 1128.165 823.308 C 1130.730 825.981, 1133.732 829.367, 1134.837 830.834 C 1135.941 832.300, 1138.907 836.265, 1141.428 839.645 C 1143.949 843.025, 1146.665 846.041, 1147.463 846.348 C 1148.262 846.654, 1150.077 848.746, 1151.498 850.996 C 1154.813 856.249, 1169.722 871.290, 1170.895 870.565 C 1171.386 870.262, 1173.523 870.773, 1175.644 871.701 C 1178.796 873.080, 1183.331 873.428, 1200.500 873.607 C 1212.050 873.728, 1222.745 873.603, 1224.267 873.330 C 1228.706 872.534, 1230.230 868.259, 1230.613 855.528 C 1231.846 814.527, 1232.702 727.589, 1231.977 717 C 1231.780 714.119, 1232.913 593.130, 1233.381 567.048 C 1233.665 551.221, 1233.513 549.290, 1231.748 546.298 C 1229.888 543.146, 1229.531 542.998, 1223.651 542.956 C 1220.268 542.932, 1205.278 542.701, 1190.339 542.444 L 1163.178 541.976 1161.093 545.349 C 1159.236 548.354, 1158.994 550.402, 1158.871 564.111 C 1158.647 589.192, 1158.641 591.888, 1158.725 630.500 C 1158.770 650.850, 1158.512 675.836, 1158.153 686.025 C 1157.794 696.214, 1157.805 707.239, 1158.178 710.525 C 1160.454 730.582, 1160.061 741, 1157.028 741 C 1154.916 741, 1147.607 733.337, 1145.769 729.195 C 1143.742 724.630, 1139.550 719.869, 1134.328 716.202 C 1132.584 714.977, 1129.743 711.678, 1128.016 708.872 C 1126.289 706.065, 1122.715 701.683, 1120.074 699.134 C 1117.433 696.585, 1114.524 693.038, 1113.610 691.250 C 1112.696 689.462, 1111.547 688, 1111.056 688 C 1110.565 688, 1109.139 686.313, 1107.887 684.250 C 1106.635 682.188, 1103.190 678.275, 1100.231 675.556 C 1097.272 672.837, 1094.254 669.462, 1093.525 668.056 C 1092.796 666.650, 1089.435 662.575, 1086.057 659 C 1082.679 655.425, 1078.501 650.475, 1076.773 648 C 1072.710 642.181, 1066.771 635.099, 1060.498 628.593 C 1057.747 625.740, 1054.772 622.302, 1053.886 620.953 C 1053.001 619.604, 1047.916 613.550, 1042.586 607.500 C 1037.256 601.450, 1032.052 594.925, 1031.020 593 C 1029.989 591.075, 1026.975 587.414, 1024.322 584.864 C 1021.670 582.314, 1017.475 576.919, 1015 572.874 C 1012.525 568.830, 1008.588 563.491, 1006.250 561.010 C 1003.913 558.530, 999.638 553.982, 996.750 550.904 C 987.395 540.932, 984.891 540.276, 953.767 539.644 L 929.033 539.142 927.017 541.706 M 1862.984 543.862 C 1859.999 546.847, 1859.922 547.157, 1860.067 555.714 C 1860.155 560.942, 1859.709 565.597, 1858.966 567.208 C 1858.006 569.290, 1857.977 570.910, 1858.842 574.208 C 1859.650 577.289, 1859.849 602.352, 1859.546 663 C 1859.314 709.475, 1859.185 752.225, 1859.258 758 C 1859.331 763.775, 1859.321 772.550, 1859.236 777.500 C 1858.718 807.704, 1858.910 874.046, 1859.519 875.031 C 1859.918 875.676, 1861.877 876.895, 1863.872 877.741 C 1866.858 879.005, 1874.136 879.344, 1905 879.658 C 1925.625 879.867, 1951.725 880.211, 1963 880.422 C 1974.275 880.634, 1987.550 880.781, 1992.500 880.750 C 1997.450 880.719, 2002.400 880.779, 2003.500 880.883 C 2004.600 880.986, 2018.550 881.299, 2034.500 881.577 C 2085.194 882.463, 2084.718 882.508, 2086.797 876.601 C 2087.740 873.924, 2088.307 849.565, 2087.945 827.351 C 2087.742 814.943, 2089.512 815.185, 2007.866 816.392 C 1963.500 817.047, 1950.170 816.570, 1947.844 814.244 C 1947.398 813.798, 1947.026 811.873, 1947.017 809.966 C 1946.990 804.147, 1947.072 765.214, 1947.138 753 C 1947.172 746.675, 1947.373 732.275, 1947.585 721 C 1948.076 694.829, 1948.077 695.578, 1947.527 682 C 1946.660 660.593, 1946.630 650.604, 1947.275 597.714 C 1947.854 550.291, 1947.758 544.740, 1946.328 543.070 C 1944.845 541.338, 1943.396 541.249, 1925.118 541.772 C 1914.328 542.080, 1904.150 542.215, 1902.500 542.072 C 1899.080 541.776, 1895.723 541.743, 1881.079 541.865 C 1875.347 541.913, 1869.621 541.692, 1868.354 541.374 C 1866.648 540.946, 1865.254 541.592, 1862.984 543.862 M 1811.683 542.650 C 1811.151 543.182, 1805.959 543.542, 1791.500 544.050 C 1790.950 544.069, 1774.075 544.060, 1754 544.030 C 1733.925 544, 1692.010 544.093, 1660.856 544.237 C 1606.844 544.488, 1604.114 544.588, 1602.115 546.397 C 1600.124 548.198, 1600.009 549.358, 1599.839 569.397 C 1599.741 581.004, 1599.694 594.325, 1599.735 599 C 1599.776 603.675, 1599.794 626.175, 1599.774 649 C 1599.754 671.825, 1599.748 691.400, 1599.759 692.500 C 1600.103 725.017, 1600.046 761.569, 1599.573 811.588 C 1598.893 883.496, 1597.809 876.703, 1610 876.962 C 1621.674 877.211, 1710.769 877.795, 1737.500 877.799 C 1750.700 877.801, 1761.950 877.846, 1762.500 877.900 C 1763.050 877.954, 1777.675 878.210, 1795 878.469 C 1824.871 878.915, 1831.127 878.528, 1834.169 876.046 C 1835.287 875.133, 1837.036 853.693, 1836.234 850.738 C 1835.821 849.220, 1835.781 843.179, 1836.144 837.314 C 1836.769 827.237, 1836.675 826.446, 1834.443 822.910 C 1833.144 820.852, 1831.594 818.867, 1831 818.500 C 1830.405 818.132, 1803.949 817.637, 1772.209 817.399 C 1695.024 816.820, 1689.198 816.627, 1687.143 814.572 C 1685.758 813.189, 1685.501 810.462, 1685.504 797.215 C 1685.512 766.859, 1686.162 743.565, 1687.049 741.908 C 1687.542 740.988, 1689.420 739.886, 1691.222 739.459 C 1696.546 738.198, 1775.886 737.895, 1780.610 739.118 C 1785.839 740.471, 1795.779 737.928, 1799.107 734.386 C 1801.275 732.078, 1801.360 731.247, 1801.614 709.749 C 1801.767 696.850, 1801.464 686.420, 1800.892 684.931 C 1799.342 680.887, 1792.335 678.918, 1777.478 678.350 C 1770.531 678.084, 1764.333 678.279, 1763.682 678.783 C 1762.177 679.949, 1741.266 680.504, 1714.500 680.088 C 1707.350 679.977, 1698.636 679.935, 1695.136 679.995 C 1684.873 680.170, 1685.497 682.595, 1685.518 642.603 C 1685.532 617.299, 1685.854 607.746, 1686.724 606.876 C 1687.532 606.068, 1693.757 605.600, 1706.206 605.410 C 1716.268 605.257, 1736.875 604.876, 1752 604.563 C 1767.125 604.250, 1784 604.095, 1789.500 604.217 C 1822.450 604.951, 1834.430 603.802, 1834.793 599.871 C 1836.035 586.431, 1836.537 575.677, 1836.520 562.856 C 1836.494 542.926, 1836.343 542.674, 1824.977 543.622 C 1819.692 544.063, 1817.062 543.909, 1816.582 543.132 C 1815.823 541.904, 1812.733 541.600, 1811.683 542.650 M 1260.235 544.056 C 1258.990 544.546, 1257.530 546.105, 1256.992 547.521 C 1256.408 549.056, 1256.019 567.328, 1256.027 592.798 C 1256.042 635.416, 1255.474 721.650, 1254.552 816.789 C 1254.285 844.447, 1254.329 868.397, 1254.652 870.009 C 1254.980 871.651, 1256.067 873.204, 1257.123 873.539 C 1259.875 874.412, 1320.095 874.464, 1322.761 873.595 C 1329.158 871.510, 1329.067 873.411, 1330.214 719 L 1330.500 680.500 1333.027 680.205 C 1335.065 679.967, 1336.833 681.325, 1342.146 687.205 C 1345.771 691.217, 1352.845 698.767, 1357.866 703.982 C 1363.884 710.232, 1367.197 714.494, 1367.585 716.482 C 1367.979 718.500, 1369.615 720.572, 1372.524 722.734 C 1374.917 724.513, 1378.120 727.663, 1379.644 729.734 C 1381.167 731.805, 1384.937 736.200, 1388.022 739.500 C 1391.107 742.800, 1394.486 746.962, 1395.531 748.750 C 1396.576 750.538, 1397.743 752, 1398.124 752 C 1398.506 752, 1401.200 755.032, 1404.112 758.737 C 1407.024 762.443, 1410.819 766.830, 1412.546 768.487 C 1414.272 770.144, 1417.443 773.750, 1419.592 776.500 C 1421.742 779.250, 1423.984 781.950, 1424.575 782.500 C 1425.167 783.050, 1427.867 786.171, 1430.575 789.435 C 1433.284 792.699, 1437.002 796.974, 1438.837 798.935 C 1440.673 800.896, 1443.476 804.560, 1445.067 807.078 C 1446.658 809.596, 1449.930 813.449, 1452.337 815.640 C 1454.745 817.831, 1458.156 821.621, 1459.918 824.062 C 1461.679 826.503, 1465.118 830.592, 1467.560 833.149 C 1470.002 835.706, 1472 838.023, 1472 838.299 C 1472 838.574, 1473.463 840.351, 1475.250 842.246 C 1477.037 844.141, 1480.750 848.837, 1483.500 852.680 C 1486.250 856.523, 1489.950 860.755, 1491.722 862.084 C 1493.495 863.413, 1494.957 865.063, 1494.972 865.750 C 1494.988 866.438, 1495.689 867, 1496.531 867 C 1497.374 867, 1498.311 867.646, 1498.613 868.435 C 1498.916 869.224, 1502.058 871.266, 1505.595 872.972 C 1511.964 876.044, 1512.180 876.073, 1528.323 876.110 C 1537.287 876.131, 1545.144 876.471, 1545.782 876.865 C 1546.420 877.260, 1550.279 877.160, 1554.357 876.643 C 1561.495 875.738, 1561.834 875.572, 1563.434 872.216 C 1564.547 869.882, 1565.110 866.046, 1565.136 860.615 C 1565.157 856.152, 1565.529 823.025, 1565.962 787 C 1566.395 750.975, 1566.427 720.600, 1566.033 719.500 C 1565.639 718.400, 1565.571 713.450, 1565.883 708.500 C 1566.194 703.550, 1566.418 691.625, 1566.379 682 C 1566.341 672.375, 1566.241 650.550, 1566.158 633.500 C 1566.075 616.450, 1566.252 590.888, 1566.553 576.696 C 1566.854 562.503, 1566.821 550.011, 1566.479 548.935 C 1565.296 545.208, 1560.275 543.589, 1550.500 543.783 C 1545.550 543.882, 1531.150 544.120, 1518.500 544.311 C 1505.850 544.503, 1494.713 545.010, 1493.750 545.437 C 1491.731 546.333, 1491.931 535.449, 1491.670 658.571 C 1491.514 732.059, 1491.362 738.779, 1489.821 740.321 C 1488.898 741.244, 1487.718 742, 1487.199 742 C 1485.801 742, 1478 733.264, 1478 731.698 C 1478 730.958, 1475.188 727.624, 1471.750 724.290 C 1461.096 713.958, 1453.530 704.917, 1452.835 701.689 C 1452.465 699.969, 1450.914 697.697, 1449.335 696.563 C 1447.776 695.442, 1445.600 693.466, 1444.500 692.170 C 1443.400 690.875, 1439.463 686.371, 1435.750 682.161 C 1432.037 677.950, 1429 673.942, 1429 673.253 C 1429 672.564, 1428.587 672, 1428.081 672 C 1427.576 672, 1425.663 670.363, 1423.831 668.363 C 1421.999 666.363, 1419.445 663.775, 1418.155 662.613 C 1416.865 661.451, 1415.218 659.375, 1414.494 658 C 1413.771 656.625, 1411.117 653.358, 1408.598 650.741 C 1406.078 648.124, 1402.828 644.186, 1401.375 641.991 C 1399.923 639.796, 1398.406 638, 1398.006 638 C 1397.605 638, 1394.778 634.737, 1391.723 630.750 C 1388.669 626.763, 1385.189 622.375, 1383.989 621 C 1382.790 619.625, 1379.715 615.820, 1377.155 612.545 C 1374.595 609.270, 1371.144 605.220, 1369.486 603.545 C 1367.829 601.870, 1364.390 597.575, 1361.845 594 C 1359.300 590.425, 1356.157 586.532, 1354.859 585.349 C 1353.562 584.165, 1350.700 580.632, 1348.500 577.496 C 1343.602 570.515, 1333.958 559.287, 1326.822 552.257 C 1323.218 548.706, 1320.677 547.012, 1318.950 547.007 C 1317.547 547.003, 1315.963 546.563, 1315.429 546.029 C 1313.587 544.187, 1300.055 543.023, 1281.305 543.094 C 1270.962 543.134, 1261.481 543.566, 1260.235 544.056 M 621.655 919.678 C 621.535 919.798, 616.276 920.020, 609.969 920.172 C 598.743 920.442, 598.408 920.517, 594.173 923.724 C 591.794 925.526, 589.327 927, 588.693 927 C 588.058 927, 585.730 928.913, 583.519 931.250 C 581.309 933.587, 578.247 936.147, 576.716 936.937 C 573.601 938.545, 569.996 943.746, 570.007 946.618 C 570.010 947.653, 568.263 952.550, 566.123 957.500 C 559.498 972.824, 559.219 974.382, 558.535 999.734 C 557.957 1021.144, 558.063 1023.461, 559.888 1029.234 C 561.747 1035.116, 563.369 1041.585, 564.713 1048.476 C 565.032 1050.113, 567.006 1053.938, 569.099 1056.976 C 572.841 1062.406, 581.737 1072.446, 582.904 1072.556 C 585.514 1072.804, 591.035 1074.572, 593.962 1076.097 C 595.910 1077.112, 602.003 1078.877, 607.502 1080.019 C 616.239 1081.833, 618.320 1081.947, 624 1080.920 C 627.575 1080.273, 632.017 1079.127, 633.872 1078.372 C 635.727 1077.617, 638.988 1077, 641.119 1077 C 644.095 1077, 645.865 1076.226, 648.747 1073.663 C 650.811 1071.828, 654.212 1069.182, 656.304 1067.784 C 660.482 1064.992, 664.053 1060.644, 667.212 1054.500 C 668.343 1052.300, 669.565 1050.275, 669.927 1050 C 671.816 1048.567, 676.141 1037.518, 677.561 1030.500 C 679.981 1018.541, 680.572 1011.332, 680.499 994.635 C 680.428 978.505, 678.169 960.454, 675.753 956.715 C 674.965 955.497, 674.031 953.017, 673.676 951.204 C 673.322 949.391, 671.899 946.424, 670.516 944.610 C 669.132 942.795, 668 940.997, 668 940.613 C 668 938.974, 656.123 928.161, 652 926.046 C 649.525 924.777, 646.375 923.167, 645 922.469 C 642.166 921.030, 622.638 918.695, 621.655 919.678 M 240.072 923.384 C 238.932 925.228, 238 927.628, 238 928.719 C 238 929.810, 236.875 932.818, 235.500 935.404 C 234.125 937.990, 233 940.556, 233 941.106 C 233 941.656, 231.875 943.762, 230.500 945.785 C 229.125 947.809, 228 950.845, 228 952.532 C 228 954.219, 227.616 956.027, 227.147 956.550 C 226.679 957.072, 225.725 959.750, 225.028 962.500 C 222.294 973.292, 220.087 979.690, 217.610 984 C 216.188 986.475, 215.019 989.677, 215.012 991.115 C 215.005 992.553, 214.100 994.874, 213 996.273 C 211.900 997.671, 211 999.651, 211 1000.673 C 211 1001.694, 210.169 1004.098, 209.153 1006.015 C 208.138 1007.932, 207.031 1011.565, 206.695 1014.088 C 206.331 1016.816, 204.748 1020.668, 202.791 1023.588 C 200.838 1026.503, 198.930 1031.143, 198.099 1035 C 197.328 1038.575, 195.920 1042.625, 194.971 1044 C 194.021 1045.375, 192.908 1048.525, 192.497 1051 C 192.086 1053.475, 191.131 1056.388, 190.375 1057.473 C 189.619 1058.557, 189 1060.208, 189 1061.140 C 189 1062.073, 187.794 1065.235, 186.321 1068.168 C 184.847 1071.101, 183.332 1075.075, 182.954 1077 C 182.576 1078.925, 182.094 1081.175, 181.883 1082 C 181.624 1083.015, 182.147 1083.416, 183.500 1083.241 C 184.600 1083.098, 191.742 1082.699, 199.372 1082.354 C 213.205 1081.729, 213.253 1081.719, 216.410 1078.614 C 218.776 1076.286, 220.294 1073.102, 222.423 1066 C 223.990 1060.775, 226.167 1055.511, 227.262 1054.302 C 229.204 1052.156, 234.175 1050.373, 236.824 1050.872 C 237.552 1051.009, 238.790 1050.589, 239.574 1049.939 C 241.253 1048.545, 266.772 1047.822, 267.589 1049.145 C 267.880 1049.615, 269.880 1050, 272.033 1050 C 275.358 1050, 276.179 1050.445, 277.474 1052.950 C 278.313 1054.573, 279 1056.543, 279 1057.327 C 279 1058.112, 280.373 1062.155, 282.051 1066.311 C 284.056 1071.277, 285 1075.178, 284.801 1077.684 C 284.569 1080.628, 284.837 1081.426, 285.977 1081.174 C 286.789 1080.995, 294.729 1080.770, 303.622 1080.674 C 317.971 1080.519, 320.027 1080.286, 321.895 1078.595 C 323.882 1076.797, 324.913 1071.010, 323.250 1070.991 C 322.391 1070.982, 319.390 1061.444, 318.374 1055.500 C 317.999 1053.300, 316.186 1047.227, 314.346 1042.004 C 312.506 1036.781, 311 1031.123, 311 1029.432 C 311 1025.980, 308.389 1017.607, 306.306 1014.377 C 305.553 1013.209, 304.511 1009.643, 303.992 1006.451 C 303.472 1003.259, 302.592 1000.366, 302.035 1000.022 C 300.982 999.371, 298.671 988.995, 299.415 988.252 C 299.648 988.019, 298.511 984.868, 296.889 981.252 C 294.946 976.922, 294.017 973.341, 294.169 970.770 C 294.295 968.622, 293.887 966.548, 293.262 966.162 C 291.650 965.166, 290.520 961.620, 289.069 953 C 288.374 948.875, 286.557 941.450, 285.030 936.500 C 283.503 931.550, 281.965 926.269, 281.612 924.765 C 280.919 921.814, 278.210 920.633, 272.643 920.854 C 265.850 921.124, 264.123 921.099, 253.322 920.575 L 242.144 920.032 240.072 923.384 M 334.139 922.149 C 332.486 924.796, 332.275 927.009, 331.442 950.500 C 331.052 961.500, 330.599 972.975, 330.435 976 C 330.271 979.025, 329.944 994.550, 329.708 1010.500 C 329.220 1043.518, 330.141 1053.592, 334.208 1059.738 C 335.587 1061.821, 337.040 1064.552, 337.438 1065.805 C 338.549 1069.305, 345.604 1075.997, 348.210 1076.022 C 349.470 1076.034, 351.625 1076.924, 353 1078 C 354.375 1079.076, 356.708 1079.966, 358.185 1079.978 C 359.661 1079.990, 363.949 1080.648, 367.712 1081.439 C 374.817 1082.934, 376.196 1083.047, 387 1083.019 C 397.203 1082.993, 406.282 1081.170, 414.784 1077.441 C 416.590 1076.648, 418.930 1076, 419.984 1076 C 421.038 1076, 422.260 1075.433, 422.700 1074.741 C 423.140 1074.048, 425.188 1072.361, 427.252 1070.991 C 429.315 1069.621, 431.243 1067.758, 431.537 1066.852 C 431.830 1065.945, 433.800 1063.793, 435.914 1062.070 C 438.640 1059.848, 440.052 1057.711, 440.770 1054.719 C 441.327 1052.398, 442.555 1047.350, 443.499 1043.500 C 444.696 1038.619, 445.337 1030.899, 445.617 1018 C 445.837 1007.825, 446.434 994.775, 446.943 989 C 447.452 983.225, 447.855 972.875, 447.839 966 C 447.812 954.594, 448.841 948, 450.647 948 C 451.029 948, 452.212 948.788, 453.274 949.750 C 454.845 951.173, 457.008 951.488, 464.853 951.437 C 470.159 951.403, 476.482 951.236, 478.905 951.067 C 482.557 950.812, 483.629 951.165, 485.172 953.130 C 486.890 955.317, 486.994 957.047, 486.509 975.500 C 486.220 986.500, 485.756 1000.225, 485.477 1006 C 485.198 1011.775, 484.755 1027.750, 484.493 1041.500 C 484.231 1055.250, 483.744 1068.361, 483.412 1070.636 C 483.052 1073.099, 483.290 1075.673, 484.001 1077.001 C 485.177 1079.199, 485.426 1079.224, 501.270 1078.739 C 514.590 1078.332, 517.550 1077.968, 518.537 1076.618 C 519.882 1074.779, 520.876 1059.288, 520.982 1038.500 C 521.021 1030.800, 521.304 1016.850, 521.610 1007.500 C 521.916 998.150, 522.253 985.100, 522.359 978.500 C 522.566 965.595, 523.682 956.253, 525.254 954.257 C 526.995 952.046, 534.255 950.719, 545.215 950.608 C 559.337 950.466, 559.380 950.424, 559.709 936.436 C 559.960 925.783, 558.966 921.692, 556.370 922.688 C 555.669 922.957, 554.512 922.813, 553.798 922.367 C 551.343 920.834, 543.023 920.250, 541.047 921.471 C 539.587 922.373, 532.218 922.321, 523.500 921.346 C 520.200 920.977, 515.700 920.729, 513.500 920.795 C 504.242 921.074, 482.347 920.965, 480.500 920.631 C 479.400 920.432, 473.019 920.561, 466.320 920.917 C 456.939 921.415, 453.710 921.952, 452.270 923.256 C 450.508 924.851, 450.303 924.834, 448.710 922.974 C 447.284 921.309, 445.572 920.965, 437.760 920.776 C 424.950 920.467, 418.077 920.590, 417.530 921.137 C 417.275 921.392, 416.800 932.153, 416.476 945.050 C 416.151 957.948, 415.687 970.750, 415.444 973.500 C 415.201 976.250, 414.515 991.775, 413.919 1008 C 413.322 1024.225, 412.650 1038.463, 412.426 1039.640 C 412.201 1040.817, 409.817 1044.027, 407.127 1046.774 C 401.720 1052.296, 398.756 1053.246, 387.178 1053.166 C 381.401 1053.126, 380.467 1052.804, 376.355 1049.435 C 371.636 1045.568, 370.711 1043.907, 368.385 1035.129 C 366.919 1029.594, 366.975 1016.085, 368.678 965 C 369.522 939.654, 369.331 922.931, 368.184 921.784 C 367.705 921.305, 360.130 920.741, 351.351 920.530 C 336.248 920.168, 335.322 920.255, 334.139 922.149 M 776.500 921.451 C 768.646 923.039, 763.655 925.698, 755.333 932.728 C 745.949 940.655, 743.001 943.774, 742.993 945.784 C 742.986 947.588, 739.029 954.229, 738.991 952.500 C 738.937 950.029, 737.029 954.824, 737.015 957.465 C 737.007 959.096, 735.317 965.171, 733.261 970.965 L 729.522 981.500 729.589 1000.500 C 729.646 1016.722, 729.991 1020.889, 731.947 1029 C 737.386 1051.547, 739.455 1055.772, 750.173 1066.216 C 757.181 1073.044, 759.917 1075.066, 762.809 1075.550 C 764.839 1075.891, 768.975 1076.844, 772 1077.669 C 779.564 1079.733, 794.747 1081.022, 799 1079.962 C 817.662 1075.311, 820.233 1074.127, 828.777 1066.250 C 831.312 1063.912, 833.717 1062, 834.120 1062 C 834.524 1062, 835.479 1060.763, 836.243 1059.250 C 838.429 1054.922, 840.395 1051.692, 841.724 1050.243 C 843.131 1048.710, 847 1036.721, 847 1033.895 C 847 1032.853, 847.450 1032, 848 1032 C 848.550 1032, 849 1030.425, 849 1028.500 C 849 1026.575, 848.602 1025, 848.117 1025 C 847.631 1025, 846.998 1024.100, 846.710 1023 C 846.258 1021.271, 845.260 1020.974, 839.344 1020.811 C 835.580 1020.706, 829.364 1020.710, 825.531 1020.819 C 819.265 1020.996, 818.336 1021.292, 816.317 1023.758 C 815.082 1025.266, 814.056 1027.777, 814.036 1029.338 C 814.016 1030.898, 812.421 1034.948, 810.492 1038.338 C 805.923 1046.363, 804.607 1048, 802.723 1048 C 801.867 1048, 800.987 1048.538, 800.768 1049.196 C 800.519 1049.943, 797.481 1050.521, 792.672 1050.737 C 785.537 1051.058, 784.703 1050.879, 781.238 1048.292 C 777.212 1045.285, 774.205 1041.914, 772.311 1038.285 C 767.739 1029.523, 766.510 990.263, 770.298 974 C 773.062 962.137, 774.940 957, 776.515 957 C 777.257 957, 778.855 955.608, 780.066 953.907 C 784.591 947.553, 796.488 945.291, 801.352 949.861 C 802.604 951.037, 804.050 952.013, 804.564 952.029 C 805.079 952.045, 807.494 954.804, 809.930 958.159 C 813.940 963.682, 817 971.497, 817 976.218 C 817 977.198, 817.928 978.928, 819.062 980.062 C 820.953 981.953, 821.923 982.074, 830.812 981.532 C 840.273 980.955, 847.575 979.759, 848.738 978.596 C 849.990 977.343, 849.130 968.987, 847.591 967.448 C 846.716 966.573, 846 964.667, 846 963.212 C 846 961.757, 845.341 958.752, 844.535 956.533 C 843.729 954.315, 842.606 950.657, 842.038 948.405 C 839.740 939.284, 832.338 932.156, 817.078 924.368 L 808.518 920 795.509 920.119 C 788.354 920.185, 779.800 920.784, 776.500 921.451 M 893.021 926.872 C 892.290 929.417, 890.915 934.200, 889.967 937.500 C 889.018 940.800, 887.036 946.650, 885.561 950.500 C 884.086 954.350, 882.194 959.953, 881.356 962.951 C 880.518 965.949, 879.223 968.874, 878.477 969.451 C 877.732 970.028, 876.622 973.328, 876.011 976.784 C 875.400 980.241, 874.036 985.084, 872.980 987.547 C 871.924 990.010, 870.993 992.357, 870.910 992.763 C 870.828 993.168, 870.364 994.542, 869.880 995.815 C 869.396 997.088, 869 998.370, 869 998.664 C 869 998.958, 868.345 1000.616, 867.545 1002.349 C 864.996 1007.868, 862.823 1014.435, 862.868 1016.488 C 862.892 1017.581, 861.865 1020.281, 860.587 1022.488 C 859.308 1024.694, 857.957 1028.593, 857.585 1031.150 C 857.212 1033.708, 856.086 1036.748, 855.082 1037.906 C 854.078 1039.063, 852.958 1042.257, 852.594 1045.002 C 852.230 1047.747, 851.047 1052.057, 849.966 1054.579 C 848.885 1057.102, 848 1059.968, 848 1060.948 C 848 1061.928, 847.158 1063.803, 846.128 1065.115 C 843.833 1068.038, 842.411 1075.585, 843.831 1077.297 C 844.564 1078.179, 848.702 1078.461, 858.539 1078.297 C 870.348 1078.102, 872.412 1077.825, 873.565 1076.285 C 875.907 1073.157, 877.796 1068.719, 880.339 1060.369 C 883.081 1051.367, 885.340 1048, 888.639 1048 C 889.846 1048, 890.983 1047.611, 891.167 1047.135 C 891.624 1045.947, 925.660 1044.920, 928.522 1046.008 C 930.187 1046.641, 931.239 1048.353, 932.324 1052.192 C 933.634 1056.833, 935.241 1064.493, 935.535 1067.500 C 935.937 1071.614, 937.500 1075.203, 939.331 1076.216 C 941.630 1077.487, 968.653 1078.509, 972.855 1077.484 C 974.729 1077.027, 975.077 1076.459, 974.561 1074.705 C 974.205 1073.492, 973.763 1070.925, 973.580 1069 C 973.193 1064.945, 969.658 1051.867, 968.407 1049.863 C 967.939 1049.113, 967.477 1048.050, 967.380 1047.500 C 967.283 1046.950, 965.714 1042, 963.895 1036.500 C 960.555 1026.407, 960.200 1024.909, 959.867 1019.539 C 959.766 1017.911, 958.888 1015.211, 957.915 1013.539 C 956.942 1011.868, 955.856 1008.700, 955.501 1006.500 C 954.827 1002.317, 954.410 1001.064, 951.510 994.500 C 950.539 992.300, 949.633 988.232, 949.499 985.459 C 949.364 982.687, 948.297 978.542, 947.127 976.249 C 945.957 973.956, 945 971.152, 945 970.018 C 945 968.884, 943.665 965.012, 942.033 961.413 C 940.401 957.814, 938.775 953.319, 938.420 951.423 C 938.064 949.528, 937.405 947.750, 936.954 947.472 C 936.503 947.193, 935.623 944.385, 934.999 941.233 C 934.374 938.080, 933.263 934.150, 932.530 932.500 C 931.797 930.850, 931.035 928.603, 930.836 927.508 C 930.175 923.854, 925.762 922.819, 909.582 922.523 L 894.350 922.243 893.021 926.872 M 985.065 924.422 C 984.052 925.642, 983.639 930.704, 983.444 944.280 C 983.301 954.301, 982.908 969.925, 982.571 979 C 981.023 1020.776, 980.461 1070.543, 981.508 1073.202 C 981.876 1074.138, 981.905 1075.345, 981.572 1075.883 C 981.240 1076.421, 981.537 1077.223, 982.234 1077.665 C 983.650 1078.563, 1006.294 1078.165, 1012.500 1077.133 L 1016.500 1076.467 1016.767 1047.516 C 1016.927 1030.209, 1017.431 1018.169, 1018.020 1017.580 C 1019.464 1016.136, 1031.386 1015.601, 1033.764 1016.874 C 1035.934 1018.035, 1038.997 1025.663, 1039.005 1029.928 C 1039.008 1031.343, 1040.119 1034.300, 1041.474 1036.500 C 1042.829 1038.700, 1043.952 1041.417, 1043.969 1042.539 C 1043.986 1043.660, 1044.911 1046.360, 1046.025 1048.539 C 1047.138 1050.717, 1048.505 1054.300, 1049.062 1056.500 C 1049.619 1058.700, 1050.779 1062.300, 1051.638 1064.500 C 1057.014 1078.254, 1057.234 1078.370, 1078 1078.444 L 1093.500 1078.500 1093.799 1075.444 C 1093.988 1073.509, 1092.980 1070.263, 1091.049 1066.593 C 1089.372 1063.405, 1088 1059.936, 1088 1058.885 C 1088 1057.833, 1087.578 1056.191, 1087.061 1055.236 C 1086.545 1054.281, 1084.981 1051.025, 1083.587 1048 C 1082.192 1044.975, 1080.611 1041.825, 1080.073 1041 C 1077.744 1037.428, 1072.178 1021.723, 1071.302 1016.253 C 1070.498 1011.231, 1071.492 1008.938, 1077.465 1002.041 C 1080.509 998.525, 1083 995.283, 1083 994.836 C 1083 994.389, 1083.752 993.144, 1084.672 992.070 C 1085.591 990.996, 1087.132 987.569, 1088.096 984.455 C 1091.119 974.684, 1089.157 954.003, 1084.322 944.670 C 1082.362 940.888, 1070.378 929.779, 1065.558 927.277 C 1059.742 924.258, 1056.005 923.926, 1021.462 923.359 C 989.785 922.839, 986.294 922.940, 985.065 924.422 M 1109.665 925.272 C 1108.180 926.373, 1107.954 931.153, 1107.480 971.500 C 1107.189 996.250, 1106.767 1030.316, 1106.541 1047.203 C 1106.150 1076.384, 1106.221 1077.936, 1107.978 1078.493 C 1108.994 1078.816, 1115.602 1079.050, 1122.663 1079.014 C 1129.723 1078.978, 1136.850 1079.003, 1138.500 1079.070 C 1144.023 1079.293, 1189.876 1079.295, 1198.500 1079.073 C 1205.204 1078.900, 1205.350 1078.599, 1205.146 1065.372 C 1205.045 1058.829, 1204.503 1053.104, 1203.930 1052.532 C 1203.352 1051.956, 1197.952 1051.467, 1191.698 1051.424 C 1155.364 1051.179, 1146.930 1050.764, 1144.929 1049.124 C 1143.203 1047.709, 1142.940 1046.211, 1142.885 1037.500 C 1142.840 1030.430, 1142.384 1026.814, 1141.328 1025.158 C 1139.562 1022.391, 1140.736 1018.536, 1144.390 1015.103 C 1147.053 1012.602, 1150.722 1012.352, 1170.418 1013.334 C 1183.795 1014.001, 1184.463 1013.941, 1187.620 1011.778 C 1191.316 1009.245, 1191.934 1006.734, 1191.505 996 C 1191.143 986.929, 1191.193 987.126, 1189.250 987.105 C 1188.287 987.095, 1183.947 986.670, 1179.604 986.162 C 1175.261 985.653, 1167.161 985.430, 1161.604 985.665 C 1154.990 985.945, 1149.984 985.641, 1147.111 984.785 L 1142.721 983.476 1142.537 970.488 C 1142.435 963.345, 1142.022 956.771, 1141.618 955.879 C 1141.169 954.886, 1141.516 953.627, 1142.514 952.629 C 1144.443 950.700, 1148.308 950.524, 1179.557 950.942 L 1201.614 951.238 1203.383 948.538 C 1204.356 947.053, 1204.865 945.092, 1204.515 944.179 C 1204.165 943.266, 1203.886 939.040, 1203.895 934.786 L 1203.912 927.053 1199.706 925.847 C 1197.388 925.182, 1191.685 924.782, 1187 924.957 C 1182.325 925.131, 1176.925 925.207, 1175 925.125 C 1173.075 925.044, 1157.960 924.767, 1141.411 924.511 C 1118.581 924.157, 1110.922 924.341, 1109.665 925.272 M 1292 924.932 C 1288.425 925.254, 1284.375 926.254, 1283 927.154 C 1281.625 928.055, 1279.375 929.115, 1278 929.511 C 1275.615 930.197, 1267.999 937.625, 1260.347 946.731 C 1255.602 952.375, 1249.201 967.488, 1247.571 976.895 C 1245.102 991.134, 1244.944 1019.733, 1247.288 1028.135 C 1248.111 1031.086, 1249.055 1036.031, 1249.386 1039.124 C 1249.717 1042.217, 1250.663 1046.042, 1251.488 1047.624 C 1252.313 1049.206, 1252.992 1050.950, 1252.996 1051.500 C 1253.001 1052.050, 1254.375 1054.075, 1256.051 1056 C 1257.726 1057.925, 1259.847 1060.737, 1260.764 1062.250 C 1261.681 1063.763, 1263.009 1065, 1263.716 1065 C 1264.422 1065, 1265 1065.450, 1265 1066 C 1265 1066.550, 1265.433 1067, 1265.961 1067 C 1266.490 1067, 1268.628 1068.719, 1270.711 1070.821 C 1273.295 1073.426, 1276.886 1075.513, 1282 1077.383 C 1286.125 1078.891, 1290.310 1080.564, 1291.300 1081.102 C 1292.289 1081.639, 1295.047 1082.443, 1297.427 1082.887 C 1305.705 1084.434, 1331.725 1078.838, 1336.400 1074.505 C 1337.726 1073.277, 1340.165 1071.307, 1341.819 1070.129 C 1346.432 1066.844, 1354.815 1055.599, 1358.086 1048.307 C 1361.618 1040.437, 1364.311 1028.450, 1363.069 1026.130 C 1362.323 1024.736, 1360.066 1024.501, 1347.507 1024.506 L 1332.817 1024.511 1330.426 1027.291 C 1329.111 1028.820, 1327.323 1032.642, 1326.453 1035.785 C 1322.493 1050.091, 1318.304 1053.872, 1306.327 1053.952 C 1300.093 1053.994, 1298.764 1053.672, 1296.179 1051.497 C 1292.157 1048.113, 1287.426 1040.472, 1285.990 1035.041 C 1282.640 1022.374, 1281.801 987.233, 1284.529 973.856 C 1286.671 963.354, 1290.964 956.657, 1298.566 951.959 C 1304.940 948.020, 1314.777 950.180, 1319.242 956.500 C 1326.331 966.532, 1327.247 968.432, 1328.025 974.703 C 1328.460 978.206, 1329.362 981.731, 1330.030 982.536 C 1331.571 984.393, 1355.242 984.643, 1359.051 982.842 C 1361.259 981.798, 1361.527 981, 1361.770 974.719 C 1361.919 970.888, 1361.604 967.228, 1361.071 966.586 C 1360.538 965.944, 1359.608 963.187, 1359.004 960.459 C 1357.773 954.899, 1354.252 947, 1353.006 947 C 1352.557 947, 1351.061 945.087, 1349.680 942.750 C 1348.300 940.413, 1345.669 937.060, 1343.835 935.299 C 1340.310 931.916, 1329.875 926.784, 1324 925.546 C 1319.358 924.567, 1300.158 924.199, 1292 924.932 M 1416.947 925.948 C 1411.321 926.974, 1397.561 932.619, 1395.946 934.565 C 1395.291 935.354, 1394.320 936, 1393.789 936 C 1392.553 936, 1385 943.125, 1385 944.290 C 1385 944.772, 1382.750 948.823, 1380 953.292 C 1377.250 957.760, 1374.993 962.110, 1374.985 962.958 C 1374.977 963.806, 1374.319 966.372, 1373.521 968.660 C 1371.708 973.863, 1371.018 977.155, 1370.408 983.500 C 1370.144 986.250, 1369.674 990.075, 1369.364 992 C 1369.054 993.925, 1368.635 1001.800, 1368.434 1009.500 C 1368.117 1021.607, 1368.344 1024.311, 1370.114 1029.500 C 1371.240 1032.800, 1372.505 1036.175, 1372.926 1037 C 1373.347 1037.825, 1374.266 1040.975, 1374.968 1044 C 1376.304 1049.754, 1379.776 1057, 1381.197 1057 C 1381.653 1057, 1383.235 1059.588, 1384.713 1062.750 C 1386.191 1065.912, 1387.873 1068.800, 1388.450 1069.166 C 1389.028 1069.532, 1390.850 1070.784, 1392.500 1071.947 C 1400.367 1077.495, 1404.669 1079.965, 1406.500 1079.986 C 1407.600 1079.998, 1410.075 1080.987, 1412 1082.184 C 1415.080 1084.099, 1416.750 1084.336, 1425.917 1084.160 C 1431.760 1084.047, 1438.785 1083.265, 1441.917 1082.378 C 1455.026 1078.666, 1459.467 1076.837, 1462.836 1073.761 C 1472.330 1065.089, 1475.741 1060.980, 1478.830 1054.493 C 1480.661 1050.647, 1483.034 1045.818, 1484.103 1043.762 C 1485.365 1041.333, 1486.228 1037.131, 1486.566 1031.762 C 1486.853 1027.218, 1487.778 1021.364, 1488.622 1018.754 C 1489.762 1015.232, 1489.905 1013.170, 1489.177 1010.754 C 1488.638 1008.964, 1488.293 1002.325, 1488.411 996 C 1488.716 979.605, 1485.508 963.076, 1480.577 955.634 C 1479.434 953.910, 1477.876 950.722, 1477.113 948.549 C 1475.596 944.231, 1472.504 941.085, 1469.725 941.033 C 1468.749 941.015, 1467.538 939.915, 1467.034 938.588 C 1465.901 935.609, 1459.060 930.806, 1451.893 927.957 C 1447.643 926.268, 1443.850 925.739, 1434 925.466 C 1427.125 925.274, 1419.451 925.491, 1416.947 925.948 M 1506.940 929.490 C 1506.908 930.045, 1506.476 932.750, 1505.980 935.500 C 1505.199 939.841, 1504.830 963.907, 1505.177 988 C 1505.236 992.125, 1505.283 1002.250, 1505.281 1010.500 C 1505.279 1018.750, 1505.327 1033.974, 1505.388 1044.331 C 1505.492 1061.889, 1505.369 1063.258, 1503.559 1064.581 C 1502.169 1065.597, 1502.027 1066.009, 1503.059 1066.032 C 1504.098 1066.055, 1503.958 1066.473, 1502.559 1067.532 C 1501.491 1068.339, 1501.154 1069, 1501.809 1069 C 1503.329 1069, 1503.373 1071.709, 1501.862 1072.213 C 1499.849 1072.884, 1503.160 1080.106, 1505.993 1081.224 C 1509.318 1082.536, 1529.347 1081.421, 1532.011 1079.775 C 1533.146 1079.074, 1534.395 1077.375, 1534.787 1076 C 1535.420 1073.782, 1535.426 996.210, 1534.795 986.777 C 1534.529 982.805, 1535.387 981.368, 1538.345 980.834 C 1539.817 980.568, 1540.575 981.715, 1542.087 986.500 C 1543.130 989.800, 1544.238 994.975, 1544.548 998 C 1544.858 1001.025, 1545.714 1004.850, 1546.450 1006.500 C 1547.185 1008.150, 1548.043 1011.690, 1548.354 1014.366 C 1548.666 1017.042, 1549.625 1020.304, 1550.484 1021.616 C 1551.343 1022.927, 1551.832 1024, 1551.571 1024 C 1551.310 1024, 1551.744 1026.138, 1552.537 1028.750 C 1553.330 1031.362, 1553.983 1034.760, 1553.989 1036.300 C 1553.995 1037.839, 1554.620 1040.314, 1555.377 1041.800 C 1556.135 1043.285, 1558.417 1051.475, 1560.448 1060 C 1565.477 1081.102, 1565.195 1080.327, 1568.392 1081.859 C 1571.864 1083.523, 1591.308 1082.539, 1592.902 1080.618 C 1593.448 1079.961, 1594.376 1076.405, 1594.965 1072.717 C 1595.554 1069.029, 1598.053 1059.778, 1600.518 1052.159 C 1602.983 1044.540, 1605 1037.096, 1605 1035.618 C 1605 1034.139, 1605.690 1031.877, 1606.533 1030.590 C 1607.376 1029.303, 1608.714 1024.257, 1609.507 1019.375 C 1611.944 1004.374, 1613.086 999.699, 1615.629 994.322 C 1616.975 991.474, 1618.359 986.767, 1618.703 983.862 C 1619.119 980.351, 1620.070 977.839, 1621.541 976.368 C 1624.788 973.121, 1626 975.098, 1626 983.641 C 1626 987.792, 1626.466 991.170, 1627.091 991.556 C 1627.796 991.992, 1628.128 996.522, 1628.029 1004.365 C 1627.620 1036.773, 1628.546 1080.945, 1629.657 1082.057 C 1631.199 1083.599, 1657.454 1083.928, 1658.969 1082.423 C 1660.167 1081.234, 1661.102 939.181, 1659.916 938.448 C 1659.554 938.225, 1658.985 936.675, 1658.651 935.004 C 1658.271 933.107, 1657.191 931.644, 1655.772 931.106 C 1654.522 930.632, 1643.708 930.171, 1631.741 930.081 L 1609.982 929.918 1608.838 932.709 C 1608.209 934.244, 1607.540 936.400, 1607.351 937.500 C 1606.374 943.181, 1604.580 949.800, 1603.366 952.200 C 1602.615 953.686, 1602 955.942, 1602 957.215 C 1602 958.488, 1601.100 961.209, 1600 963.261 C 1598.900 965.314, 1597.980 968.007, 1597.956 969.246 C 1597.900 972.115, 1595.657 980.676, 1594.715 981.618 C 1594.322 982.012, 1594 983.346, 1594 984.584 C 1594 985.821, 1593.100 988.934, 1592 991.500 C 1590.900 994.066, 1590 997.479, 1590 999.083 C 1590 1000.687, 1589.662 1002.005, 1589.250 1002.011 C 1588.838 1002.018, 1587.619 1003.930, 1586.541 1006.261 C 1584.317 1011.077, 1581.376 1014.418, 1580.547 1013.075 C 1580.239 1012.578, 1580.549 1011.984, 1581.235 1011.755 C 1582.142 1011.453, 1582.018 1010.876, 1580.780 1009.637 C 1579.844 1008.702, 1578.811 1006.263, 1578.483 1004.218 C 1578.156 1002.173, 1576.827 997.575, 1575.532 994 C 1574.236 990.425, 1572.413 983.225, 1571.481 978 C 1570.549 972.775, 1569.159 967.285, 1568.393 965.800 C 1567.627 964.314, 1567 962.193, 1567 961.085 C 1567 959.977, 1566.296 956.997, 1565.436 954.463 C 1564.576 951.929, 1563.475 947.417, 1562.990 944.437 C 1562.505 941.457, 1561.074 936.765, 1559.810 934.009 L 1557.512 929 1549.006 928.965 C 1544.328 928.946, 1532.963 928.829, 1523.750 928.705 C 1513.016 928.560, 1506.979 928.842, 1506.940 929.490 M 1691.173 930.811 C 1687.368 931.085, 1686.691 931.507, 1685.555 934.311 C 1684.537 936.825, 1684.294 952.537, 1684.409 1008.586 C 1684.544 1074.389, 1684.685 1079.870, 1686.300 1082.336 L 1688.046 1085 1703.023 1085 C 1711.260 1085, 1718.315 1085, 1718.699 1084.999 C 1719.084 1084.998, 1719.331 1072.633, 1719.249 1057.520 C 1719.117 1033.108, 1719.286 1029.857, 1720.763 1028.380 C 1722.227 1026.916, 1724.152 1026.798, 1736.815 1027.397 C 1744.964 1027.782, 1751.701 1027.687, 1752.351 1027.179 C 1753.528 1026.260, 1756.455 1025.565, 1765.852 1023.977 C 1769.265 1023.399, 1771.991 1022.243, 1773.376 1020.786 C 1774.571 1019.529, 1776.853 1017.600, 1778.449 1016.500 C 1783.508 1013.012, 1787.732 1007.853, 1789.004 1003.609 C 1789.681 1001.349, 1791.040 997.475, 1792.024 995 C 1793.630 990.957, 1794.041 986.554, 1794.310 970.500 C 1794.337 968.850, 1792.549 963.900, 1790.336 959.500 C 1788.124 955.100, 1786.020 950.375, 1785.662 949 C 1785.062 946.697, 1776.698 940, 1774.421 940 C 1773.904 940, 1772.947 939.144, 1772.293 938.098 C 1771.234 936.402, 1764.671 933.592, 1759.397 932.576 C 1754.109 931.558, 1700.186 930.163, 1691.173 930.811 M 1830.497 935.412 C 1829.124 936.786, 1828 938.651, 1828 939.557 C 1828 940.463, 1826.650 945.234, 1825 950.159 C 1823.350 955.084, 1822 960.231, 1822 961.597 C 1822 962.962, 1821.100 965.844, 1820 968 C 1818.900 970.156, 1818 972.838, 1818 973.960 C 1818 975.082, 1817.632 976, 1817.183 976 C 1816.734 976, 1815.308 979.487, 1814.014 983.750 C 1812.720 988.013, 1809.937 995.827, 1807.831 1001.115 C 1805.724 1006.403, 1804 1011.915, 1804 1013.365 C 1804 1014.814, 1803.550 1016, 1803 1016 C 1802.450 1016, 1802 1016.943, 1802 1018.096 C 1802 1019.248, 1801.382 1021.386, 1800.627 1022.846 C 1798.669 1026.632, 1797.262 1031.696, 1796.486 1037.750 C 1796.115 1040.638, 1795.405 1043, 1794.906 1043 C 1794.408 1043, 1794 1043.620, 1794 1044.378 C 1794 1045.135, 1793.349 1046.295, 1792.554 1046.955 C 1791.759 1047.615, 1790.563 1050.707, 1789.896 1053.827 C 1789.229 1056.947, 1788.305 1059.928, 1787.842 1060.450 C 1787.379 1060.973, 1787 1063.579, 1787 1066.242 C 1787 1069.669, 1786.427 1071.699, 1785.039 1073.188 C 1782.762 1075.632, 1781.247 1083.647, 1782.773 1085.173 C 1784.255 1086.655, 1806.889 1087.439, 1810.250 1086.125 C 1811.937 1085.465, 1813 1084.299, 1813 1083.108 C 1813 1082.040, 1813.934 1078.991, 1815.076 1076.333 C 1816.217 1073.675, 1817.920 1068.125, 1818.860 1064 L 1820.568 1056.500 1825.014 1056.181 C 1827.460 1056.006, 1829.920 1055.525, 1830.480 1055.113 C 1831.775 1054.160, 1859.276 1054.426, 1864.185 1055.438 C 1866.211 1055.856, 1868.521 1056.941, 1869.318 1057.849 C 1870.553 1059.256, 1874.106 1069.406, 1874.447 1072.500 C 1874.806 1075.766, 1876.293 1080, 1877.079 1080 C 1877.586 1080, 1878 1081.650, 1878 1083.667 C 1878 1085.683, 1878.284 1087.049, 1878.631 1086.702 C 1878.979 1086.355, 1880.216 1086.582, 1881.381 1087.207 C 1882.547 1087.832, 1886.411 1088.469, 1889.968 1088.623 C 1893.525 1088.776, 1898.925 1089.192, 1901.968 1089.546 C 1907.473 1090.187, 1910.512 1090.351, 1912.589 1090.121 C 1915.041 1089.849, 1915.963 1085.245, 1914.557 1080.293 C 1913.809 1077.657, 1912.903 1073.700, 1912.545 1071.500 C 1912.186 1069.300, 1910.833 1065.250, 1909.538 1062.500 C 1906.886 1056.870, 1901.514 1041.305, 1899.356 1033 C 1898.570 1029.975, 1897.325 1026.375, 1896.589 1025 C 1895.853 1023.625, 1894.940 1020.353, 1894.561 1017.729 C 1894.181 1015.104, 1892.724 1010.379, 1891.322 1007.229 C 1889.920 1004.078, 1888.131 999.362, 1887.348 996.750 C 1886.564 994.138, 1885.539 992, 1885.070 992 C 1883.726 992, 1882.702 987.077, 1882.570 979.977 C 1882.470 974.647, 1881.976 972.817, 1879.869 969.977 C 1877.165 966.331, 1872 951.028, 1872 946.663 C 1872 945.263, 1871.550 943.840, 1871 943.500 C 1870.450 943.160, 1870 942.019, 1870 940.965 C 1870 939.911, 1869.198 937.729, 1868.217 936.117 L 1866.434 933.185 1849.714 933.050 C 1833.136 932.917, 1832.972 932.937, 1830.497 935.412 M 1925.325 936.324 C 1923.230 940.358, 1923.241 940.168, 1923.180 973.500 C 1923.153 988.900, 1923.032 1003.975, 1922.913 1007 C 1922.592 1015.146, 1922.587 1032.062, 1922.904 1035.500 C 1923.056 1037.150, 1922.871 1045.025, 1922.492 1053 C 1921.399 1076.018, 1921.283 1087.840, 1922.137 1089.220 C 1923.224 1090.976, 1947.406 1090.994, 1949.160 1089.240 C 1950.077 1088.323, 1950.445 1075.486, 1950.652 1037.261 C 1950.804 1009.343, 1950.944 986.205, 1950.964 985.844 C 1951.033 984.595, 1955.067 986.256, 1955.943 987.893 C 1956.427 988.797, 1957.141 991.329, 1957.530 993.518 C 1957.930 995.768, 1959.467 998.805, 1961.063 1000.500 C 1964.146 1003.774, 1972 1018.126, 1972 1020.485 C 1972 1021.292, 1972.906 1023.425, 1974.012 1025.226 C 1975.119 1027.027, 1976.485 1030.181, 1977.047 1032.236 C 1977.609 1034.291, 1979.179 1037.169, 1980.535 1038.632 C 1981.891 1040.095, 1983 1041.868, 1983 1042.573 C 1983 1043.278, 1984.518 1047.149, 1986.373 1051.177 C 1988.229 1055.205, 1990.078 1060.075, 1990.483 1062 C 1990.888 1063.925, 1992.282 1066.916, 1993.581 1068.646 C 1994.880 1070.376, 1996.253 1073.729, 1996.631 1076.097 C 1997.321 1080.407, 2002.338 1088.147, 2006.192 1090.847 C 2007.443 1091.723, 2011.979 1092.318, 2019.068 1092.535 C 2025.088 1092.719, 2030.822 1093.126, 2031.809 1093.439 C 2032.797 1093.753, 2034.463 1093.382, 2035.511 1092.616 C 2037.161 1091.409, 2037.453 1089.697, 2037.684 1079.861 C 2038.231 1056.521, 2038.481 969, 2038 968.998 C 2037.725 968.997, 2037.550 967.084, 2037.611 964.748 C 2037.955 951.559, 2037.840 952.078, 2040.568 951.394 C 2042.549 950.896, 2043.501 951.270, 2044.733 953.029 C 2046.937 956.175, 2050.615 962.680, 2053.033 967.709 C 2054.146 970.023, 2055.481 972.179, 2056 972.500 C 2057.054 973.152, 2061 981.673, 2061 983.298 C 2061 983.873, 2061.617 985.053, 2062.371 985.921 C 2063.125 986.790, 2064.721 990.160, 2065.917 993.410 C 2067.113 996.661, 2069.196 1000.633, 2070.546 1002.237 C 2071.896 1003.841, 2073 1005.757, 2073 1006.496 C 2073 1008.222, 2076.267 1013.985, 2077.250 1013.994 C 2077.662 1013.997, 2078 1015.998, 2078 1018.441 C 2078 1020.884, 2078.374 1023.113, 2078.831 1023.395 C 2081 1024.736, 2082.020 1035.627, 2081.885 1056 C 2081.628 1094.562, 2081.562 1093.669, 2084.750 1094.652 C 2086.262 1095.118, 2094.662 1095.500, 2103.416 1095.500 L 2119.333 1095.500 2121.033 1092.500 C 2121.981 1090.828, 2122.415 1088.836, 2122.014 1088 C 2120.819 1085.509, 2121.589 1032.858, 2122.867 1029.685 C 2123.490 1028.137, 2124 1026.310, 2124 1025.626 C 2124 1024.942, 2124.661 1023.509, 2125.468 1022.441 C 2126.276 1021.374, 2126.951 1019.788, 2126.968 1018.918 C 2126.996 1017.527, 2128.984 1013.432, 2137.933 996.335 C 2139.133 994.044, 2141.270 990.922, 2142.683 989.397 C 2144.097 987.872, 2146.726 982.970, 2148.527 978.504 C 2150.327 974.037, 2152.858 968.817, 2154.150 966.903 C 2155.443 964.989, 2157.400 961.533, 2158.500 959.223 C 2159.600 956.913, 2161.047 955.018, 2161.715 955.011 C 2163.458 954.995, 2164.994 951.667, 2165.035 947.816 C 2165.055 945.992, 2165.714 943.375, 2166.500 942 C 2167.286 940.625, 2167.945 939.148, 2167.965 938.718 C 2168.024 937.411, 2163.591 936.157, 2162.372 937.137 C 2161.690 937.684, 2160.146 937.626, 2158.471 936.989 C 2156.523 936.248, 2153.438 936.253, 2148.099 937.005 C 2143.920 937.594, 2138.496 938.172, 2136.047 938.288 C 2131.918 938.485, 2131.454 938.791, 2129.660 942.500 C 2126.393 949.258, 2124.309 955.187, 2123.436 960.214 C 2122.859 963.535, 2120.115 967.565, 2119.924 965.372 C 2119.882 964.893, 2119.320 965.910, 2118.674 967.633 C 2118.028 969.355, 2116.714 971.830, 2115.754 973.133 C 2114.794 974.435, 2112.544 978.425, 2110.754 982 C 2106.690 990.119, 2103.693 991.262, 2102.072 985.312 C 2101.500 983.216, 2099.888 980.178, 2098.488 978.561 C 2097.088 976.945, 2095.040 972.651, 2093.937 969.020 C 2091.835 962.099, 2088.651 956, 2087.140 956 C 2086.650 956, 2085.964 954.538, 2085.614 952.750 C 2085.264 950.962, 2084.005 947.475, 2082.816 945 C 2081.627 942.525, 2080.234 939.540, 2079.721 938.367 C 2078.802 936.268, 2078.359 936.234, 2051.144 936.143 C 2035.940 936.092, 2021.445 935.764, 2018.932 935.414 C 2010.942 934.301, 2011.032 933.971, 2010.790 965.321 C 2010.434 1011.388, 2009.510 1023, 2006.201 1023 C 2005.800 1023, 2004.369 1020.638, 2003.022 1017.750 C 2001.674 1014.862, 1999.992 1012.140, 1999.285 1011.700 C 1998.578 1011.260, 1998 1010.050, 1998 1009.009 C 1998 1007.969, 1997.550 1006.840, 1997 1006.500 C 1996.450 1006.160, 1996 1005.215, 1996 1004.400 C 1996 1003.586, 1995.100 1001.587, 1994 999.960 C 1992.900 998.332, 1991.100 995.668, 1990 994.040 C 1988.900 992.413, 1988 990.325, 1988 989.400 C 1988 987.338, 1983.924 979, 1982.917 979 C 1982.516 979, 1981.867 976.638, 1981.475 973.750 C 1980.750 968.408, 1979.573 965.773, 1973.545 956 C 1971.679 952.975, 1969.870 949.025, 1969.526 947.222 C 1969.181 945.419, 1968.584 944.138, 1968.199 944.374 C 1967.815 944.610, 1967.450 943.460, 1967.389 941.819 C 1967.175 936.048, 1965.068 935.209, 1949 934.502 C 1941.025 934.151, 1932.807 933.703, 1930.737 933.506 C 1927.367 933.185, 1926.803 933.479, 1925.325 936.324 M 615.446 947.850 C 614.317 948.207, 612.742 949.051, 611.946 949.725 C 611.151 950.399, 609.240 951.974, 607.700 953.225 C 599.845 959.608, 595.351 990.406, 597.908 1020.325 C 599.079 1034.034, 599.989 1037.462, 604.226 1044.117 C 607.809 1049.746, 612.392 1051.651, 619.682 1050.543 C 622.332 1050.139, 625.946 1049.734, 627.713 1049.642 C 631.905 1049.423, 632.566 1048.654, 635.629 1040.424 C 639.945 1028.830, 641.545 1019.075, 642.506 998.500 C 643.013 987.657, 642.804 982.696, 641.580 976.500 C 640.711 972.100, 640 967.072, 640 965.327 C 640 963.401, 639.017 960.985, 637.500 959.182 C 636.125 957.548, 635 955.767, 635 955.224 C 635 953.407, 628.256 949.068, 623.854 948.053 C 619.005 946.935, 618.383 946.920, 615.446 947.850 M 1018.701 950.106 C 1017.454 952.052, 1017.198 955.773, 1017.334 970 C 1017.550 992.779, 1017.174 992.161, 1030.619 991.827 C 1039.392 991.610, 1040.983 991.280, 1044.804 988.881 C 1047.171 987.395, 1050.440 984.169, 1052.068 981.711 C 1054.731 977.691, 1055.008 976.519, 1054.834 970.034 C 1054.673 964.044, 1054.163 962.073, 1051.823 958.382 C 1050.273 955.938, 1048.217 953.655, 1047.253 953.307 C 1046.289 952.959, 1044.281 951.830, 1042.790 950.798 C 1040.785 949.409, 1037.501 948.764, 1030.158 948.317 C 1020.477 947.727, 1020.197 947.771, 1018.701 950.106 M 1420.446 954.150 C 1418.782 955.332, 1415.774 959.044, 1413.761 962.400 C 1410.758 967.407, 1409.909 970.074, 1409.019 977.286 C 1406.289 999.408, 1409.859 1044.854, 1414.751 1050.273 C 1415.632 1051.249, 1418.635 1052.684, 1421.426 1053.463 C 1436.423 1057.649, 1443.418 1054.602, 1445.954 1042.778 C 1446.561 1039.950, 1447.432 1037.156, 1447.891 1036.568 C 1448.812 1035.389, 1449.842 1026.539, 1450.748 1012 C 1451.566 998.887, 1451.509 997.265, 1450.013 991 C 1449.291 987.975, 1448.795 982.729, 1448.910 979.341 C 1449.090 974.058, 1448.672 972.389, 1445.965 967.591 C 1444.229 964.516, 1442.451 962, 1442.013 962 C 1441.575 962, 1440.943 960.987, 1440.609 959.750 C 1439.762 956.617, 1431.759 952, 1427.174 952 C 1424.991 952, 1422.230 952.882, 1420.446 954.150 M 1722.696 955.282 C 1720.352 956.050, 1720.300 956.337, 1719.683 972.003 C 1719.274 982.398, 1719.450 989.909, 1720.190 993.591 C 1721.213 998.685, 1721.668 999.381, 1724.841 1000.707 C 1727.344 1001.753, 1731.116 1002.079, 1737.931 1001.838 C 1745.906 1001.556, 1747.840 1001.164, 1749.512 999.491 C 1753.832 995.165, 1755.699 990.489, 1756.424 982.177 C 1757.096 974.473, 1756.972 973.644, 1754.374 968.514 C 1751.216 962.276, 1748.817 959.325, 1744.395 956.238 C 1741.749 954.391, 1740.092 954.102, 1733.186 954.285 C 1728.729 954.403, 1724.008 954.852, 1722.696 955.282 M 255 964.277 C 255 965.225, 254.550 966, 254 966 C 253.450 966, 253 966.585, 253 967.300 C 253 968.015, 252.442 969.158, 251.760 969.840 C 250.451 971.149, 248.553 977.849, 246.898 987 C 246.351 990.025, 245.475 992.650, 244.952 992.833 C 244.428 993.017, 244 994.057, 244 995.145 C 244 996.233, 242.849 999.556, 241.443 1002.529 C 238.990 1007.713, 237.844 1017.178, 239.472 1018.806 C 240.033 1019.366, 243.073 1019.864, 247.500 1020.120 C 250.159 1020.274, 267.491 1018.814, 268.199 1018.377 C 269.084 1017.830, 268.551 1014.871, 266.347 1008.087 C 265.557 1005.656, 265.196 1002.386, 265.542 1000.808 C 265.970 998.858, 265.505 996.662, 264.086 993.940 C 262.939 991.739, 262.006 988.490, 262.014 986.719 C 262.031 982.602, 258.060 967.114, 256.324 964.527 C 255.168 962.805, 255 962.773, 255 964.277 M 905.189 969.039 C 903.691 970.434, 903 972.258, 903 974.816 C 903 976.873, 902.354 979.478, 901.564 980.605 C 900.774 981.733, 899.445 986.567, 898.610 991.348 C 897.776 996.129, 896.736 1000.594, 896.300 1001.270 C 895.864 1001.947, 894.987 1004.975, 894.350 1008 C 892.343 1017.536, 895.326 1019.396, 911.355 1018.606 C 922.592 1018.053, 922.816 1017.717, 920.590 1004.784 C 919.616 999.128, 918.264 993.600, 917.584 992.500 C 916.904 991.400, 915.561 986.675, 914.598 982 C 912.291 970.802, 912.123 970.266, 910.363 968.506 C 908.397 966.540, 907.805 966.601, 905.189 969.039 M 1842.653 973.884 C 1842.489 974.223, 1841.798 976.525, 1841.117 979 C 1840.437 981.475, 1838.797 987.100, 1837.474 991.500 C 1836.151 995.900, 1834.558 1002.425, 1833.935 1006 C 1833.312 1009.575, 1831.629 1015.593, 1830.195 1019.374 L 1827.587 1026.247 1829.904 1028.124 C 1831.910 1029.748, 1834.003 1030, 1845.488 1030 C 1861.209 1030, 1861.568 1029.797, 1860.703 1021.412 C 1860.388 1018.360, 1859.698 1015.330, 1859.170 1014.681 C 1858.641 1014.031, 1857.926 1011.250, 1857.580 1008.500 C 1857.233 1005.750, 1856.528 1002.375, 1856.013 1001 C 1855.497 999.625, 1854.161 994.623, 1853.043 989.884 C 1850.170 977.710, 1848.601 974.348, 1845.514 973.758 C 1844.105 973.489, 1842.818 973.545, 1842.653 973.884" stroke="none" fill="#000000" fill-rule="evenodd" data-index="0" style="opacity: 1;"></path>
</svg>